<?xml version="1.0" standalone="no"?>
<!DOCTYPE svg PUBLIC "-//W3C//DTD SVG 20010904//EN"
 "http://www.w3.org/TR/2001/REC-SVG-20010904/DTD/svg10.dtd">
<svg version="1.0" xmlns="http://www.w3.org/2000/svg"
 width="800.000000pt" height="800.000000pt" viewBox="0 0 800.000000 800.000000"
 preserveAspectRatio="xMidYMid meet">
<metadata>
Created by potrace 1.11, written by Peter Selinger 2001-2013
</metadata>
<g transform="translate(0.000000,800.000000) scale(0.100000,-0.100000)"
fill="#000000" stroke="none">
<path d="M6000 7983 c-8 -2 -24 -8 -35 -13 -11 -4 -45 -16 -75 -25 -66 -20
-144 -69 -198 -125 l-39 -41 -61 20 c-82 28 -174 27 -249 -1 -103 -38 -198
-151 -217 -258 -5 -27 -16 -41 -50 -63 -24 -15 -62 -47 -84 -71 -40 -44 -92
-133 -92 -158 0 -7 -9 -30 -20 -51 -23 -43 -26 -108 -6 -145 8 -15 22 -49 32
-77 48 -137 165 -242 305 -274 26 -6 209 -11 437 -11 215 0 392 -3 392 -6 0
-3 -14 -26 -32 -50 -28 -40 -35 -44 -62 -39 -114 20 -191 33 -193 31 -4 -4
-103 -334 -103 -344 0 -5 44 -29 98 -54 l99 -46 6 -93 c3 -52 9 -110 12 -129
6 -34 4 -36 -84 -100 -50 -36 -89 -67 -88 -70 1 -3 39 -76 85 -162 l82 -156
109 36 109 36 66 -61 c35 -34 78 -69 95 -79 36 -21 35 -13 16 -129 -8 -49 -15
-97 -15 -106 0 -11 42 -28 156 -64 89 -28 159 -55 164 -64 5 -9 10 -14 12 -11
2 3 26 53 55 111 l51 106 89 6 c48 4 106 9 128 12 l40 6 65 -90 65 -89 130 68
c72 37 144 75 162 84 l32 16 -38 110 -37 109 48 48 c27 26 63 69 80 96 16 26
35 47 42 47 6 0 49 -7 96 -15 134 -24 118 -37 174 146 27 88 56 164 64 168 9
5 -22 23 -96 55 l-109 48 -7 99 c-3 54 -10 109 -16 123 -9 25 -4 30 84 96 l93
70 -82 155 c-45 85 -84 157 -86 160 -3 2 -54 -11 -113 -31 -105 -34 -109 -35
-122 -16 -7 10 -49 47 -93 82 -45 35 -81 68 -81 73 0 5 7 54 16 109 9 55 13
102 11 105 -3 2 -80 28 -172 58 l-167 53 -50 -104 c-27 -57 -51 -104 -53 -104
-3 0 -2 35 2 78 13 173 -71 333 -215 410 l-58 31 -11 66 c-15 88 -53 163 -118
233 -62 67 -120 101 -242 142 -88 30 -105 33 -133 23z m151 -113 c155 -49 250
-172 267 -346 l7 -66 52 -20 c71 -26 155 -104 190 -176 24 -49 28 -69 28 -147
0 -84 -2 -94 -34 -153 -42 -77 -104 -134 -180 -164 -56 -23 -60 -23 -611 -26
-390 -2 -573 0 -615 8 -170 33 -285 170 -285 340 0 131 70 247 183 305 l54 27
6 57 c5 63 21 101 63 150 32 38 107 78 162 87 54 9 138 -17 194 -61 l46 -35
32 49 c102 160 271 225 441 171z m972 -840 c5 -4 2 -51 -6 -104 l-14 -97 61
-36 c34 -21 94 -70 133 -110 l73 -72 82 29 c46 15 90 31 99 35 13 5 27 -14 65
-89 48 -94 49 -96 29 -110 -109 -77 -150 -114 -147 -132 1 -10 10 -59 18 -109
9 -55 13 -116 9 -155 l-6 -65 97 -48 c60 -30 94 -52 91 -60 -3 -7 -15 -49 -27
-92 -12 -44 -26 -84 -30 -89 -8 -7 -141 7 -192 20 -12 4 -29 -15 -62 -66 -25
-39 -75 -99 -111 -135 l-65 -64 34 -98 c19 -54 34 -98 33 -99 -20 -13 -189
-95 -191 -93 -6 8 -120 164 -121 166 -1 2 -33 -4 -71 -12 -38 -8 -117 -15
-175 -15 l-106 0 -44 -95 c-23 -52 -45 -95 -47 -95 -3 0 -50 14 -104 31 -91
28 -99 32 -95 52 10 39 30 188 26 190 -63 37 -157 110 -203 155 l-58 60 -82
-28 c-44 -15 -88 -31 -98 -35 -13 -5 -26 13 -65 88 l-49 95 87 65 86 65 -14
54 c-9 30 -16 106 -18 173 l-2 120 -96 47 -95 47 31 98 c17 54 32 100 33 102
3 3 118 -12 185 -25 22 -4 30 2 62 53 20 32 51 75 69 95 l33 38 110 1 c207 2
318 48 418 175 l48 61 45 -7 45 -7 49 98 50 98 92 -31 c51 -17 97 -34 101 -38z"/>
<path d="M5835 7490 l-45 -46 141 -139 141 -140 -37 -31 -36 -32 111 -1 110
-2 0 113 -1 113 -31 -34 -30 -34 -139 139 -139 140 -45 -46z m179 -105 c70
-74 133 -135 141 -135 7 0 18 7 25 15 22 26 26 17 29 -65 l2 -80 -81 0 -80 0
16 26 17 25 -137 138 -138 138 33 36 c19 19 37 35 40 36 3 1 63 -60 133 -134z"/>
<path d="M5518 7402 l-108 -3 0 -111 0 -112 35 34 36 35 139 -141 139 -140 46
45 45 46 -141 141 -142 142 34 30 c19 17 32 32 29 34 -3 2 -53 2 -112 0z m49
-40 c-10 -10 -17 -21 -17 -24 0 -2 61 -65 135 -138 74 -74 135 -138 135 -142
0 -5 -14 -23 -31 -40 l-30 -32 -136 137 c-75 75 -140 137 -144 137 -3 0 -12
-7 -19 -15 -21 -26 -25 -17 -25 60 l0 75 74 0 c71 0 73 -1 58 -18z"/>
<path d="M5450 7314 c0 -50 2 -55 16 -43 13 11 34 -7 154 -126 l139 -139 26
24 26 24 -137 137 c-113 114 -135 140 -129 158 6 20 3 21 -44 21 l-51 0 0 -56z"/>
<path d="M7034 6391 c-2 -2 -4 -20 -4 -38 0 -33 2 -34 33 -31 l32 3 0 -205 0
-205 -33 3 c-33 3 -33 3 -30 -35 l3 -38 98 -3 97 -3 0 42 c0 41 -1 41 -30 36
l-30 -6 0 204 0 205 31 0 c29 0 30 2 27 36 l-3 36 -93 1 c-52 1 -96 0 -98 -2z"/>
<path d="M6295 6372 c-44 -29 -74 -65 -85 -103 -6 -19 -10 -114 -10 -211 l0
-178 35 0 35 0 0 110 0 110 105 0 105 0 0 -110 0 -110 35 0 35 0 0 191 c0 214
-6 240 -68 287 -46 35 -142 43 -187 14z m156 -81 c24 -24 29 -38 29 -75 l0
-46 -105 0 -105 0 0 38 c0 67 43 111 108 112 35 0 49 -6 73 -29z"/>
<path d="M6640 6135 l0 -255 35 0 34 0 3 91 3 92 76 1 c121 3 169 49 169 164
0 70 -16 109 -56 141 -24 19 -40 21 -145 21 l-119 0 0 -255z m233 168 c12 -12
17 -31 17 -71 0 -80 -14 -92 -107 -92 l-73 0 0 88 c0 49 2 91 4 93 11 11 142
-4 159 -18z"/>
<path d="M4722 6767 c-114 -60 -281 -291 -365 -503 l-16 -41 -123 -6 c-68 -3
-145 -11 -173 -18 -83 -20 -236 -69 -307 -99 l-67 -29 -53 21 c-154 59 -329
89 -543 93 -82 2 -169 8 -191 14 -137 37 -403 51 -561 31 -239 -32 -437 -105
-621 -229 -46 -31 -118 -78 -159 -104 -275 -174 -535 -430 -778 -767 -176
-244 -375 -614 -500 -929 -36 -91 -37 -96 -30 -185 29 -409 153 -727 372 -951
72 -74 262 -221 372 -288 116 -71 296 -153 435 -198 75 -24 136 -48 136 -52 0
-5 -14 -28 -30 -53 -47 -67 -59 -112 -69 -264 -11 -156 -27 -200 -84 -244 -70
-54 -159 -84 -353 -120 -104 -20 -247 -47 -319 -61 -71 -14 -195 -36 -275 -50
-286 -48 -325 -55 -352 -66 -27 -11 -28 -15 -28 -78 0 -76 19 -181 48 -261 42
-119 128 -260 157 -260 9 0 89 29 178 64 233 92 559 200 697 231 41 9 100 23
130 31 30 8 91 20 136 28 44 7 92 21 106 30 34 22 104 14 212 -25 138 -50 327
-165 348 -211 21 -46 209 -122 378 -153 145 -27 273 -38 364 -31 346 24 507
64 773 191 l132 63 168 16 c92 9 200 23 239 30 71 13 72 12 184 -24 119 -40
159 -64 124 -75 -38 -13 -392 -150 -431 -168 -38 -17 -66 -71 -59 -115 27
-184 40 -227 77 -267 15 -16 37 -51 49 -78 24 -51 100 -131 153 -159 17 -10
45 -18 62 -18 25 0 45 -14 105 -75 49 -49 82 -75 97 -75 29 0 92 56 109 95 18
44 47 66 96 72 26 4 121 44 243 106 241 120 446 226 462 239 8 7 39 -8 100
-48 111 -73 218 -126 322 -160 74 -24 92 -26 209 -22 133 4 190 18 308 74 63
30 67 30 151 0 48 -18 89 -25 140 -24 81 0 167 -22 206 -52 43 -34 104 -50
191 -50 175 0 285 39 370 130 75 81 84 198 23 320 -25 52 -19 48 -482 266
-148 70 -324 153 -390 185 -66 31 -226 107 -355 168 -298 140 -284 133 -288
159 -2 12 -21 35 -43 53 l-39 31 -55 -23 -55 -23 -80 33 c-77 31 -81 32 -112
17 -17 -9 -34 -16 -38 -16 -5 0 -46 24 -92 52 -46 29 -108 64 -138 78 -30 13
-57 26 -59 27 -17 12 44 16 300 19 212 3 357 11 531 29 l239 24 52 -24 c134
-62 292 -108 442 -131 134 -20 519 -28 738 -16 202 11 190 6 273 113 76 99 97
146 90 209 -14 146 -114 307 -270 438 l-75 63 -253 -16 c-139 -9 -276 -15
-303 -13 l-50 3 3 100 c8 292 24 680 28 684 2 3 37 -3 77 -12 87 -21 126 -21
237 -3 254 41 443 160 537 337 16 30 35 74 42 97 11 39 10 46 -5 63 -45 49
-606 240 -882 299 -86 19 -278 89 -447 165 -244 108 -441 167 -643 192 l-142
17 -67 101 c-80 118 -196 243 -302 322 -42 32 -78 58 -80 60 -2 1 -4 33 -5 70
-1 42 -10 96 -25 140 -23 67 -23 76 -11 127 23 95 -3 177 -91 289 -28 34 -39
57 -35 71 12 52 28 413 22 521 -12 226 -53 344 -152 434 -54 50 -57 51 -117
51 -44 -1 -74 -7 -105 -23z m169 -68 c86 -61 133 -231 133 -489 1 -188 -12
-400 -24 -400 -4 0 -28 19 -52 43 -80 79 -160 148 -253 217 l-93 68 -7 106
c-17 252 42 403 178 455 67 26 82 26 118 0z m-325 -369 c1 -94 -1 -170 -5
-170 -4 0 -12 5 -19 12 -9 9 -15 9 -24 0 -16 -16 83 -117 272 -280 74 -65 178
-160 231 -213 90 -89 98 -100 109 -152 18 -89 14 -101 -45 -110 -70 -11 -82
-10 -155 7 -73 17 -133 8 -182 -26 -33 -23 -34 -19 -8 32 52 101 -7 222 -141
290 -38 20 -38 20 -49 1 -12 -23 4 -114 24 -134 27 -27 44 -65 56 -127 7 -36
20 -84 31 -107 14 -32 16 -48 9 -74 -16 -56 -11 -90 25 -178 19 -46 32 -88 29
-93 -3 -5 -19 -6 -35 -3 -40 9 -37 -7 9 -43 42 -34 54 -54 74 -126 9 -34 24
-58 51 -81 25 -22 37 -40 37 -58 0 -31 -14 -35 -29 -9 -9 16 -11 16 -23 0 -30
-38 -81 -58 -151 -58 -61 0 -71 -3 -92 -26 -14 -15 -25 -32 -25 -39 0 -26 -24
-34 -47 -16 -19 16 -21 25 -16 75 5 51 3 58 -20 81 -40 40 -57 87 -57 154 0
47 -3 61 -15 61 -8 0 -19 -9 -25 -20 -6 -11 -14 -20 -19 -20 -4 0 -33 32 -64
71 -67 85 -113 121 -185 144 -101 33 -208 -2 -309 -103 -52 -53 -67 -62 -97
-62 -66 0 -86 49 -51 126 15 31 74 84 94 84 6 0 11 10 10 23 0 12 -3 16 -6 10
-2 -7 -11 -13 -19 -13 -21 0 -94 -72 -94 -92 0 -10 -4 -18 -10 -18 -5 0 -10
-14 -10 -32 l0 -32 -40 44 c-22 24 -40 39 -40 32 0 -19 84 -122 100 -122 8 0
-12 -27 -45 -60 -46 -46 -66 -60 -89 -60 -29 0 -87 -36 -118 -74 -23 -29 -41
-10 -71 77 -50 146 -61 213 -48 282 12 58 11 65 -10 111 -34 72 -59 104 -214
265 -119 123 -147 159 -183 230 -45 89 -66 180 -56 238 8 42 60 114 94 132
113 58 277 53 535 -16 55 -15 132 -35 170 -46 94 -25 100 -24 195 16 195 83
275 102 480 110 74 3 137 9 141 13 4 4 24 50 44 102 43 109 105 240 114 240 3
0 7 -77 7 -170z m-1831 -172 c91 -13 107 -21 74 -39 -13 -6 -45 -30 -71 -51
-29 -24 -52 -37 -60 -32 -7 4 -72 9 -145 11 -106 2 -135 -1 -147 -12 -8 -8
-20 -15 -26 -15 -6 0 -9 -4 -6 -8 6 -10 -50 -35 -66 -29 -8 3 -2 9 12 15 14 5
46 25 70 43 l45 34 140 -5 c132 -5 188 2 169 20 -16 14 -138 29 -251 31 -126
1 -116 5 -265 -95 -92 -61 -103 -89 -40 -105 192 -50 322 -62 322 -29 0 20 50
78 81 94 18 9 49 14 77 12 l47 -3 3 -79 c3 -70 1 -78 -13 -66 -16 13 -31 4
-124 -77 -35 -31 -42 -43 -37 -61 10 -30 48 -28 111 6 39 21 51 33 53 55 4 33
19 35 31 5 22 -60 22 -66 1 -73 -22 -7 -154 -135 -170 -166 -14 -25 -12 -61 4
-81 28 -37 269 -18 325 26 10 8 27 -5 75 -55 92 -97 88 -91 71 -131 -8 -20
-17 -66 -21 -104 -8 -86 -47 -176 -111 -253 -2 -3 -9 1 -15 7 -7 7 -27 12 -46
12 -18 0 -64 5 -101 11 -62 10 -74 9 -153 -15 -47 -14 -95 -26 -107 -26 -33 0
-25 25 11 35 38 11 48 39 20 54 -13 7 -31 6 -60 -4 -23 -8 -49 -12 -58 -8 -25
9 -44 -23 -37 -61 5 -27 57 -151 83 -198 6 -10 10 -24 10 -32 0 -20 37 -63 46
-53 4 4 3 17 -3 30 -6 12 -18 42 -28 67 -9 25 -21 55 -26 68 -13 33 -2 45 35
38 30 -6 116 14 201 47 48 19 215 29 215 13 0 -20 -132 -137 -238 -211 -166
-115 -238 -174 -299 -247 -31 -37 -60 -73 -64 -79 -5 -8 -28 -12 -65 -10 -72
3 -112 -13 -120 -48 -10 -50 -23 -71 -44 -71 -13 0 -30 -17 -51 -50 -19 -32
-38 -50 -50 -50 -76 0 -210 -73 -344 -186 -49 -42 -65 -62 -63 -78 4 -31 44
-32 166 -1 211 53 217 56 252 125 15 30 37 63 48 73 10 10 27 35 37 57 13 28
25 41 46 45 36 8 51 27 58 73 6 33 10 37 39 40 17 2 32 1 32 -1 0 -3 -15 -31
-33 -64 -42 -75 -85 -166 -93 -198 -5 -21 -3 -25 15 -25 12 0 21 5 21 11 0 6
14 29 31 50 24 30 34 37 44 29 7 -6 36 -13 64 -17 56 -6 60 -12 32 -51 -42
-60 -64 -144 -43 -168 5 -5 14 -29 21 -54 16 -58 51 -128 66 -134 14 -5 89 12
123 27 31 15 69 53 100 102 28 44 32 108 13 195 -6 25 -12 71 -15 103 -6 90
-34 106 -111 67 -21 -11 -41 -17 -44 -15 -2 3 14 25 38 49 l42 43 2 133 c2 94
6 135 15 138 7 2 12 -1 12 -7 0 -16 69 -81 85 -81 17 0 70 79 123 183 25 51
59 94 112 147 42 41 91 96 109 123 17 26 36 47 40 47 12 0 22 -148 15 -227 -3
-37 -7 -147 -9 -243 -3 -165 -27 -682 -39 -835 -5 -60 16 -307 29 -342 2 -7
11 -13 18 -13 18 0 28 97 22 198 -4 60 -3 72 10 72 8 0 15 -8 15 -17 0 -23 47
-143 65 -167 32 -43 31 -14 -5 174 -27 138 -33 236 -36 623 -3 229 -1 417 4
417 4 0 13 -15 20 -34 7 -18 35 -71 64 -117 101 -165 95 -145 107 -344 l12
-180 -27 -75 c-14 -41 -32 -115 -40 -165 -17 -110 -5 -209 36 -300 44 -98 192
-281 240 -297 8 -2 11 -11 8 -19 -4 -12 -23 -16 -70 -18 -34 -1 -71 -4 -82 -7
-10 -4 -29 0 -42 7 -19 10 -27 10 -36 1 -7 -7 -21 -12 -33 -12 -21 0 -45 -17
-45 -32 0 -4 9 -12 21 -18 15 -9 24 -8 35 1 14 11 20 2 15 -25 -2 -11 19 -26
37 -26 7 0 18 12 24 26 10 21 17 25 40 20 36 -7 127 10 147 28 16 14 81 32 81
23 0 -14 -13 -37 -22 -37 -21 0 -99 -42 -105 -56 -3 -8 2 -21 12 -28 16 -11
35 -6 139 36 67 27 153 64 191 83 39 19 161 68 271 109 193 72 205 75 285 74
110 -1 180 25 249 92 27 27 52 44 56 39 3 -5 8 -74 11 -152 6 -142 -6 -278
-29 -336 -42 -104 -64 -135 -171 -234 -61 -56 -187 -177 -281 -268 -94 -91
-185 -175 -203 -187 -27 -19 -44 -22 -138 -22 -103 0 -115 2 -278 55 -239 77
-315 86 -397 45 -11 -6 -29 -14 -40 -20 -11 -5 -29 -15 -40 -22 -27 -17 -37
-2 -14 23 39 44 153 90 249 100 98 11 128 28 101 58 -8 9 -12 27 -9 42 9 48
-23 45 -142 -14 -60 -31 -113 -53 -117 -51 -9 6 41 80 78 117 15 15 36 27 48
27 59 1 84 28 54 58 -36 36 -178 -28 -178 -80 0 -10 -7 -21 -14 -24 -8 -3 -27
-22 -42 -41 -23 -31 -25 -39 -15 -56 14 -22 9 -30 -40 -56 -26 -14 -34 -26
-36 -47 0 -16 -2 -34 -2 -41 -1 -17 -150 -143 -183 -155 -15 -5 -52 -39 -83
-74 -31 -35 -61 -62 -65 -59 -12 7 -158 -31 -179 -47 -9 -7 -17 -13 -19 -14
-2 -1 2 -12 8 -24 9 -17 18 -21 43 -18 18 3 40 8 50 13 40 17 13 -22 -44 -63
-32 -24 -59 -50 -59 -58 0 -21 11 -18 82 22 95 53 211 146 326 261 l104 104
-7 -50 c-6 -44 -4 -51 15 -61 18 -10 31 -6 86 29 36 23 67 41 70 41 10 0 3
-29 -11 -40 -12 -10 -15 -30 -13 -83 3 -60 6 -72 26 -85 22 -14 25 -13 80 46
31 33 71 67 87 75 42 21 67 51 59 71 -5 12 -20 16 -63 16 -54 0 -93 12 -75 22
23 13 182 17 304 8 74 -6 186 -13 248 -17 62 -3 115 -10 118 -15 3 -5 -4 -25
-15 -44 -16 -27 -21 -52 -21 -108 0 -66 2 -75 28 -99 35 -33 42 -33 76 -2 22
20 26 32 26 79 0 44 -5 59 -22 75 -15 14 -21 32 -21 61 0 22 2 42 4 44 2 2 84
6 182 9 l179 6 -15 -23 c-30 -44 -22 -135 11 -137 9 -1 67 -1 127 1 114 2 145
13 145 50 0 28 -53 70 -87 70 -33 0 -54 17 -31 25 7 3 36 1 63 -5 28 -6 77
-15 110 -20 114 -18 299 -81 579 -198 185 -77 219 -101 260 -186 34 -68 97
-312 96 -367 -1 -15 -26 47 -39 96 -45 165 -171 334 -293 389 -91 41 -158 58
-158 39 1 -9 65 -43 81 -43 19 0 143 -86 175 -121 47 -52 87 -124 128 -234 21
-55 44 -114 51 -131 13 -29 12 -33 -8 -52 -26 -25 -171 -102 -191 -102 -8 0
-17 14 -21 32 -14 71 -91 244 -153 343 -63 99 -233 228 -263 198 -10 -10 -8
-14 7 -19 100 -38 237 -210 305 -385 11 -29 32 -81 45 -113 13 -33 21 -63 16
-68 -4 -4 -36 -11 -70 -14 l-62 -7 0 27 c0 105 -97 226 -250 314 -50 28 -100
52 -111 52 -37 0 -17 -25 54 -70 93 -58 92 -56 151 -115 51 -50 133 -190 117
-199 -7 -5 -129 17 -226 40 -16 4 -46 17 -65 29 -34 21 -225 115 -235 115 -2
0 -28 11 -57 24 -47 21 -97 41 -163 66 -109 41 -200 60 -317 66 -135 7 -202 0
-195 -19 2 -7 25 -13 50 -15 26 -2 47 -7 47 -12 0 -11 -177 -16 -410 -11
l-185 3 3 205 3 205 44 47 c131 139 153 173 125 191 -22 14 -45 -2 -110 -75
-35 -38 -86 -87 -114 -107 -112 -83 -106 -72 -105 -194 0 -123 5 -140 38 -157
20 -10 50 -75 51 -109 0 -20 -317 13 -425 43 -38 11 -77 22 -86 25 -13 4 -8
13 22 47 22 23 39 49 38 57 0 8 -12 51 -27 95 -24 71 -30 80 -53 83 -22 3 -27
-2 -32 -25 -4 -19 -28 -46 -72 -81 -36 -29 -65 -60 -65 -68 0 -8 -5 -14 -11
-14 -12 0 -69 42 -121 89 -36 32 -38 38 -38 92 0 79 25 203 61 301 89 247 122
353 148 483 7 33 15 69 17 80 16 71 44 326 44 405 l0 94 37 38 c20 21 40 38
43 38 4 0 19 -26 34 -59 15 -32 36 -67 47 -77 20 -18 21 -18 38 5 17 23 17 25
-5 68 -13 24 -24 48 -24 54 0 5 20 9 43 9 32 0 49 6 63 21 18 20 18 21 -26 57
-100 83 -100 82 -106 152 -5 45 -14 74 -29 95 -37 49 -65 75 -80 75 -8 0 -44
-25 -80 -56 -44 -38 -88 -64 -133 -80 -88 -32 -96 -42 -97 -111 0 -55 -1 -56
-33 -67 -18 -6 -37 -18 -43 -26 -8 -13 -4 -140 7 -230 1 -14 3 -39 3 -55 1
-23 26 -62 100 -156 116 -148 121 -155 114 -194 -12 -80 -27 -126 -42 -134
-10 -6 -51 -6 -101 0 -299 32 -388 44 -560 76 -98 18 -400 101 -414 114 -6 5
26 9 76 9 104 0 198 26 198 56 0 6 -31 61 -68 121 -38 59 -71 115 -75 123 -36
74 -65 115 -82 115 -13 0 -53 -44 -122 -135 -56 -74 -105 -143 -109 -153 -7
-23 16 -50 64 -73 22 -10 31 -19 24 -22 -15 -5 -11 -7 -174 73 -422 205 -709
508 -800 845 -42 155 -56 234 -63 353 -7 132 -2 156 72 317 14 30 32 72 40 93
8 20 18 37 21 37 2 0 19 -16 36 -36 24 -28 37 -35 51 -30 32 11 241 296 280
381 12 28 34 61 49 74 14 14 26 33 26 43 0 28 -45 65 -88 73 -79 15 -79 15 4
133 77 108 211 279 247 315 18 18 21 18 29 3 12 -22 28 -20 90 8 29 13 74 33
99 44 25 11 51 28 59 37 25 30 159 136 214 169 30 18 88 41 130 50 67 16 81
24 135 75 46 43 69 75 96 134 19 43 35 90 35 105 0 42 11 51 91 78 263 89 507
121 704 92z m-225 -138 c0 -5 -4 -10 -10 -10 -5 0 -10 5 -10 10 0 6 5 10 10
10 6 0 10 -4 10 -10z m-600 -25 c0 -9 -7 -18 -15 -21 -8 -4 -15 -14 -15 -24 0
-9 -8 -32 -17 -50 -15 -30 -17 -32 -24 -14 -4 12 -2 23 7 30 20 16 17 34 -6
34 -11 0 -20 -7 -20 -15 0 -9 -9 -15 -25 -15 -14 0 -25 -4 -25 -10 0 -5 -9
-10 -19 -10 -10 0 -21 -7 -25 -15 -3 -8 -15 -15 -26 -15 -11 0 -20 -4 -20 -10
0 -5 -9 -10 -20 -10 -14 0 -18 -5 -13 -17 4 -10 2 -14 -4 -10 -6 4 -18 0 -26
-8 -9 -8 -23 -15 -32 -15 -9 0 -13 -4 -10 -10 3 -5 -3 -10 -14 -10 -22 0 -28
-14 -11 -25 13 -8 13 -35 0 -35 -6 0 -28 -11 -50 -25 -22 -14 -50 -24 -63 -22
-12 2 -16 2 -9 0 14 -5 17 -33 3 -33 -5 0 -24 -12 -42 -27 -21 -18 -34 -24
-37 -15 -2 6 -9 12 -15 12 -8 0 -7 -4 1 -12 17 -17 15 -31 -3 -24 -8 3 -14 2
-12 -3 1 -4 -13 -22 -30 -40 -34 -33 -44 -31 -19 5 11 15 12 22 3 33 -10 12
-9 14 5 8 11 -4 15 -2 12 7 -2 6 15 31 39 53 50 47 255 203 277 211 8 3 17 9
20 12 8 11 257 147 273 149 4 1 7 -6 7 -14z m550 -19 c0 -3 -4 -8 -10 -11 -5
-3 -10 -1 -10 4 0 6 5 11 10 11 6 0 10 -2 10 -4z m-630 -119 c0 -8 -18 -30
-40 -50 -36 -34 -44 -37 -98 -37 -42 0 -63 -5 -72 -15 -7 -9 -22 -15 -32 -13
-22 4 -20 24 2 21 8 -1 18 4 22 10 4 6 37 12 75 14 37 1 69 7 71 13 2 5 10 10
18 10 8 0 14 7 14 15 0 8 5 15 10 15 6 0 10 7 10 15 0 8 5 15 10 15 6 0 10 -6
10 -13z m971 -259 c29 -33 33 -48 11 -56 -7 -2 -12 7 -12 23 0 15 -4 24 -10
20 -5 -3 -10 1 -10 9 0 9 -9 16 -20 16 -11 0 -20 -4 -20 -10 0 -5 -5 -10 -11
-10 -14 0 -39 -26 -39 -41 0 -8 14 -10 45 -7 25 3 47 2 50 -2 4 -7 -135 -21
-143 -14 -2 1 15 20 39 41 23 21 47 43 53 50 18 20 35 15 67 -19z m2297 -244
c20 -13 22 -24 22 -95 0 -83 -12 -122 -52 -166 -19 -20 -18 -43 2 -43 16 0 60
54 72 88 12 32 28 43 28 20 0 -41 -23 -88 -44 -94 -23 -5 -56 -43 -69 -77 -5
-14 -2 -20 13 -24 11 -3 20 -12 20 -20 0 -12 -3 -13 -13 -5 -7 7 -18 7 -27 2
-11 -7 -12 -11 0 -25 7 -9 19 -14 25 -11 10 3 11 -12 7 -62 -2 -37 -6 -69 -8
-71 -2 -2 -22 15 -45 38 -46 45 -79 54 -79 21 0 -12 7 -20 17 -20 21 0 83 -58
83 -78 0 -8 -16 -32 -35 -55 -19 -22 -35 -47 -35 -54 0 -24 28 -13 58 23 54
65 72 15 22 -59 -16 -25 -30 -50 -30 -56 0 -19 28 -12 44 11 25 35 30 14 19
-70 -8 -62 -18 -90 -46 -135 -46 -71 -75 -90 -147 -95 l-57 -4 -18 48 c-9 27
-21 57 -26 66 -7 13 3 28 44 67 52 49 52 49 39 85 -11 29 -11 40 0 58 11 21
15 44 21 157 2 41 0 45 -25 52 -39 10 -54 28 -61 76 -4 24 -18 62 -32 86 -22
41 -23 46 -9 66 9 12 13 28 10 36 -4 11 3 15 29 15 34 0 35 -1 35 -37 0 -44
25 -87 66 -114 53 -34 124 -18 108 25 -4 10 -16 16 -28 15 -52 -4 -67 2 -86
34 -25 40 -26 76 -2 83 76 25 111 63 133 146 11 38 10 57 0 97 -7 28 -10 55
-6 61 9 15 37 12 63 -6z m-238 -44 c8 -15 6 -24 -10 -40 -11 -11 -23 -20 -28
-20 -14 0 -33 41 -27 61 8 25 51 25 65 -1z m70 -50 c0 -27 -4 -50 -10 -50 -11
0 -13 42 -4 78 10 35 14 26 14 -28z m-1773 -45 c31 -59 35 -104 12 -129 -5 -6
-9 -23 -9 -39 0 -16 -4 -26 -10 -22 -5 3 -10 16 -10 27 0 21 0 21 -20 -2 -11
-13 -20 -35 -20 -49 0 -14 -4 -37 -8 -51 -11 -39 -18 80 -10 165 13 128 20
166 32 162 6 -2 25 -30 43 -62z m1673 -6 c0 -5 -4 -9 -10 -9 -5 0 -10 7 -10
16 0 8 5 12 10 9 6 -3 10 -10 10 -16z m-790 -254 c0 -43 -4 -75 -10 -75 -6 0
-10 32 -10 75 0 43 4 75 10 75 6 0 10 -32 10 -75z m-86 36 c15 -17 15 -20 -3
-42 -16 -20 -23 -22 -38 -13 -22 14 -29 54 -11 65 20 13 33 11 52 -10z m1295
-5 c10 -12 9 -18 -6 -33 -10 -10 -28 -32 -40 -48 -25 -34 -31 -15 -8 25 8 14
14 35 15 48 0 25 22 29 39 8z m-994 -91 c27 -32 55 -55 66 -55 11 0 21 -6 23
-12 21 -74 33 -103 53 -124 13 -14 23 -29 23 -35 0 -5 7 -9 15 -9 20 0 19 -19
-5 -55 -11 -16 -20 -37 -20 -45 0 -14 62 -46 154 -80 25 -9 28 -14 22 -40 -7
-36 9 -48 99 -75 83 -24 89 -28 96 -61 4 -16 9 -36 13 -44 10 -24 -3 -34 -121
-93 -111 -56 -114 -57 -200 -57 -106 0 -192 20 -300 71 -73 34 -87 45 -116 91
-19 29 -37 61 -40 71 -10 27 21 87 44 87 28 0 23 17 -7 24 -53 14 -95 -74 -66
-135 19 -38 10 -45 -68 -55 -30 -3 -63 -13 -72 -21 -23 -20 -84 -10 -163 26
-56 26 -58 29 -37 40 27 14 29 38 4 45 -10 3 -34 27 -54 54 -20 26 -51 63 -69
81 -29 32 -32 33 -44 18 -12 -16 -15 -14 -36 19 l-23 38 30 54 c31 59 63 87
71 65 9 -25 23 -12 53 47 17 34 38 64 46 67 21 8 64 -17 64 -37 0 -9 5 -21 12
-28 9 -9 9 -15 0 -24 -7 -7 -12 -20 -12 -30 0 -10 -4 -18 -9 -18 -5 0 -12 -10
-16 -22 -6 -22 -7 -22 -15 6 -6 18 -5 36 1 48 12 23 8 75 -6 68 -5 -3 -9 -13
-7 -23 1 -10 -5 -25 -13 -34 -9 -8 -14 -18 -12 -22 2 -3 9 -21 16 -39 12 -30
17 -33 42 -28 16 3 29 1 29 -4 0 -19 -54 -50 -89 -50 -48 0 -64 -11 -56 -41
20 -79 131 -127 193 -84 26 19 92 11 92 -11 0 -8 9 -14 20 -14 11 0 20 -3 20
-8 0 -7 72 -42 87 -42 4 0 2 5 -5 12 -32 32 3 99 66 129 75 36 80 66 8 54 -66
-10 -111 -8 -147 7 -19 8 -52 21 -74 27 -67 21 -94 35 -100 51 -4 8 -1 16 4
18 6 2 11 10 11 18 0 8 7 14 15 14 13 0 15 -7 10 -34 -6 -31 -5 -34 25 -40 51
-10 70 -7 70 9 0 11 12 15 50 15 76 0 62 32 -20 45 -77 12 -126 41 -149 89
-26 52 -26 58 -1 81 19 18 21 17 60 -27 21 -25 54 -51 72 -58 18 -8 42 -24 53
-38 30 -35 95 -40 182 -12 76 24 121 24 136 -1 23 -36 -23 -110 -71 -115 -15
-1 -42 -6 -60 -10 -19 -3 -43 -2 -55 4 -12 6 -31 12 -42 15 -11 3 -28 8 -38
12 -13 5 -16 3 -11 -8 3 -10 -3 -18 -20 -23 -19 -7 -7 -9 47 -9 39 -1 81 -6
92 -12 16 -9 27 -7 57 10 41 22 65 16 30 -8 -11 -9 -28 -22 -36 -30 -8 -8 -20
-15 -26 -15 -6 0 -13 -7 -16 -15 -4 -8 -15 -15 -26 -15 -10 0 -17 -4 -14 -9 3
-5 24 -9 45 -9 22 0 50 -6 62 -13 37 -19 130 -38 166 -32 32 5 69 33 44 33 -6
0 -11 -5 -11 -11 0 -13 -69 -3 -85 12 -5 5 -18 9 -30 9 -25 0 -75 22 -75 33 0
4 4 7 9 7 17 0 87 76 104 113 21 44 21 71 0 108 -19 32 -76 46 -138 35 -39 -8
-46 2 -15 22 30 19 70 88 70 122 0 16 4 30 9 30 5 0 30 -25 56 -55z m1142 -27
c35 -34 63 -69 63 -76 0 -12 -13 -32 -61 -89 -5 -7 -26 -13 -45 -13 -56 0
-133 -62 -134 -107 0 -26 -9 -29 -32 -10 -14 11 -38 105 -38 149 0 10 32 51
71 90 39 40 78 83 86 96 8 12 18 22 21 22 4 0 35 -28 69 -62z m-1449 22 c7
-12 8 -20 2 -20 -5 0 -10 5 -10 10 0 6 -7 10 -15 10 -8 0 -15 5 -15 10 0 17
25 11 38 -10z m-3210 -18 c2 -7 -3 -12 -12 -12 -9 0 -16 -8 -16 -20 0 -11 -4
-20 -10 -20 -5 0 -10 -9 -10 -20 0 -11 -7 -20 -15 -20 -8 0 -15 -9 -15 -19 0
-10 -7 -21 -15 -25 -8 -3 -15 -3 -15 0 0 10 47 101 73 142 10 15 29 12 35 -6z
m43 -2 c23 -13 25 -30 4 -30 -9 0 -20 -10 -25 -22 -8 -22 -9 -22 -9 -2 -1 11
4 25 11 32 9 9 9 12 0 12 -7 0 -12 5 -12 10 0 13 6 13 31 0z m-38 -107 c-8
-21 -22 -5 -16 18 4 15 8 17 13 8 5 -7 6 -18 3 -26z m-23 -39 c0 -8 -4 -12
-10 -9 -5 3 -10 10 -10 16 0 5 5 9 10 9 6 0 10 -7 10 -16z m2579 -89 c40 -98
90 -193 125 -240 44 -58 48 -72 30 -101 -20 -29 -22 -108 -4 -129 7 -8 9 -15
4 -14 -15 0 -74 80 -81 108 -3 14 -31 59 -62 100 -64 84 -111 167 -111 193 0
10 4 26 9 36 5 9 15 45 22 80 7 34 17 61 22 59 5 -1 25 -43 46 -92z m-120 32
c-9 -33 -16 -43 -24 -35 -3 3 0 24 7 46 14 46 31 36 17 -11z m2366 13 c15 -22
25 -43 21 -47 -3 -3 -6 -2 -6 4 0 6 -9 13 -20 16 -13 3 -18 10 -14 21 3 9 1
16 -5 16 -6 0 -11 -5 -11 -11 0 -14 -39 -49 -53 -49 -6 0 1 12 15 28 14 15 28
35 31 45 9 23 10 23 42 -23z m-4845 11 c0 -6 -4 -13 -10 -16 -5 -3 -10 1 -10
9 0 9 5 16 10 16 6 0 10 -4 10 -9z m-44 -63 c-18 -26 -22 -17 -5 14 6 11 13
17 16 15 3 -3 -2 -16 -11 -29z m4189 -22 c7 -22 7 -30 -2 -33 -16 -6 -17 -60
-2 -65 7 -2 7 -12 -2 -31 -15 -33 -27 -34 -39 -4 -7 17 -9 18 -9 5 -1 -10 -9
-18 -18 -18 -13 0 -18 -9 -19 -30 -1 -33 -14 -53 -21 -32 -3 6 -13 12 -23 12
-29 0 -91 30 -85 40 4 6 10 8 15 5 5 -3 11 -1 15 5 8 14 -17 38 -48 45 -14 4
-28 13 -31 20 -6 16 22 56 37 53 35 -6 128 16 158 37 42 30 61 28 74 -9z
m-2230 -35 c-22 -33 -32 -40 -56 -38 -16 1 -29 4 -29 7 1 7 104 79 108 75 2
-2 -9 -21 -23 -44z m2765 29 c-34 -11 -60 -11 -35 0 11 5 29 8 40 8 16 0 15
-2 -5 -8z m-80 -20 c0 -5 -2 -10 -4 -10 -3 0 -8 5 -11 10 -3 6 -1 10 4 10 6 0
11 -4 11 -10z m333 -37 c29 -17 110 -305 91 -323 -5 -4 -29 -15 -54 -23 -25
-9 -62 -23 -83 -32 -37 -15 -44 -15 -138 6 l-99 22 0 36 c0 49 -29 159 -53
203 -11 21 -19 39 -16 41 4 4 104 45 179 74 32 12 151 10 173 -4z m-363 -23
c0 -5 -4 -10 -10 -10 -5 0 -10 5 -10 10 0 6 5 10 10 10 6 0 10 -4 10 -10z
m514 4 c20 -8 21 -24 2 -24 -7 0 -19 -7 -26 -15 -7 -8 -16 -15 -20 -15 -6 0
-30 44 -30 55 0 7 56 6 74 -1z m249 -50 c120 -33 361 -119 462 -164 22 -10 76
-32 120 -50 44 -17 89 -35 100 -40 65 -27 279 -90 525 -155 167 -44 338 -102
468 -161 37 -16 37 -25 2 -94 l-18 -35 -11 43 c-14 52 -38 75 -105 101 -121
48 -356 90 -356 64 0 -13 72 -43 100 -43 28 0 198 -45 240 -64 51 -23 65 -37
79 -78 19 -58 1 -100 -64 -148 -30 -22 -57 -40 -60 -40 -3 0 -5 12 -5 26 0 46
-30 91 -83 126 -103 67 -309 147 -344 133 -16 -6 -16 -8 6 -26 14 -11 38 -23
53 -26 16 -3 31 -10 34 -14 3 -5 12 -9 20 -9 19 0 166 -72 211 -103 35 -24 41
-33 54 -87 5 -22 4 -39 -3 -47 -14 -17 -90 -51 -132 -58 -33 -7 -33 -7 -40 40
-3 26 -15 63 -27 81 -37 61 -147 107 -214 90 -33 -8 -32 -34 3 -41 118 -23
166 -52 192 -115 20 -49 10 -73 -35 -83 -47 -10 -175 -3 -225 12 -67 20 -68
23 -59 146 4 61 11 129 14 152 5 33 2 46 -13 61 -11 11 -24 21 -31 23 -20 7
-1 80 25 91 29 14 31 43 4 58 -37 20 -82 -17 -104 -84 -6 -17 -14 -18 -99 -12
-50 3 -110 11 -132 17 -22 6 -114 12 -205 13 -140 3 -173 6 -215 24 -27 11
-72 26 -98 33 -28 8 -54 23 -63 36 -17 26 -51 30 -92 10 -31 -16 -111 -11
-113 7 -1 6 0 45 1 86 1 50 -6 101 -20 153 -11 43 -22 83 -23 88 -1 6 22 19
52 29 30 11 60 29 68 40 19 26 45 25 156 -6z m-3582 -43 c-6 -11 -11 -36 -11
-56 0 -51 -19 -81 -96 -154 -59 -55 -119 -90 -132 -76 -2 2 9 23 25 47 16 24
51 75 77 115 66 99 140 181 144 160 2 -9 -2 -25 -7 -36z m1457 7 c2 -20 -1
-28 -12 -28 -9 0 -16 3 -16 8 0 4 -10 12 -22 17 -39 18 -34 37 8 33 34 -3 39
-6 42 -30z m1305 -15 c35 -57 57 -148 57 -234 l0 -66 -42 -15 c-130 -46 -278
-89 -287 -83 -18 11 -12 30 23 71 18 21 43 57 54 79 12 22 40 60 62 85 47 51
80 117 88 172 2 21 7 38 11 38 3 0 19 -21 34 -47z m-1713 -138 c0 -8 -4 -15
-10 -15 -5 0 -10 7 -10 15 0 8 5 15 10 15 6 0 10 -7 10 -15z m-33 -92 c-3 -10
-5 -4 -5 12 0 17 2 24 5 18 2 -7 2 -21 0 -30z m573 27 c0 -5 -18 -10 -40 -10
-22 0 -40 5 -40 10 0 6 18 10 40 10 22 0 40 -4 40 -10z m901 -39 c-16 -28 -78
-79 -118 -96 -19 -8 -64 -15 -98 -15 -103 0 -124 17 -52 45 23 9 67 31 97 50
47 30 64 35 118 35 58 0 62 -1 53 -19z m-1601 -46 c14 -19 14 -19 -2 -6 -10 7
-18 18 -18 24 0 6 1 8 3 6 1 -2 9 -13 17 -24z m2378 0 c-3 -29 -18 -34 -18 -7
0 17 8 32 17 32 1 0 2 -11 1 -25z m-349 -2 c0 -10 -4 -27 -9 -38 -6 -16 -8
-12 -8 18 1 20 5 37 10 37 4 0 8 -8 7 -17z m-3429 -51 c-11 -14 -30 -32 -40
-39 -18 -13 -20 -12 -20 8 0 15 5 19 15 15 9 -3 15 0 15 9 0 8 -7 15 -16 15
-8 0 -12 5 -8 11 3 6 15 9 25 6 10 -3 22 -1 25 4 3 5 10 7 15 3 5 -3 0 -17
-11 -32z m570 9 c0 -27 -17 -35 -23 -11 -5 19 0 30 15 30 4 0 8 -9 8 -19z
m940 -55 c46 -44 110 -92 154 -116 42 -23 76 -48 76 -56 0 -29 -39 -91 -82
-130 -45 -42 -145 -84 -199 -84 -15 0 -31 -4 -34 -10 -3 -5 -16 -10 -27 -10
-19 0 -20 4 -15 48 11 84 35 147 62 162 13 7 27 21 30 31 6 19 -29 180 -46
211 -25 48 -5 37 81 -46z m-970 45 c0 -5 -11 -12 -25 -15 -14 -4 -25 -11 -25
-16 0 -6 -8 -10 -17 -10 -15 0 -14 2 3 18 29 28 64 40 64 23z m-610 -11 c0 -5
-6 -10 -14 -10 -8 0 -18 5 -21 10 -3 6 3 10 14 10 12 0 21 -4 21 -10z m-31
-38 c-19 -2 -36 -8 -40 -13 -7 -11 -69 -30 -69 -21 1 4 19 19 42 33 35 23 45
25 71 15 l30 -11 -34 -3z m3848 -14 c-3 -7 -5 -2 -5 12 0 14 2 19 5 13 2 -7 2
-19 0 -25z m-468 -36 c-26 -68 -69 -322 -69 -408 0 -157 66 -255 199 -295 38
-11 43 -11 65 10 40 38 133 172 181 264 26 48 51 85 56 81 5 -3 9 -65 9 -137
0 -73 5 -226 10 -341 7 -136 7 -213 1 -219 -6 -6 -23 -4 -48 5 -33 14 -43 14
-87 1 -32 -10 -79 -14 -131 -11 -136 5 -195 55 -284 243 -84 175 -147 424
-165 645 -4 47 -9 92 -12 101 -5 17 14 25 186 82 85 27 105 23 89 -21z m-1872
16 c-3 -8 -6 -5 -6 6 -1 11 2 17 5 13 3 -3 4 -12 1 -19z m1221 -20 c4 -47 -13
-108 -38 -141 -34 -43 -200 -79 -200 -43 0 15 29 26 70 26 65 0 130 81 130
160 0 34 3 41 18 38 12 -2 18 -14 20 -40z m1337 17 c79 -9 95 -14 95 -30 0 -8
-18 -15 -46 -20 -25 -3 -78 -17 -118 -30 -71 -23 -95 -24 -78 -2 5 7 13 23 17
37 10 35 36 61 54 56 9 -3 43 -8 76 -11z m-546 -16 c15 -11 45 -25 67 -30 64
-16 190 -22 223 -11 17 6 32 8 35 4 5 -9 -34 -103 -51 -124 -10 -11 -45 -15
-165 -17 -84 -1 -163 -5 -174 -7 -29 -7 -35 5 -23 52 29 110 35 130 42 142 11
16 13 16 46 -9z m-485 -102 l8 -106 -73 -85 c-41 -46 -78 -83 -84 -82 -16 4
-18 41 -10 191 l7 141 46 17 c26 10 54 22 62 27 29 17 35 3 44 -103z m-189 1
c-4 -24 -10 -61 -14 -82 -3 -22 -10 -40 -16 -42 -5 -1 -25 15 -43 37 -29 33
-33 42 -25 66 5 14 16 30 24 33 8 4 23 12 34 18 40 22 48 15 40 -30z m1905 6
c188 -32 270 -59 270 -89 0 -11 -4 -103 -10 -205 -5 -102 -12 -282 -15 -400
-7 -288 -15 -490 -21 -518 -4 -22 -8 -23 -62 -17 -84 9 -265 45 -392 77 -41
11 -95 24 -120 28 -69 14 -331 88 -365 104 -16 8 -50 20 -75 27 -25 7 -48 17
-51 22 -4 5 -10 123 -13 261 -4 138 -9 328 -12 422 -5 149 -3 172 10 177 9 3
19 0 23 -7 5 -7 22 -16 38 -19 17 -3 66 -13 110 -22 148 -30 328 -40 517 -27
95 6 207 18 248 27 41 9 90 19 108 22 43 7 43 33 -1 33 -20 0 -39 8 -50 20
-18 21 -37 27 -37 11 0 -5 6 -11 13 -14 9 -3 9 -7 -1 -20 -9 -10 -39 -18 -88
-22 -71 -7 -77 -6 -102 17 -79 72 -111 90 -172 94 -36 3 -60 1 -60 -5 0 -9
122 -106 144 -114 59 -22 -280 -27 -393 -7 -36 7 -99 18 -140 26 -40 8 -86 14
-102 14 -21 0 -29 5 -29 18 0 32 220 96 360 104 117 7 383 -3 470 -18z m-2865
-24 c3 -5 -1 -10 -9 -10 -9 0 -16 5 -16 10 0 6 4 10 9 10 6 0 13 -4 16 -10z
m260 -51 c4 -5 0 -24 -8 -42 -27 -58 -87 -214 -87 -226 0 -23 16 -9 42 37 15
26 48 79 73 117 25 39 48 80 51 93 5 16 14 22 34 22 16 0 35 3 44 6 25 9 19
-12 -13 -48 -67 -77 -95 -176 -81 -280 9 -62 42 -138 72 -165 10 -9 18 -19 18
-23 0 -12 -380 -134 -389 -124 -6 5 -6 28 -1 53 9 50 5 67 -17 75 -21 9 -26 4
-83 -82 -29 -42 -57 -80 -64 -84 -14 -8 -89 88 -160 203 -43 69 -96 200 -96
235 0 21 13 17 76 -24 110 -71 194 -87 271 -52 84 38 204 174 233 265 7 22 15
43 17 48 6 11 61 8 68 -4z m313 -25 c2 -29 16 -50 42 -64 20 -11 131 12 164
34 14 9 31 16 39 16 16 0 58 -43 86 -90 25 -41 26 -50 6 -50 -7 0 -19 -8 -24
-17 -10 -17 -10 -17 -11 0 0 10 -8 17 -20 17 -16 0 -20 -7 -21 -32 l-1 -33
-10 28 c-12 35 -55 48 -74 22 -12 -16 -14 -16 -36 -1 -29 21 -88 22 -88 1 0
-8 -4 -15 -9 -15 -5 0 -11 7 -15 15 -8 21 -40 19 -61 -5 -13 -15 -16 -30 -12
-60 3 -22 1 -43 -5 -46 -17 -11 -27 17 -15 43 17 38 -5 73 -47 73 -41 0 -42
-3 -52 -112 -6 -77 -6 -77 20 -89 23 -11 30 -10 48 8 19 20 21 20 38 3 14 -14
34 -18 89 -18 63 0 73 2 90 24 19 24 20 24 26 5 10 -33 46 -37 70 -9 l21 24
17 -23 c21 -27 35 -28 63 -5 15 13 24 37 31 87 l10 70 2 -61 c1 -71 -15 -118
-61 -170 -85 -97 -221 -130 -330 -80 -111 50 -186 171 -175 283 10 100 70 193
150 232 53 26 52 26 55 -5z m611 -175 l10 -61 -50 -51 c-27 -28 -65 -82 -84
-120 -19 -39 -37 -64 -39 -56 -7 22 -26 167 -26 198 0 23 6 30 26 35 24 6 70
43 117 94 11 12 24 22 28 22 4 0 12 -27 18 -61z m411 16 c118 -27 195 -52 193
-62 -5 -24 -137 -203 -150 -203 -17 0 -62 29 -86 55 -34 38 -57 105 -57 164 0
63 6 75 29 65 9 -3 41 -12 71 -19z m-1120 -55 c0 -5 -4 -10 -10 -10 -5 0 -10
5 -10 10 0 6 5 10 10 10 6 0 10 -4 10 -10z m96 -27 c-11 -11 -19 6 -11 24 8
17 8 17 12 0 3 -10 2 -21 -1 -24z m311 15 c-3 -8 -6 -5 -6 6 -1 11 2 17 5 13
3 -3 4 -12 1 -19z m-170 -45 c-3 -10 -5 -4 -5 12 0 17 2 24 5 18 2 -7 2 -21 0
-30z m-260 -35 c-3 -8 -6 -5 -6 6 -1 11 2 17 5 13 3 -3 4 -12 1 -19z m217 7
c-4 -8 -8 -15 -10 -15 -2 0 -4 7 -4 15 0 8 4 15 10 15 5 0 7 -7 4 -15z m93 -7
c-3 -8 -6 -5 -6 6 -1 11 2 17 5 13 3 -3 4 -12 1 -19z m458 -25 c3 -16 10 -42
15 -59 13 -41 13 -61 -4 -109 -7 -22 -22 -66 -32 -99 -15 -48 -28 -67 -76
-109 -32 -28 -58 -55 -58 -59 0 -5 17 -8 37 -8 42 0 103 37 123 75 7 14 16 25
20 25 4 0 13 19 20 43 7 23 14 49 17 57 3 10 11 4 23 -20 22 -40 25 -76 9 -86
-6 -3 -16 -18 -22 -33 -30 -67 -191 -274 -307 -395 -127 -132 -152 -169 -187
-276 -21 -65 -53 -198 -53 -221 0 -33 -24 -32 -142 5 -62 20 -119 36 -125 36
-7 0 -14 4 -17 9 -7 11 160 175 279 273 151 125 207 197 245 309 26 77 50 214
50 290 0 31 7 76 15 99 21 58 83 179 102 199 9 8 22 30 30 48 16 40 31 42 38
6z m168 -425 c14 -24 41 -60 62 -81 36 -37 36 -37 13 -46 -32 -12 -52 -37 -84
-106 -15 -33 -47 -81 -71 -107 -24 -26 -43 -51 -43 -57 0 -20 34 -20 67 0 35
22 93 92 93 113 0 6 20 37 45 70 24 32 45 62 47 67 2 5 17 4 35 -3 27 -10 31
-16 26 -38 -6 -33 20 -59 45 -43 10 5 18 20 20 32 3 19 9 21 77 21 41 0 85 4
100 10 21 8 42 4 103 -19 42 -16 85 -31 95 -35 18 -6 24 -26 7 -26 -14 0 -43
-68 -36 -85 3 -9 18 -15 40 -15 38 0 76 36 76 73 0 23 -2 23 165 -23 61 -17
148 -39 195 -51 47 -11 89 -24 93 -28 5 -5 -9 -12 -31 -16 -63 -10 -85 -56
-50 -101 17 -21 27 -25 51 -20 27 5 29 4 23 -18 -7 -28 15 -56 43 -56 10 0 32
5 50 11 74 26 56 89 -26 89 l-44 0 16 31 c15 28 15 33 0 55 -8 13 -12 24 -8
24 19 0 231 -41 258 -51 17 -5 85 -13 153 -16 l122 -6 0 -28 c0 -22 6 -30 24
-35 33 -8 46 2 46 35 l0 28 103 7 c56 4 130 11 163 16 34 6 111 11 172 11 134
2 146 -4 258 -124 80 -87 134 -181 154 -271 9 -43 8 -54 -14 -102 -14 -30 -27
-54 -31 -54 -3 0 -3 35 1 78 5 59 2 89 -11 127 -23 66 -91 168 -154 229 l-51
50 -232 -3 c-128 -1 -237 -6 -242 -11 -14 -14 26 -18 224 -24 102 -3 199 -8
215 -11 37 -8 66 -34 119 -110 77 -109 91 -170 75 -310 -15 -133 -14 -133
-161 -137 -68 -2 -125 -2 -127 -1 -1 1 8 17 21 35 82 112 82 234 1 346 -24 32
-24 32 -110 32 -113 0 -315 -19 -328 -31 -22 -21 22 -25 204 -21 l189 5 23
-44 c36 -69 33 -177 -6 -255 -16 -32 -34 -63 -40 -67 -16 -13 -490 2 -585 18
-190 34 -392 105 -550 194 -27 16 -64 29 -110 40 -161 38 -266 64 -272 67 -3
2 0 18 8 34 13 25 13 34 2 57 -7 15 -26 34 -41 41 -15 7 -27 21 -27 30 0 9 -9
32 -20 50 -11 18 -20 35 -20 37 0 10 36 5 47 -6 8 -8 19 -6 40 4 69 36 64 65
-19 111 l-50 28 -25 -23 c-18 -18 -23 -31 -19 -50 5 -29 -9 -49 -35 -49 -9 0
-28 -11 -43 -25 -36 -34 -29 -78 21 -121 33 -29 35 -35 30 -69 -3 -21 -2 -46
3 -56 7 -12 7 -20 0 -24 -17 -10 -83 16 -109 43 -22 25 -24 25 -37 7 -39 -53
34 -195 101 -195 38 0 62 19 72 58 8 35 21 43 50 29 18 -8 27 -7 42 7 18 16
22 16 87 -4 38 -11 87 -26 109 -32 89 -24 106 -31 98 -38 -4 -5 -34 -10 -66
-11 -32 -2 -86 -9 -120 -16 -36 -8 -173 -16 -328 -19 l-266 -7 -86 73 c-48 41
-87 78 -87 82 0 5 18 32 39 61 77 103 131 225 131 300 0 45 -27 118 -49 131
-11 7 -41 -3 -41 -14 0 -4 -16 -36 -36 -71 -19 -35 -38 -77 -41 -94 -16 -82
-116 -230 -177 -259 -45 -21 -57 -57 -40 -116 8 -25 14 -49 14 -53 0 -14 -133
2 -397 49 -30 6 -29 21 7 126 62 181 93 233 219 363 64 66 139 147 167 179 50
59 50 60 74 43 14 -9 32 -17 41 -17 16 0 75 67 80 91 5 23 -11 59 -25 59 -28
0 -37 25 -20 59 8 17 17 31 19 31 2 0 14 -19 28 -42z m-3700 -355 c-7 -2 -19
-2 -25 0 -7 3 -2 5 12 5 14 0 19 -2 13 -5z m225 -640 c29 -46 52 -85 52 -88 0
-3 -54 -5 -120 -5 l-119 0 24 36 c23 34 44 109 46 169 3 67 10 70 38 19 15
-27 50 -86 79 -131z m2522 127 c0 -5 -6 -10 -14 -10 -8 0 -18 5 -21 10 -3 6 3
10 14 10 12 0 21 -4 21 -10z m-2429 -272 c7 -13 29 -49 50 -80 21 -32 35 -59
31 -61 -4 -2 -43 0 -87 4 -82 7 -112 2 -315 -55 -30 -9 -89 -25 -130 -37 -94
-27 -175 -48 -220 -59 -19 -4 -62 -16 -95 -25 -33 -10 -76 -21 -95 -25 -19 -5
-78 -20 -130 -35 -52 -15 -108 -29 -125 -32 -16 -3 -35 -9 -40 -13 -6 -5 -46
-18 -90 -30 -44 -12 -93 -26 -110 -30 -40 -11 -97 -33 -113 -43 -9 -6 -17 3
-28 30 -8 21 -24 57 -35 80 -10 24 -19 45 -19 48 0 3 -11 23 -25 45 -19 29
-22 42 -13 45 7 2 85 16 173 30 190 30 266 43 320 55 22 5 81 16 130 25 50 9
113 20 140 25 28 5 95 18 150 29 126 24 204 46 260 71 57 26 210 51 347 58 51
2 59 -1 69 -20z m3884 -144 c62 -25 86 -27 127 -9 13 5 20 2 24 -11 4 -11 14
-27 22 -36 14 -16 13 -18 -1 -18 -10 0 -17 -5 -17 -11 0 -7 14 -9 38 -6 20 2
29 2 20 0 -28 -7 -22 -33 7 -33 14 0 25 -4 25 -10 0 -5 11 -12 25 -16 14 -3
25 -10 25 -15 0 -5 6 -9 13 -9 15 0 117 -48 117 -55 0 -2 -12 -16 -26 -30 -18
-19 -23 -31 -19 -48 10 -31 34 -48 160 -112 61 -30 128 -65 150 -76 22 -12 48
-25 57 -30 22 -11 61 9 97 50 17 19 37 31 52 30 l24 0 -22 -11 c-13 -6 -23
-14 -23 -17 1 -3 49 -29 108 -58 165 -79 275 -133 292 -143 12 -7 127 -62 298
-143 12 -6 22 -14 22 -19 0 -15 -30 -21 -45 -8 -21 17 -114 40 -165 40 -25 -1
-71 -7 -102 -14 -37 -9 -58 -11 -58 -4 0 6 -7 8 -15 4 -13 -4 -183 76 -220
104 -13 10 -632 320 -705 353 -31 14 -82 27 -117 30 -34 3 -67 8 -73 12 -12 7
31 50 108 107 51 38 56 68 12 68 -16 0 -30 5 -30 10 0 6 -6 10 -14 10 -7 0
-33 11 -57 25 -45 27 -57 33 -97 54 -13 7 -41 21 -63 33 -21 11 -36 24 -33 29
7 12 5 13 79 -17z m-3709 -137 c31 -51 77 -120 102 -155 24 -35 42 -66 39 -68
-3 -3 -22 5 -44 18 -36 23 -234 121 -278 138 -11 4 -32 12 -47 18 -33 13 -195
42 -223 40 -11 -1 -33 7 -50 18 l-29 19 24 3 c14 2 34 7 45 12 11 5 34 11 50
14 17 2 55 12 85 22 60 19 238 34 256 21 7 -4 38 -49 70 -100z m3994 23 c0 -5
-7 -10 -15 -10 -8 0 -15 5 -15 10 0 6 7 10 15 10 8 0 15 -4 15 -10z m45 -20
c3 -5 -1 -10 -10 -10 -9 0 -13 5 -10 10 3 6 8 10 10 10 2 0 7 -4 10 -10z m60
-30 c-3 -5 -12 -7 -20 -3 -21 7 -19 13 6 13 11 0 18 -4 14 -10z m-4635 -10 c0
-5 -18 -10 -41 -10 -24 0 -38 4 -34 10 3 6 22 10 41 10 19 0 34 -4 34 -10z
m4685 -10 c3 -5 -3 -10 -15 -10 -12 0 -18 5 -15 10 3 6 10 10 15 10 5 0 12 -4
15 -10z m-4802 -21 c-8 -8 -16 -8 -30 0 -16 9 -14 10 12 11 21 0 26 -3 18 -11z
m4850 -6 c-7 -2 -19 -2 -25 0 -7 3 -2 5 12 5 14 0 19 -2 13 -5z m52 -23 c3 -5
-1 -10 -9 -10 -9 0 -16 5 -16 10 0 6 4 10 9 10 6 0 13 -4 16 -10z m-5990 -87
c38 -126 39 -129 28 -118 -13 13 -58 130 -68 173 -4 20 -3 32 4 32 6 0 22 -39
36 -87z m900 67 c3 -5 1 -10 -4 -10 -6 0 -11 5 -11 10 0 6 2 10 4 10 3 0 8 -4
11 -10z m5015 0 c12 -8 11 -10 -7 -10 -13 0 -23 5 -23 10 0 13 11 13 30 0z
m127 -6 c-3 -3 -12 -4 -19 -1 -8 3 -5 6 6 6 11 1 17 -2 13 -5z m-5214 -21 c-7
-2 -19 -2 -25 0 -7 3 -2 5 12 5 14 0 19 -2 13 -5z m5267 -3 c0 -5 -7 -10 -15
-10 -8 0 -15 5 -15 10 0 6 7 10 15 10 8 0 15 -4 15 -10z m-30 -71 c69 -34 140
-69 158 -78 19 -9 36 -20 39 -24 9 -14 -13 -29 -41 -29 -26 0 -138 50 -144 65
-2 4 -12 7 -22 7 -10 0 -21 4 -25 10 -3 5 -37 24 -75 42 -46 22 -69 39 -70 51
0 31 50 19 180 -44z m90 45 c0 -2 -9 -4 -21 -4 -11 0 -18 4 -14 10 5 8 35 3
35 -6z m42 -26 c-9 -9 -15 -9 -24 0 -9 9 -7 12 12 12 19 0 21 -3 12 -12z m58
-18 c0 -5 -9 -10 -20 -10 -11 0 -20 5 -20 10 0 6 9 10 20 10 11 0 20 -4 20
-10z m60 -26 c0 -2 -12 -4 -26 -4 -14 0 -23 4 -20 9 6 8 46 4 46 -5z m-552
-95 c98 -51 236 -122 307 -159 179 -93 466 -237 490 -246 18 -7 17 -8 -7 -12
-15 -2 -36 2 -47 7 -11 6 -33 11 -49 11 -18 0 -127 49 -278 126 -137 70 -289
147 -339 173 -86 43 -93 45 -172 44 -110 -2 -152 -16 -211 -75 -59 -59 -222
-124 -222 -88 0 4 10 10 23 14 33 8 155 83 210 129 43 37 47 44 47 86 0 42 4
48 33 63 17 9 34 17 35 17 2 1 83 -40 180 -90z m597 71 c3 -5 -3 -10 -14 -10
-12 0 -21 5 -21 10 0 6 6 10 14 10 8 0 18 -4 21 -10z m50 -20 c3 -5 -3 -10
-14 -10 -12 0 -21 5 -21 10 0 6 6 10 14 10 8 0 18 -4 21 -10z m-6285 -10 c0
-5 -2 -10 -4 -10 -3 0 -8 5 -11 10 -3 6 -1 10 4 10 6 0 11 -4 11 -10z m6340
-20 c0 -5 -9 -10 -20 -10 -11 0 -20 5 -20 10 0 6 9 10 20 10 11 0 20 -4 20
-10z m-6330 -9 c0 -6 -4 -13 -10 -16 -5 -3 -10 1 -10 9 0 9 5 16 10 16 6 0 10
-4 10 -9z m-86 -17 c3 -8 2 -12 -4 -9 -6 3 -10 10 -10 16 0 14 7 11 14 -7z
m6366 6 c0 -5 -7 -10 -15 -10 -8 0 -15 5 -15 10 0 6 7 10 15 10 8 0 15 -4 15
-10z m95 0 c3 -5 -3 -10 -14 -10 -12 0 -21 5 -21 10 0 6 6 10 14 10 8 0 18 -4
21 -10z m-3225 -13 c-34 -18 -70 -27 -70 -18 0 8 54 28 80 30 8 0 4 -5 -10
-12z m-1295 -7 c3 -5 -1 -10 -10 -10 -9 0 -13 5 -10 10 3 6 8 10 10 10 2 0 7
-4 10 -10z m4480 0 c4 -6 -6 -10 -22 -10 -22 0 -25 2 -13 10 19 12 27 12 35 0z
m95 -10 c0 -5 -6 -10 -14 -10 -8 0 -18 5 -21 10 -3 6 3 10 14 10 12 0 21 -4
21 -10z m-4467 -31 c34 -12 116 -32 182 -46 161 -33 455 -43 566 -20 41 8 88
18 104 22 80 17 114 21 110 14 -3 -4 -24 -10 -48 -14 -23 -4 -46 -11 -52 -15
-11 -9 -63 -15 -230 -30 -125 -10 -324 -5 -393 11 -111 25 -142 33 -222 57
-47 14 -89 29 -94 34 -17 14 11 9 77 -13z m1097 11 c-20 -13 -53 -13 -45 0 3
6 18 10 33 10 21 0 24 -2 12 -10z m3330 0 c0 -5 -9 -10 -20 -10 -11 0 -20 5
-20 10 0 6 9 10 20 10 11 0 20 -4 20 -10z m95 0 c4 -6 -5 -10 -19 -10 -14 0
-26 -4 -26 -10 0 -5 -12 -10 -26 -10 -14 0 -23 4 -19 10 3 6 15 10 26 10 10 0
19 5 19 10 0 6 9 10 19 10 11 0 23 -4 26 -10z m-3485 -20 c0 -5 -15 -10 -32
-10 -25 0 -29 3 -18 10 20 13 50 13 50 0z m3530 0 c12 -8 11 -10 -7 -10 -13 0
-23 5 -23 10 0 13 11 13 30 0z m-6530 -24 c0 -3 -4 -8 -10 -11 -5 -3 -10 -1
-10 4 0 6 5 11 10 11 6 0 10 -2 10 -4z m5589 -7 c74 -23 79 -28 34 -28 -23 -1
-45 4 -48 9 -3 6 -20 10 -36 10 -18 0 -28 4 -24 10 8 13 30 13 74 -1z m901 1
c0 -5 11 -10 25 -10 14 0 25 -4 25 -10 0 -5 -11 -10 -25 -10 -14 0 -25 5 -25
10 0 6 -9 10 -19 10 -11 0 -23 5 -26 10 -4 6 5 10 19 10 14 0 26 -4 26 -10z
m100 0 c0 -5 -9 -10 -20 -10 -11 0 -20 5 -20 10 0 6 9 10 20 10 11 0 20 -4 20
-10z m-1135 -20 c3 -6 -4 -10 -17 -10 -38 0 -92 -43 -126 -98 -17 -30 -20 -31
-25 -13 -3 12 0 21 6 21 7 0 18 12 25 28 24 52 118 102 137 72z m1195 -5 c7
-8 21 -15 31 -15 11 0 19 -4 19 -10 0 -5 6 -10 14 -10 8 0 36 -11 63 -24 45
-22 115 -54 191 -87 39 -17 40 -26 7 -39 -14 -5 -25 -14 -25 -20 0 -16 -25
-12 -53 10 -14 11 -32 20 -41 20 -9 0 -16 5 -16 10 0 6 -8 10 -19 10 -10 0
-24 7 -31 15 -7 8 -21 15 -31 15 -11 0 -19 5 -19 10 0 6 -11 10 -25 10 -14 0
-25 5 -25 10 0 6 -8 10 -19 10 -10 0 -24 7 -31 15 -7 8 -21 15 -31 15 -11 0
-19 5 -19 10 0 6 -9 10 -19 10 -26 0 -37 18 -16 26 9 4 24 -1 34 -10 10 -9 25
-16 34 -16 9 0 19 -4 22 -10 3 -5 14 -10 24 -10 10 0 24 -7 31 -15 7 -8 21
-15 31 -15 11 0 19 -4 19 -10 0 -5 11 -10 25 -10 14 0 25 -4 25 -10 0 -5 11
-10 25 -10 14 0 25 5 25 10 0 6 -11 10 -25 10 -14 0 -25 5 -25 10 0 6 -9 10
-20 10 -11 0 -23 7 -26 15 -4 8 -17 15 -30 15 -13 0 -24 5 -24 10 0 6 -11 10
-25 10 -16 0 -25 6 -25 15 0 9 -9 15 -25 15 -14 0 -25 5 -25 10 0 15 36 12 50
-5z m-1047 -32 c26 -3 47 -9 47 -14 0 -4 14 -11 32 -14 25 -6 28 -9 15 -16 -9
-6 -26 -5 -42 1 -78 30 -200 -8 -266 -82 -9 -10 -19 -18 -23 -18 -14 0 -4 19
24 48 17 18 30 43 30 57 0 32 50 56 100 49 19 -2 56 -7 83 -11z m107 7 c0 -13
-20 -13 -40 0 -12 8 -9 10 13 10 15 0 27 -4 27 -10z m45 -20 c3 -5 -1 -10 -9
-10 -9 0 -16 5 -16 10 0 6 4 10 9 10 6 0 13 -4 16 -10z m52 -26 c-3 -3 -12 -4
-19 -1 -8 3 -5 6 6 6 11 1 17 -2 13 -5z m-47 -18 c0 -11 -19 -15 -25 -6 -3 5
1 10 9 10 9 0 16 -2 16 -4z m90 -6 c0 -5 -4 -10 -10 -10 -5 0 -10 5 -10 10 0
6 5 10 10 10 6 0 10 -4 10 -10z m-590 -15 c0 -8 5 -24 12 -34 9 -15 6 -25 -17
-55 -15 -20 -36 -36 -47 -36 -20 0 -98 39 -110 55 -16 23 6 23 36 0 39 -30 93
-33 112 -7 21 27 17 33 -27 30 -27 -2 -43 2 -46 10 -3 6 1 12 9 12 7 0 24 9
38 20 30 24 40 25 40 5z m-1455 -5 c15 -6 7 -9 -30 -9 -36 -1 -46 2 -35 9 18
12 38 12 65 0z m2002 -6 c-3 -3 -12 -4 -19 -1 -8 3 -5 6 6 6 11 1 17 -2 13 -5z
m90 0 c-3 -3 -12 -4 -19 -1 -8 3 -5 6 6 6 11 1 17 -2 13 -5z m-1988 -36 c77
-41 220 -200 208 -231 -3 -7 -8 -5 -13 8 -29 71 -200 225 -250 225 -7 0 -16 5
-19 10 -11 18 32 11 74 -12z m866 -47 c-77 -38 -189 -92 -250 -120 -60 -29
-118 -56 -127 -61 -10 -6 -22 -10 -28 -10 -5 0 -33 -11 -62 -24 -29 -13 -73
-32 -97 -43 l-44 -20 -49 25 c-27 13 -47 27 -44 30 3 3 26 -5 51 -18 35 -18
48 -21 57 -12 7 7 20 12 30 12 10 0 18 5 18 10 0 6 6 10 12 10 7 0 35 11 63
24 65 32 189 89 240 111 66 28 144 68 224 113 50 28 87 42 111 42 30 -1 16
-10 -105 -69z m1085 65 c0 -11 -19 -15 -25 -6 -3 5 1 10 9 10 9 0 16 -2 16 -4z
m80 -6 c0 -5 -7 -7 -15 -4 -8 4 -15 8 -15 10 0 2 7 4 15 4 8 0 15 -4 15 -10z
m-906 -15 c-4 -8 -10 -15 -15 -15 -4 0 -6 7 -3 15 4 8 10 15 15 15 4 0 6 -7 3
-15z m866 -5 c0 -5 -7 -10 -15 -10 -8 0 -15 5 -15 10 0 6 7 10 15 10 8 0 15
-4 15 -10z m83 -7 c-7 -2 -19 -2 -25 0 -7 3 -2 5 12 5 14 0 19 -2 13 -5z
m-1023 -23 c0 -5 -12 -10 -27 -10 -22 0 -25 2 -13 10 20 13 40 13 40 0z m993
-2 c12 -7 24 -15 27 -18 15 -16 92 -60 103 -60 37 0 24 19 -33 46 -8 4 -17 11
-20 14 -3 4 -14 12 -25 18 -17 10 -17 11 -3 12 10 0 39 -12 65 -27 26 -14 65
-36 88 -47 23 -12 41 -30 43 -41 3 -19 -3 -20 -105 -20 -92 0 -115 -3 -152
-22 -59 -30 -66 -29 -40 6 22 30 28 86 15 129 -8 25 3 28 37 10z m1095 -33 c0
-41 -3 -45 -34 -55 -58 -19 -114 -106 -114 -176 0 -18 5 -36 10 -39 15 -9 12
-35 -4 -35 -30 0 -36 147 -8 197 24 44 122 153 138 153 9 0 13 -14 12 -45z
m-2150 1 c-16 -5 -28 -13 -28 -18 0 -4 -11 -8 -25 -8 -14 0 -25 -4 -25 -10 0
-5 -15 -10 -32 -10 l-33 1 39 19 c22 11 46 20 53 20 7 0 13 4 13 9 0 12 30 19
50 12 11 -4 7 -8 -12 -15z m162 3 c0 -11 -4 -17 -10 -14 -5 3 -10 13 -10 21 0
8 5 14 10 14 6 0 10 -9 10 -21z m691 -24 c51 -25 98 -45 106 -45 31 0 27 -34
-9 -64 -99 -86 -303 -91 -420 -12 -17 11 -33 26 -35 32 -5 16 65 93 106 114
24 13 57 19 98 20 54 0 75 -6 154 -45z m-605 -20 c4 -10 20 -15 45 -15 21 0
39 -4 39 -9 0 -15 -61 -19 -75 -4 -8 7 -18 13 -24 13 -6 0 -11 7 -11 15 0 8 5
15 10 15 6 0 13 -7 16 -15z m1349 5 c3 -5 2 -10 -4 -10 -5 0 -13 5 -16 10 -3
6 -2 10 4 10 5 0 13 -4 16 -10z m-2685 -86 c58 -39 110 -73 115 -75 13 -5 128
-82 135 -90 3 -3 13 -8 23 -12 12 -4 17 -17 17 -42 0 -19 -3 -35 -7 -35 -6 0
-72 47 -83 60 -3 3 -23 18 -45 35 -22 16 -42 31 -45 35 -3 3 -41 32 -85 65
-91 67 -145 115 -145 128 0 12 1 11 120 -69z m1260 66 c-19 -13 -30 -13 -30 0
0 6 10 10 23 10 18 0 19 -2 7 -10z m-310 -10 c0 -5 -11 -10 -25 -10 -14 0 -25
-4 -25 -10 0 -5 -11 -10 -24 -10 -13 0 -26 -7 -30 -15 -3 -8 -15 -15 -26 -15
-11 0 -20 -4 -20 -10 0 -5 -11 -10 -24 -10 -13 0 -26 -7 -30 -15 -3 -8 -15
-15 -26 -15 -11 0 -20 -4 -20 -10 0 -5 -9 -10 -20 -10 -11 0 -23 -7 -26 -15
-4 -8 -12 -15 -20 -15 -20 0 -45 -28 -74 -83 -14 -26 -34 -50 -45 -54 -17 -5
-15 -8 13 -15 26 -7 40 -5 58 6 13 9 32 16 44 16 11 0 20 5 20 10 0 6 9 10 20
10 11 0 20 -4 20 -10 0 -5 -9 -10 -20 -10 -11 0 -20 -4 -20 -10 0 -5 -8 -10
-19 -10 -10 0 -32 -7 -47 -15 -16 -8 -38 -15 -50 -15 -23 0 -80 -26 -89 -41
-11 -16 -35 -9 -35 10 0 11 -4 23 -10 26 -5 3 -10 15 -10 26 0 11 -7 31 -16
44 l-16 24 109 52 c112 54 213 100 273 126 19 8 58 26 85 39 28 13 56 24 63
24 6 0 12 5 12 10 0 6 11 10 25 10 14 0 25 -4 25 -10z m555 -12 c32 -22 45
-38 28 -38 -10 0 -78 60 -69 60 3 0 22 -10 41 -22z m1538 1 c-3 -11 -12 -23
-19 -26 -10 -4 -14 -28 -15 -87 0 -65 -2 -76 -10 -56 -11 26 -7 108 6 148 5
16 3 22 -8 22 -9 0 -19 5 -22 10 -4 6 10 10 33 10 36 0 40 -2 35 -21z m-1823
1 c0 -5 -11 -10 -24 -10 -13 0 -26 -7 -30 -15 -6 -16 -36 -21 -36 -7 0 9 58
40 78 41 6 1 12 -3 12 -9z m1244 -9 c3 -4 40 -11 82 -14 42 -3 80 -9 83 -14 3
-4 26 -9 51 -11 69 -4 74 -22 7 -22 -31 0 -57 5 -57 10 0 6 -33 10 -80 10 -68
0 -82 -3 -87 -17 -6 -15 -8 -14 -14 7 -10 37 -10 60 0 60 6 0 12 -4 15 -9z
m-1057 -17 c-3 -3 -12 -4 -19 -1 -8 3 -5 6 6 6 11 1 17 -2 13 -5z m1846 -8 c7
-17 -1 -26 -23 -26 -9 0 -29 -11 -44 -25 -21 -19 -26 -33 -26 -70 0 -25 -4
-45 -10 -45 -14 0 -12 76 3 103 35 63 87 96 100 63z m-1758 -31 c22 -19 79
-55 128 -80 74 -38 100 -46 168 -51 53 -5 98 -3 134 6 30 7 61 9 72 5 29 -13
-67 -29 -168 -28 -63 0 -102 6 -145 23 -71 26 -194 91 -194 102 0 4 -7 8 -16
8 -11 0 -14 5 -10 16 5 12 2 15 -10 10 -22 -8 -40 4 -23 15 20 13 20 12 64
-26z m-375 18 c0 -8 -108 -63 -122 -63 -5 0 -8 5 -8 10 0 6 9 10 20 10 11 0
20 4 20 9 0 5 11 12 25 15 14 4 25 11 25 16 0 6 9 10 20 10 11 0 20 -3 20 -7z
m1235 -13 c4 -6 -22 -10 -72 -10 -54 0 -73 3 -63 10 20 13 127 13 135 0z m52
-62 c-1 -18 -6 -32 -10 -30 -4 1 -7 4 -7 7 0 80 1 89 10 73 6 -9 9 -31 7 -50z
m383 42 c0 -6 -6 -13 -13 -16 -15 -5 -11 -74 4 -74 5 0 9 -13 9 -30 0 -16 5
-30 10 -30 6 0 10 -7 10 -16 0 -20 -28 -11 -88 26 -31 19 -40 30 -32 35 8 5
18 1 25 -8 7 -10 19 -17 28 -17 8 0 18 -6 20 -12 3 -7 6 -3 6 10 1 32 0 37
-10 35 -5 -2 -9 22 -9 52 0 48 2 55 20 55 11 0 20 -5 20 -10z m-560 -10 c22
-7 20 -8 -15 -9 -22 0 -47 4 -55 9 -11 7 -8 9 15 9 17 -1 41 -5 55 -9z m67 -6
c-3 -3 -12 -4 -19 -1 -8 3 -5 6 6 6 11 1 17 -2 13 -5z m-132 -19 c27 -12 28
-13 5 -10 -14 2 -35 4 -48 4 -13 1 -20 5 -17 11 8 13 24 12 60 -5z m-1185 -5
c0 -5 -5 -10 -10 -10 -6 0 -28 -11 -50 -25 -22 -14 -45 -25 -52 -25 -6 0 -19
-7 -29 -16 -12 -11 -24 -14 -36 -8 -16 7 -16 8 4 11 12 2 27 11 33 19 7 8 21
14 31 14 11 0 19 5 19 10 0 6 11 10 25 10 16 0 25 6 25 15 0 8 9 15 20 15 11
0 20 -4 20 -10z m1508 -2 c-2 -9 20 -15 77 -18 94 -6 68 -22 -30 -18 -54 3
-60 5 -63 26 -2 12 1 22 7 22 6 0 10 -6 9 -12z m-368 -26 c-18 -6 -61 8 -55
17 3 5 19 4 35 -2 17 -7 26 -13 20 -15z m-72 -8 c35 -10 26 -20 -13 -16 -19 2
-32 8 -29 13 6 10 11 11 42 3z m632 -14 c0 -5 -7 -10 -15 -10 -8 0 -15 5 -15
10 0 6 7 10 15 10 8 0 15 -4 15 -10z m-1890 -50 c0 -5 -6 -10 -14 -10 -7 0
-26 -7 -42 -15 -15 -8 -30 -12 -32 -10 -7 7 9 25 24 25 8 0 14 5 14 10 0 6 11
10 25 10 14 0 25 -4 25 -10z m2250 -21 c0 -5 -7 -9 -15 -9 -9 0 -12 6 -9 15 6
15 24 11 24 -6z"/>
<path d="M4293 6123 c-7 -2 -13 -13 -13 -23 0 -14 14 -23 54 -34 58 -17 96
-20 96 -8 0 4 -9 22 -20 40 -17 28 -25 32 -62 31 -24 0 -49 -3 -55 -6z"/>
<path d="M2965 6082 c-33 -9 -61 -20 -63 -24 -2 -5 -15 -8 -28 -8 -13 0 -24
-4 -24 -10 0 -14 43 -13 57 1 7 7 49 12 105 12 88 0 97 -2 178 -40 84 -39 144
-75 208 -122 26 -20 32 -32 32 -61 0 -30 7 -42 36 -66 48 -38 62 -46 75 -42 6
2 -10 24 -36 49 -43 42 -46 48 -35 69 10 19 8 25 -12 47 -66 71 -212 153 -336
189 -46 13 -87 24 -91 23 -3 0 -33 -8 -66 -17z"/>
<path d="M4224 6045 c-9 -23 3 -45 25 -45 26 0 45 32 29 48 -17 17 -48 15 -54
-3z"/>
<path d="M4419 6023 c-14 -36 -4 -73 20 -73 22 0 31 19 31 66 0 27 -4 34 -20
34 -13 0 -24 -10 -31 -27z"/>
<path d="M3874 5996 c-4 -10 -2 -28 4 -42 10 -21 18 -24 62 -24 56 0 64 -12
21 -30 -46 -19 -66 -46 -62 -88 2 -35 2 -36 -15 -19 -14 12 -18 30 -16 66 3
73 -39 107 -72 59 -21 -30 -20 -63 2 -85 10 -10 24 -31 30 -47 11 -24 10 -31
-3 -47 -18 -19 -21 -9 39 -141 14 -31 26 -61 26 -66 0 -5 11 -19 24 -31 20
-19 23 -29 18 -69 -3 -26 -11 -53 -19 -60 -21 -21 -16 -54 19 -120 25 -49 40
-66 73 -82 23 -11 49 -20 59 -20 9 0 26 -4 36 -10 23 -13 50 -3 50 18 0 9 -15
32 -34 52 -32 33 -73 103 -95 163 -6 15 -17 27 -26 27 -18 0 -19 18 -4 91 11
54 10 56 -30 133 -23 43 -41 80 -41 82 0 2 8 4 19 4 14 0 25 -16 41 -60 35
-93 70 -107 70 -27 0 45 -24 100 -71 159 -31 40 -37 58 -16 58 6 -1 36 -39 65
-86 41 -67 52 -94 52 -127 0 -37 7 -51 60 -111 33 -38 60 -78 60 -88 0 -24 26
-34 45 -18 25 21 17 41 -46 111 -41 47 -62 80 -66 104 -6 36 8 48 24 21 19
-33 184 -196 193 -191 21 13 7 34 -77 124 -85 92 -86 94 -84 140 1 33 -3 52
-14 61 -8 7 -15 18 -15 25 0 8 -3 15 -7 17 -5 2 -19 25 -32 51 -22 46 -45 67
-58 53 -7 -6 7 -38 45 -100 23 -37 35 -105 25 -133 -5 -12 -18 7 -96 135 -15
25 -17 36 -8 45 15 15 13 58 -4 81 -19 25 -59 45 -106 52 -31 5 -40 3 -45 -10z"/>
<path d="M4283 5988 c-15 -17 -18 -29 -13 -43 14 -34 11 -36 -21 -13 -26 19
-31 20 -39 8 -13 -20 -12 -26 5 -40 8 -7 15 -22 15 -35 0 -13 16 -36 38 -56
22 -19 52 -54 67 -77 17 -26 35 -42 44 -40 19 4 27 46 12 61 -6 6 -11 20 -11
30 0 16 6 14 48 -15 96 -69 110 -57 56 49 -39 75 -96 143 -146 176 -34 21 -30
21 -55 -5z"/>
<path d="M3613 5942 c-29 -10 -60 -25 -70 -34 -15 -16 -15 -18 1 -24 10 -4 33
-2 50 4 47 17 62 16 45 -4 -10 -13 -10 -17 2 -25 22 -14 34 -4 31 25 -2 16 2
26 11 26 7 0 22 7 33 15 16 13 17 16 4 25 -21 13 -46 12 -107 -8z"/>
<path d="M3582 5848 c-6 -6 -12 -17 -12 -23 0 -31 132 -107 152 -87 20 20 3
45 -39 59 -30 10 -43 20 -45 36 -3 25 -37 34 -56 15z"/>
<path d="M4577 5813 c-24 -23 16 -72 49 -59 17 7 18 38 2 54 -13 13 -41 16
-51 5z"/>
<path d="M3314 5731 c-12 -12 0 -33 31 -53 19 -13 35 -26 35 -30 0 -9 -118
-92 -143 -101 -23 -8 -33 -35 -19 -49 8 -8 21 -6 46 7 48 26 56 12 16 -29 -40
-43 -35 -66 15 -66 29 0 35 -4 35 -21 0 -19 -5 -21 -57 -17 -39 2 -58 -1 -60
-9 -3 -9 8 -13 39 -13 24 0 52 -3 63 -5 31 -8 43 6 47 55 3 40 1 45 -19 48
-30 4 -29 10 9 56 27 33 30 41 19 58 -7 11 -11 21 -9 22 2 1 18 13 36 25 40
28 41 45 2 68 -16 9 -30 21 -30 25 0 4 14 8 30 8 53 0 32 18 -26 22 -31 1 -58
1 -60 -1z"/>
<path d="M4517 5559 c-23 -32 -21 -41 8 -69 21 -19 30 -22 43 -14 26 17 24 36
-7 73 l-28 34 -16 -24z"/>
<path d="M4800 5560 c-26 -26 -25 -42 3 -68 29 -28 33 -27 74 4 39 29 42 47
11 68 -31 22 -64 20 -88 -4z"/>
<path d="M3834 5485 c-8 -19 14 -65 34 -73 23 -8 34 13 25 49 -10 38 -48 53
-59 24z"/>
<path d="M4053 5431 c-11 -17 -9 -23 14 -40 14 -12 36 -21 49 -21 20 0 24 5
24 28 0 15 -5 33 -12 40 -19 19 -62 14 -75 -7z"/>
<path d="M4597 5373 c-4 -3 -7 -21 -7 -39 0 -19 -5 -65 -12 -103 -10 -59 -10
-75 3 -98 17 -35 34 -53 48 -53 15 0 14 11 -3 46 -11 23 -13 50 -7 129 5 55 6
106 4 113 -6 13 -16 16 -26 5z"/>
<path d="M4130 5311 c0 -44 13 -59 36 -40 24 19 14 73 -13 77 -21 3 -23 -1
-23 -37z"/>
<path d="M4183 5234 c-14 -38 21 -90 117 -172 52 -45 96 -79 98 -77 12 11 -18
51 -98 129 -50 49 -90 97 -90 107 0 25 -19 34 -27 13z"/>
<path d="M3792 5195 l-33 -24 30 -15 c35 -18 74 -20 102 -6 27 15 24 40 -5 40
-13 0 -29 7 -36 15 -16 19 -18 18 -58 -10z"/>
<path d="M3912 5201 c4 -13 18 -16 19 -4 0 4 -5 9 -11 12 -7 2 -11 -2 -8 -8z"/>
<path d="M2030 5801 c-33 -32 -60 -66 -60 -75 0 -17 31 -40 70 -51 14 -4 39
-13 55 -20 64 -29 142 -45 212 -45 86 0 103 7 132 54 23 36 20 61 -9 76 -9 5
-20 23 -23 40 -5 23 -12 30 -30 30 -13 0 -28 -5 -34 -11 -12 -12 -14 -11 -151
36 -40 14 -80 25 -88 25 -8 0 -42 -26 -74 -59z m310 -99 c0 -19 -33 -52 -52
-52 -6 0 -2 9 10 20 12 12 22 27 22 35 0 8 5 15 10 15 6 0 10 -8 10 -18z"/>
<path d="M2012 5615 c-76 -64 -174 -83 -304 -60 -65 11 -74 11 -85 -3 -12 -15
-19 -77 -14 -129 2 -24 -22 -32 -34 -13 -3 6 -19 17 -34 25 -25 12 -35 12 -82
-1 -30 -9 -72 -21 -94 -26 -132 -34 -188 -58 -193 -82 -5 -22 105 -156 127
-156 10 0 35 7 54 15 20 8 47 15 59 15 37 0 151 48 188 79 19 16 35 37 35 47
0 18 13 19 235 21 364 3 348 1 419 57 55 43 61 51 61 85 0 51 -21 67 -108 85
-39 9 -95 27 -123 41 -65 31 -70 31 -107 0z m158 -100 c0 -8 -4 -15 -10 -15
-5 0 -10 7 -10 15 0 8 5 15 10 15 6 0 10 -7 10 -15z m49 -44 c12 -8 8 -15 -18
-37 -30 -25 -39 -27 -127 -28 -52 -1 -94 2 -94 7 0 8 21 10 118 7 61 -1 76 1
87 17 9 12 10 22 3 30 -13 16 9 18 31 4z"/>
<path d="M2511 5434 c-14 -10 -21 -26 -21 -49 0 -43 26 -60 66 -44 16 5 45 7
65 4 32 -6 39 -3 50 16 10 20 9 25 -11 41 -12 10 -33 18 -47 18 -13 0 -37 7
-52 14 -25 13 -31 13 -50 0z"/>
<path d="M2773 5314 c-46 -27 -56 -56 -25 -73 14 -7 151 -16 200 -12 26 2 11
41 -25 64 -29 18 -97 48 -107 47 -1 0 -20 -12 -43 -26z"/>
<path d="M2298 5314 c-27 -8 -48 -18 -48 -23 0 -4 -27 -39 -60 -76 -33 -37
-60 -74 -60 -81 0 -29 38 -36 128 -25 48 6 101 12 117 14 25 2 34 10 53 50 16
31 30 47 42 47 10 0 26 7 34 16 22 22 6 47 -47 73 -50 24 -93 26 -159 5z m76
-80 c20 -8 21 -34 1 -34 -8 0 -15 4 -15 9 0 5 -23 2 -51 -6 -54 -16 -65 -13
-55 12 4 10 14 14 31 11 13 -3 27 0 30 5 7 10 36 12 59 3z"/>
<path d="M1735 5227 c-82 -27 -159 -53 -170 -57 -11 -4 -47 -15 -80 -25 -33
-10 -77 -24 -98 -31 -20 -8 -51 -14 -67 -14 -23 0 -30 -5 -30 -20 0 -17 8 -19
68 -22 64 -3 67 -4 70 -29 2 -14 -4 -31 -12 -39 -9 -7 -16 -19 -16 -27 0 -22
117 -8 285 34 160 40 420 154 448 197 15 22 15 25 -1 39 -13 11 -221 51 -242
46 -3 -1 -72 -24 -155 -52z m208 -53 c-27 -12 -36 -11 -60 1 -27 15 -27 15 32
14 l60 -1 -32 -14z m-135 -11 c-10 -2 -26 -2 -35 0 -10 3 -2 5 17 5 19 0 27
-2 18 -5z m82 -13 c0 -5 -7 -10 -15 -10 -8 0 -15 5 -15 10 0 6 7 10 15 10 8 0
15 -4 15 -10z m-180 -10 c0 -5 -8 -10 -17 -10 -15 0 -16 2 -3 10 19 12 20 12
20 0z m140 -14 c0 -9 -40 -13 -46 -5 -3 5 6 9 20 9 14 0 26 -2 26 -4z m-65
-26 c-3 -5 -17 -10 -31 -10 -14 0 -22 4 -19 10 3 6 17 10 31 10 14 0 22 -4 19
-10z m-81 -29 c-17 -4 -36 -11 -42 -15 -8 -5 -10 -2 -6 8 4 11 18 16 43 15
l36 -1 -31 -7z"/>
<path d="M1033 5223 c-34 -26 -76 -60 -95 -74 -18 -14 -39 -43 -47 -65 -8 -21
-20 -45 -28 -52 -8 -8 -12 -19 -10 -25 5 -16 75 -29 123 -23 23 3 44 3 47 -1
6 -5 -35 -89 -85 -172 -18 -32 -19 -36 -3 -47 17 -12 26 -11 110 18 180 62
216 132 98 192 -18 9 -41 16 -53 16 -26 0 -25 11 4 54 32 48 51 157 34 193 -7
15 -18 28 -24 30 -6 2 -38 -18 -71 -44z m7 -81 c0 -13 -12 -22 -22 -16 -10 6
-1 24 13 24 5 0 9 -4 9 -8z m-50 -26 c0 -2 -7 -6 -15 -10 -8 -3 -15 -1 -15 4
0 6 7 10 15 10 8 0 15 -2 15 -4z m-40 -26 c0 -5 -4 -10 -10 -10 -5 0 -10 5
-10 10 0 6 5 10 10 10 6 0 10 -4 10 -10z m60 -10 c0 -5 -5 -10 -11 -10 -5 0
-7 5 -4 10 3 6 8 10 11 10 2 0 4 -4 4 -10z m-90 -30 c0 -5 -4 -10 -10 -10 -5
0 -10 5 -10 10 0 6 5 10 10 10 6 0 10 -4 10 -10z"/>
<path d="M2643 5133 c-23 -4 -39 -35 -28 -53 16 -25 85 -2 85 29 0 15 -25 37
-33 30 -1 -1 -12 -4 -24 -6z"/>
<path d="M2886 5117 c-10 -7 -16 -22 -14 -33 2 -14 12 -19 38 -19 29 0 36 4
38 24 6 37 -29 52 -62 28z"/>
<path d="M2045 4991 c-49 -12 -113 -58 -140 -101 -14 -22 -25 -43 -25 -48 0
-7 43 -53 96 -102 12 -11 26 -20 33 -20 23 0 10 -20 -16 -25 -108 -22 -109
-42 -3 -95 45 -22 103 -45 129 -51 44 -10 47 -9 67 17 17 21 28 26 49 22 31
-6 42 11 26 39 -10 17 -10 16 -11 -3 0 -18 -6 -22 -39 -22 -23 0 -45 5 -52 14
-6 8 -24 14 -40 14 -31 0 -63 26 -53 42 5 7 11 5 19 -5 14 -19 66 -22 96 -7
23 13 25 30 4 30 -8 0 -15 7 -15 15 0 8 -4 15 -10 15 -5 0 -10 5 -10 10 0 16
15 12 42 -12 81 -74 90 -80 101 -69 8 8 8 14 2 19 -6 4 -29 28 -52 54 -40 45
-42 48 -37 100 7 73 -6 127 -36 149 -30 21 -84 29 -125 20z m91 -156 l0 -90
-3 83 -4 82 -55 0 c-36 0 -53 4 -49 10 4 6 30 10 58 8 l52 -3 1 -90z m-128 57
c-10 -2 -18 -10 -18 -18 0 -8 -4 -14 -10 -14 -14 0 -12 11 6 31 9 10 22 15 28
11 7 -4 5 -8 -6 -10z m-48 -69 c0 -22 -2 -25 -10 -13 -13 20 -13 40 0 40 6 0
10 -12 10 -27z"/>
<path d="M1565 4898 c-16 -5 -54 -21 -83 -34 -29 -13 -55 -24 -57 -24 -3 0
-22 -10 -43 -23 -37 -23 -63 -30 -214 -62 -78 -17 -105 -33 -95 -59 6 -15 164
-146 175 -146 4 0 32 9 62 19 63 21 70 19 70 -15 0 -27 27 -42 113 -66 26 -7
47 -15 47 -19 0 -4 -15 -18 -34 -32 -44 -34 -106 -119 -106 -146 0 -13 11 -26
29 -35 25 -13 38 -14 97 -2 67 13 227 63 289 90 17 7 46 19 65 26 56 22 130
70 130 85 0 17 -47 53 -125 95 -173 93 -227 120 -240 120 -19 0 -29 19 -13 24
7 3 34 7 60 11 66 9 78 23 75 92 l-2 56 -55 29 c-57 29 -94 33 -145 16z m111
-103 c9 -14 13 -32 10 -41 -8 -22 -28 -6 -21 17 4 13 2 19 -9 19 -9 0 -16 7
-16 15 0 23 18 18 36 -10z m-78 1 c3 -3 -16 -6 -42 -6 -29 0 -45 4 -41 10 6
10 72 6 83 -4z m-91 -22 c-3 -3 -12 -4 -19 -1 -8 3 -5 6 6 6 11 1 17 -2 13 -5z
m101 -41 c-10 -2 -28 -2 -40 0 -13 2 -5 4 17 4 22 1 32 -1 23 -4z m-28 -83 c0
-13 -11 -13 -30 0 -12 8 -11 10 8 10 12 0 22 -4 22 -10z m35 -20 c3 -5 -1 -10
-9 -10 -9 0 -16 5 -16 10 0 6 4 10 9 10 6 0 13 -4 16 -10z m40 -30 c-3 -5 -13
-6 -21 -3 -12 4 -13 8 -3 14 15 9 32 2 24 -11z m-195 -31 c0 -5 -7 -9 -15 -9
-9 0 -12 6 -9 15 6 15 24 11 24 -6z m264 -4 c18 -14 38 -25 44 -25 7 0 12 -4
12 -10 0 -15 -16 -12 -34 5 -8 8 -19 15 -25 15 -6 0 -11 5 -11 10 0 6 -9 10
-20 10 -11 0 -20 5 -20 10 0 17 20 11 54 -15z m-209 -25 c-3 -5 -12 -10 -20
-10 -8 0 -17 5 -20 10 -4 6 5 10 20 10 15 0 24 -4 20 -10z m310 -30 c3 -5 -3
-10 -15 -10 -12 0 -18 5 -15 10 3 6 10 10 15 10 5 0 12 -4 15 -10z m-258 -16
c-3 -3 -12 -4 -19 -1 -8 3 -5 6 6 6 11 1 17 -2 13 -5z m312 -34 c-13 -9 -51
19 -43 32 3 4 16 0 30 -9 17 -11 21 -18 13 -23z m-279 0 c0 -5 -2 -10 -4 -10
-3 0 -8 5 -11 10 -3 6 -1 10 4 10 6 0 11 -4 11 -10z m225 -17 c-11 -3 -29 -12
-40 -19 -22 -16 -59 -19 -50 -4 3 6 17 10 31 10 13 0 24 5 24 10 0 6 12 9 28
9 21 -1 22 -2 7 -6z m-245 -13 c0 -5 -4 -10 -10 -10 -5 0 -10 5 -10 10 0 6 5
10 10 10 6 0 10 -4 10 -10z m-43 -35 c-23 -22 -33 -18 -12 5 10 11 20 18 23
16 2 -3 -3 -12 -11 -21z m173 5 c0 -6 -11 -10 -25 -10 -14 0 -25 4 -25 8 0 4
11 9 25 10 14 1 25 -3 25 -8z m-75 -30 c-28 -12 -45 -12 -45 0 0 6 15 10 33 9
27 0 29 -2 12 -9z m-81 -11 c31 0 4 -16 -36 -22 -41 -6 -41 -6 -32 18 5 12 13
15 28 10 11 -4 30 -7 40 -6z"/>
<path d="M2830 4623 c-12 -16 -44 -51 -71 -80 -27 -28 -49 -57 -49 -64 0 -6
-8 -17 -17 -24 -16 -12 -16 -22 -5 -122 7 -60 12 -130 12 -157 0 -80 33 -112
65 -63 8 13 28 62 44 110 33 100 72 171 106 193 35 23 37 41 14 108 -47 134
-61 148 -99 99z m14 -95 c10 -40 7 -58 -17 -81 -13 -12 -27 -31 -32 -42 -7
-18 -9 -18 -12 -3 -2 10 7 30 21 45 23 25 36 73 20 73 -4 0 -23 -16 -42 -36
-19 -19 -37 -33 -40 -29 -6 6 77 95 89 95 4 0 9 -10 13 -22z m-104 -92 c0 -3
-4 -8 -10 -11 -5 -3 -10 -1 -10 4 0 6 5 11 10 11 6 0 10 -2 10 -4z m20 -98
c-14 -41 -14 -42 -18 -14 -5 42 6 82 20 68 8 -8 8 -23 -2 -54z"/>
<path d="M874 4601 c-57 -10 -86 -31 -136 -99 -23 -31 -47 -63 -54 -69 -27
-28 -55 -84 -52 -105 3 -21 9 -23 78 -26 l75 -3 68 61 c37 33 82 67 100 76 57
29 67 43 67 94 0 30 -6 52 -15 60 -18 15 -78 20 -131 11z"/>
<path d="M1005 4408 c-88 -76 -105 -96 -105 -122 0 -41 39 -114 79 -146 29
-25 45 -30 88 -30 50 0 53 2 81 43 17 23 53 66 81 95 55 57 63 84 31 104 -24
15 -26 34 -5 42 8 3 15 12 15 19 0 10 -17 16 -57 20 -32 4 -80 9 -108 12 -48
6 -52 5 -100 -37z"/>
<path d="M480 4168 c-54 -37 -72 -70 -71 -124 2 -84 6 -123 13 -130 4 -3 45
-16 92 -28 46 -12 92 -28 100 -36 25 -20 169 -8 228 19 73 35 82 50 79 134 -1
29 -9 45 -42 78 l-42 42 -69 -5 c-57 -5 -73 -2 -93 13 -35 28 -106 59 -136 59
-14 0 -41 -10 -59 -22z"/>
<path d="M1397 4047 c-15 -13 -54 -29 -87 -36 -34 -8 -77 -26 -98 -41 -20 -16
-70 -53 -110 -84 -40 -31 -75 -56 -77 -56 -5 0 -147 -66 -219 -101 -32 -16
-64 -29 -72 -29 -8 0 -28 -13 -46 -30 -33 -32 -48 -36 -65 -19 -8 8 -34 6 -94
-5 -91 -17 -114 -33 -99 -69 5 -12 21 -56 35 -97 56 -159 69 -183 112 -207 21
-12 99 -83 173 -157 74 -75 142 -136 152 -136 17 0 21 10 74 163 15 43 32 77
40 77 13 0 137 -85 212 -147 23 -19 50 -33 60 -31 20 4 40 76 41 154 1 56 -9
70 -86 118 l-43 26 0 68 c0 93 -7 110 -51 132 -94 48 -170 15 -257 -111 -31
-47 -62 -69 -62 -46 0 7 -16 32 -35 56 -19 24 -35 49 -35 56 0 8 20 14 54 17
75 6 168 54 246 127 66 62 78 68 108 52 9 -5 36 -12 60 -16 l43 -7 94 92 c99
98 101 101 110 214 8 97 -18 121 -78 73z"/>
<path d="M2656 4017 c-16 -12 -18 -23 -13 -68 17 -145 20 -158 43 -180 l24
-23 53 28 c65 35 87 54 87 76 0 14 -159 180 -172 180 -2 0 -12 -6 -22 -13z"/>
<path d="M2105 3853 c-24 -51 -28 -70 -28 -153 -1 -86 2 -101 28 -155 38 -76
99 -137 133 -133 30 4 48 33 82 136 22 64 23 75 10 95 -8 12 -47 77 -88 145
-50 83 -79 122 -91 122 -12 0 -27 -19 -46 -57z"/>
<path d="M1730 3833 c-58 -29 -97 -60 -176 -138 -120 -120 -157 -166 -148
-189 6 -16 17 -22 132 -70 101 -42 101 -42 164 82 30 59 81 158 112 219 32 62
54 117 51 123 -12 19 -61 9 -135 -27z"/>
<path d="M1977 3772 c-10 -10 -17 -28 -17 -39 0 -15 -8 -22 -29 -26 -25 -5
-36 -20 -74 -94 -24 -48 -50 -114 -57 -145 -12 -52 -11 -61 8 -105 20 -48 72
-196 72 -207 0 -3 -36 -6 -80 -6 -74 0 -81 -2 -90 -22 -13 -29 -30 -207 -22
-227 8 -20 98 -166 127 -206 12 -16 25 -38 28 -47 3 -9 15 -21 25 -27 16 -9
32 -2 92 40 39 28 93 57 120 65 61 18 105 62 141 141 30 65 36 102 19 131 -5
9 -37 89 -72 177 -61 156 -109 235 -144 235 -7 0 -24 15 -38 33 -22 28 -26 44
-26 98 1 60 28 190 43 205 10 10 9 44 -1 44 -5 0 -16 -8 -25 -18z"/>
<path d="M3274 3156 c-9 -22 4 -36 32 -36 21 0 25 4 22 23 -4 26 -45 37 -54
13z"/>
<path d="M2942 3144 c-16 -11 -22 -26 -22 -54 0 -35 19 -70 38 -70 9 0 30 48
38 87 8 41 -21 60 -54 37z"/>
<path d="M3094 3135 c-4 -9 0 -23 8 -31 13 -14 17 -14 32 1 9 10 15 22 13 29
-6 18 -46 19 -53 1z"/>
<path d="M3027 3063 c-13 -12 -7 -81 8 -93 22 -18 45 4 45 44 0 43 -31 72 -53
49z"/>
<path d="M2797 3002 c-24 -28 -63 -123 -77 -187 -39 -192 -45 -258 -25 -275
17 -14 20 -46 5 -55 -17 -10 -11 -25 9 -25 20 0 37 32 32 62 -1 10 18 36 43
60 37 36 42 46 32 59 -6 9 -20 18 -31 21 -13 2 -19 11 -17 23 1 11 5 45 8 75
4 31 21 87 40 127 39 81 42 108 15 122 -14 8 -22 6 -34 -7z"/>
<path d="M2887 3003 c-19 -18 10 -96 41 -108 25 -9 54 14 46 38 -17 56 -64 94
-87 70z"/>
<path d="M3125 2921 c-9 -19 -12 -41 -9 -61 6 -26 11 -31 33 -28 21 2 29 11
40 46 16 52 10 72 -23 72 -18 0 -30 -9 -41 -29z"/>
<path d="M3237 2889 c-13 -8 -17 -24 -17 -75 0 -74 12 -104 40 -104 29 0 39
29 33 98 -6 68 -26 97 -56 81z"/>
<path d="M4065 2856 c-11 -7 -48 -28 -83 -47 -64 -34 -102 -63 -102 -78 0 -23
30 -32 77 -23 90 18 378 104 385 116 18 29 -9 27 -180 -10 -81 -18 -106 -10
-72 21 36 32 16 50 -25 21z"/>
<path d="M3780 2823 c-61 -35 -80 -53 -74 -68 10 -26 36 -25 86 2 60 33 74 54
50 76 -16 15 -21 14 -62 -10z"/>
<path d="M2968 2783 c-9 -10 -18 -29 -21 -43 -3 -14 -24 -77 -47 -140 -23 -63
-50 -140 -60 -170 -35 -107 -86 -245 -92 -256 -4 -6 -29 -19 -55 -29 -82 -30
-147 -86 -182 -156 -54 -109 -37 -132 31 -42 43 57 93 89 229 147 33 14 38 22
62 98 45 145 134 474 144 531 3 15 9 30 14 33 11 7 12 44 1 44 -5 0 -16 -8
-24 -17z"/>
<path d="M3384 2715 c-8 -21 2 -45 19 -45 8 0 20 7 27 15 10 12 10 18 0 30 -7
8 -19 15 -27 15 -7 0 -16 -7 -19 -15z"/>
<path d="M2999 2689 c-16 -23 -20 -36 -12 -47 15 -24 27 -24 56 -2 41 32 33
80 -13 80 -5 0 -19 -14 -31 -31z"/>
<path d="M3176 2675 c-9 -9 -16 -20 -16 -24 0 -21 40 -40 90 -43 50 -3 55 -1
58 18 6 43 -99 82 -132 49z"/>
<path d="M3592 2678 c-7 -7 -12 -18 -12 -25 0 -16 -5 -16 -31 0 -17 10 -22 9
-35 -7 -20 -28 -17 -50 12 -85 42 -50 75 -37 108 42 23 57 -6 111 -42 75z"/>
<path d="M3082 2628 c-18 -18 -15 -36 9 -48 29 -16 63 13 48 41 -11 22 -39 25
-57 7z"/>
<path d="M4005 2560 c-212 -56 -229 -65 -209 -98 16 -24 67 -25 224 -4 111 14
135 21 138 35 3 15 -5 17 -62 17 -52 0 -66 3 -66 15 0 8 7 15 15 15 8 0 15 7
15 15 0 16 -9 17 -55 5z"/>
<path d="M3673 2529 c-56 -21 -72 -44 -49 -67 13 -14 22 -13 72 9 64 27 88 54
64 69 -20 13 -27 12 -87 -11z"/>
<path d="M3036 2511 c-38 -42 3 -93 45 -55 24 22 24 50 0 64 -25 13 -25 13
-45 -9z"/>
<path d="M2656 2405 c-21 -22 -39 -91 -31 -125 15 -68 69 -63 71 6 1 22 5 53
9 69 5 23 2 35 -13 48 -18 16 -21 17 -36 2z"/>
<path d="M3520 2357 c-80 -40 -60 -74 35 -59 52 8 95 3 205 -22 159 -38 171
-39 183 -27 29 29 -33 59 -191 92 -24 5 -53 15 -65 24 -32 23 -114 19 -167 -8z"/>
<path d="M2914 2335 c-9 -24 5 -103 22 -119 32 -33 60 12 48 76 -4 18 -11 39
-17 46 -13 17 -46 15 -53 -3z"/>
<path d="M4148 2016 c-30 -7 -38 -15 -38 -32 0 -12 7 -25 16 -28 25 -10 114
-7 135 4 21 12 26 49 7 54 -33 11 -87 11 -120 2z"/>
<path d="M3651 1998 c-39 -41 -71 -182 -52 -230 6 -17 18 -28 29 -28 19 0 62
41 81 77 15 29 14 176 -1 191 -18 18 -35 15 -57 -10z"/>
<path d="M2915 1931 c-13 -15 -16 -31 -12 -63 2 -24 10 -97 17 -163 12 -119
24 -165 46 -172 18 -6 44 26 44 53 0 14 6 35 14 47 14 22 11 60 -20 229 -6 36
-43 88 -62 88 -5 0 -17 -9 -27 -19z"/>
<path d="M4176 1892 c-15 -18 -15 -20 1 -34 10 -9 27 -18 38 -20 15 -3 19 -10
17 -31 -3 -22 1 -30 17 -34 21 -5 30 -33 11 -33 -5 0 -10 -20 -10 -43 0 -52
22 -77 68 -77 26 0 37 7 58 39 35 53 29 80 -23 109 -34 19 -43 29 -43 50 0 15
5 34 10 42 28 44 -106 74 -144 32z"/>
<path d="M4388 1846 c-12 -28 -5 -54 17 -62 35 -14 61 46 33 74 -19 19 -37 14
-50 -12z"/>
<path d="M3837 1797 c-21 -16 -26 -99 -7 -122 26 -31 50 -38 71 -19 49 45 -12
181 -64 141z"/>
<path d="M3480 1725 c-11 -29 -13 -126 -4 -173 12 -57 89 -69 112 -17 19 42
15 86 -12 114 -14 15 -28 42 -33 61 -12 46 -48 54 -63 15z"/>
<path d="M3657 1714 c-14 -14 -7 -44 14 -55 29 -15 59 12 43 39 -12 18 -45 28
-57 16z"/>
<path d="M4006 1644 c-25 -31 -43 -60 -40 -66 3 -5 17 -14 31 -19 20 -7 24
-14 19 -31 -12 -46 48 -75 90 -43 10 8 29 15 40 15 12 0 36 14 54 30 31 29 32
31 15 50 -9 10 -29 18 -44 18 -14 -1 -34 2 -43 6 -11 5 -23 1 -37 -13 -29 -29
-34 -10 -9 37 19 34 20 42 9 56 -22 26 -36 19 -85 -40z"/>
<path d="M3787 1585 c-35 -34 -32 -118 4 -151 18 -16 21 -16 36 -2 24 24 29
112 9 143 -19 29 -29 31 -49 10z"/>
<path d="M1515 5750 c-3 -5 1 -10 9 -10 9 0 16 5 16 10 0 6 -4 10 -9 10 -6 0
-13 -4 -16 -10z"/>
<path d="M1475 5720 c27 -12 35 -12 35 0 0 6 -12 10 -27 9 -25 0 -26 -1 -8 -9z"/>
<path d="M1440 5700 c0 -5 7 -10 16 -10 8 0 12 5 9 10 -3 6 -10 10 -16 10 -5
0 -9 -4 -9 -10z"/>
<path d="M1385 5650 c3 -5 13 -10 21 -10 8 0 12 5 9 10 -3 6 -13 10 -21 10 -8
0 -12 -4 -9 -10z"/>
<path d="M1360 5630 c0 -5 5 -10 11 -10 5 0 7 5 4 10 -3 6 -8 10 -11 10 -2 0
-4 -4 -4 -10z"/>
<path d="M4822 5010 c0 -14 2 -19 5 -12 2 6 2 18 0 25 -3 6 -5 1 -5 -13z"/>
<path d="M4805 4964 c9 -9 18 -14 21 -11 9 9 -6 27 -22 27 -13 0 -13 -2 1 -16z"/>
<path d="M4826 4923 c6 -4 14 -15 17 -23 5 -11 6 -9 4 4 -1 11 -9 21 -17 23
-10 3 -11 2 -4 -4z"/>
<path d="M4925 4790 c-3 -5 1 -10 10 -10 9 0 13 5 10 10 -3 6 -8 10 -10 10 -2
0 -7 -4 -10 -10z"/>
<path d="M4215 4870 c-3 -5 -1 -10 4 -10 6 0 11 5 11 10 0 6 -2 10 -4 10 -3 0
-8 -4 -11 -10z"/>
<path d="M4190 4834 c0 -8 5 -12 10 -9 6 4 8 11 5 16 -9 14 -15 11 -15 -7z"/>
<path d="M4250 4841 c0 -10 19 -25 25 -20 1 2 -3 10 -11 17 -8 7 -14 8 -14 3z"/>
<path d="M4300 4803 c0 -5 5 -15 10 -23 8 -12 10 -11 10 8 0 12 -4 22 -10 22
-5 0 -10 -3 -10 -7z"/>
<path d="M4323 4734 c-15 -16 -16 -24 -4 -24 8 0 24 30 19 35 -2 2 -9 -3 -15
-11z"/>
<path d="M4378 4513 c7 -3 16 -2 19 1 4 3 -2 6 -13 5 -11 0 -14 -3 -6 -6z"/>
<path d="M4126 4421 c-8 -12 23 -37 67 -56 61 -25 196 -16 232 17 18 16 -14
25 -63 17 -81 -13 -136 -10 -177 11 -44 22 -51 24 -59 11z"/>
<path d="M4375 4304 c-33 -7 -79 -13 -102 -14 -31 0 -43 -4 -43 -15 0 -12 15
-15 71 -15 80 0 149 17 149 36 0 20 -11 22 -75 8z"/>
<path d="M4688 4453 c-29 -7 -20 -22 12 -21 17 1 29 6 27 11 -4 13 -16 16 -39
10z"/>
<path d="M5980 4415 c-7 -8 -10 -22 -6 -30 9 -25 36 -29 51 -9 12 16 11 21 -2
37 -20 21 -27 21 -43 2z"/>
<path d="M5831 4365 c-17 -20 -31 -38 -31 -41 0 -4 11 -15 25 -26 23 -18 24
-21 10 -42 -12 -18 -13 -30 -6 -50 6 -14 8 -39 5 -55 -5 -23 -2 -30 14 -36 27
-8 72 21 72 46 0 11 -5 28 -12 39 -10 16 -9 23 9 42 29 32 42 61 38 84 -2 10
-4 22 -4 26 -2 16 -46 48 -67 48 -13 0 -35 -15 -53 -35z"/>
<path d="M6101 4341 c-26 -26 -26 -43 -3 -64 23 -21 46 -22 62 -2 14 17 6 46
-19 69 -18 17 -20 17 -40 -3z"/>
<path d="M6237 4343 c-13 -12 -7 -41 10 -47 21 -8 48 17 40 38 -6 16 -38 22
-50 9z"/>
<path d="M6406 4298 c-24 -13 -19 -33 15 -73 40 -45 69 -44 83 3 7 25 5 36 -8
51 -20 22 -68 32 -90 19z"/>
<path d="M5956 4241 c-36 -40 28 -81 67 -42 20 20 20 21 2 41 -23 25 -47 26
-69 1z"/>
<path d="M6176 4224 c-9 -8 -16 -32 -17 -52 0 -20 -1 -54 -3 -74 -3 -45 16
-66 65 -74 26 -5 39 -1 53 15 22 24 15 51 -13 51 -29 0 -32 12 -11 40 l19 25
28 -28 c33 -31 49 -33 81 -11 28 19 30 69 4 76 -10 3 -43 4 -74 3 -50 -3 -57
-1 -67 21 -12 28 -42 31 -65 8z"/>
<path d="M6531 4156 c-22 -26 9 -151 40 -161 10 -4 19 -11 19 -16 0 -16 39 -9
49 9 7 14 4 25 -14 48 -13 16 -24 41 -25 56 -1 65 -39 101 -69 64z"/>
<path d="M6054 4106 c-14 -36 13 -57 46 -36 12 7 12 13 4 27 -15 24 -43 28
-50 9z"/>
<path d="M6420 4096 c-27 -33 18 -72 48 -42 13 13 14 20 6 34 -15 23 -38 26
-54 8z"/>
<path d="M6758 4059 c-24 -14 -24 -65 1 -78 28 -16 58 21 45 56 -11 31 -22 36
-46 22z"/>
<path d="M6610 3615 c45 -30 84 -55 86 -55 2 0 25 -13 51 -29 26 -16 51 -27
55 -25 4 3 8 18 8 34 0 26 -7 33 -74 65 -41 19 -79 42 -86 50 -8 10 -31 15
-68 15 l-55 0 83 -55z m27 29 c-3 -3 -12 -4 -19 -1 -8 3 -5 6 6 6 11 1 17 -2
13 -5z"/>
<path d="M5544 2816 c-25 -20 -8 -50 32 -54 39 -5 61 24 37 50 -19 22 -42 23
-69 4z"/>
<path d="M5270 2745 c-6 -8 -9 -23 -5 -33 8 -27 39 -33 53 -11 15 24 15 24 -4
43 -19 20 -28 20 -44 1z"/>
<path d="M5425 2748 c-61 -33 -105 -104 -76 -122 4 -3 11 -20 15 -38 3 -18 22
-49 42 -69 l36 -37 -29 -42 c-42 -64 -41 -63 -47 -91 -4 -16 -17 -30 -38 -40
-18 -8 -34 -21 -36 -30 -5 -25 26 -49 62 -49 27 0 36 6 54 38 22 39 87 112
101 112 16 0 51 42 51 61 0 20 -21 33 -73 44 -26 5 -28 9 -22 36 5 22 2 36
-10 49 -20 23 -12 40 19 40 23 0 55 28 74 66 14 27 -7 59 -45 68 -16 4 -35 9
-43 11 -8 2 -24 -1 -35 -7z"/>
<path d="M5987 2672 c-16 -17 -16 -20 6 -40 27 -26 59 -28 77 -6 11 12 10 18
-6 34 -30 28 -58 33 -77 12z"/>
<path d="M4882 2658 c-7 -7 -12 -29 -12 -50 0 -29 5 -40 23 -49 33 -18 35 -25
24 -85 -8 -47 -7 -58 8 -75 25 -26 30 -25 82 21 25 22 49 40 53 40 17 0 19 34
5 64 -17 36 -44 54 -96 65 -26 5 -35 12 -37 31 -4 26 -19 50 -31 50 -4 0 -12
-5 -19 -12z"/>
<path d="M6080 2576 c-27 -33 18 -72 48 -42 13 13 14 20 6 34 -15 23 -38 26
-54 8z"/>
<path d="M5893 2562 c-14 -9 -43 -74 -43 -95 0 -8 14 -29 32 -46 27 -26 32
-38 29 -70 -3 -51 24 -81 74 -81 29 0 39 6 55 33 25 41 25 78 0 110 -11 14
-20 37 -20 52 0 25 -31 81 -55 97 -13 10 -57 10 -72 0z"/>
<path d="M6625 2563 c-11 -3 -24 -9 -29 -14 -6 -5 -24 -9 -41 -9 -39 0 -70
-30 -62 -61 3 -12 2 -29 -2 -38 -5 -9 -12 -48 -16 -87 -6 -66 -5 -73 18 -100
39 -44 56 -22 59 78 3 80 3 81 37 99 18 10 47 32 64 48 16 17 33 31 38 31 17
0 9 39 -10 50 -21 10 -24 11 -56 3z"/>
<path d="M6154 2448 c-24 -11 -44 -48 -44 -80 0 -24 63 -113 87 -122 29 -11
132 6 158 26 31 24 33 63 4 78 -11 7 -43 18 -70 26 -36 11 -53 22 -64 43 -11
23 -38 45 -48 40 -1 0 -12 -5 -23 -11z"/>
<path d="M6800 2425 c-10 -13 -9 -19 5 -36 18 -19 19 -19 37 -1 22 21 15 52
-12 52 -10 0 -23 -7 -30 -15z"/>
<path d="M6594 2396 c-10 -26 4 -48 28 -44 17 2 23 10 23 28 0 18 -6 26 -23
28 -13 2 -25 -3 -28 -12z"/>
<path d="M5720 1680 c0 -5 9 -10 21 -10 11 0 17 5 14 10 -3 6 -13 10 -21 10
-8 0 -14 -4 -14 -10z"/>
<path d="M7155 1000 c3 -5 15 -10 25 -10 10 0 22 -4 25 -10 3 -5 15 -10 26
-10 10 0 19 5 19 10 0 6 -11 10 -25 10 -14 0 -25 5 -25 10 0 6 -12 10 -26 10
-14 0 -23 -4 -19 -10z"/>
<path d="M4355 590 c-3 -5 -1 -10 4 -10 6 0 11 5 11 10 0 6 -2 10 -4 10 -3 0
-8 -4 -11 -10z"/>
</g>
</svg>
