<?xml version="1.0" standalone="no"?>
<!DOCTYPE svg PUBLIC "-//W3C//DTD SVG 20010904//EN"
 "http://www.w3.org/TR/2001/REC-SVG-20010904/DTD/svg10.dtd">
<svg version="1.0" xmlns="http://www.w3.org/2000/svg"
 width="1024.000000pt" height="1024.000000pt" viewBox="0 0 1024.000000 1024.000000"
 preserveAspectRatio="xMidYMid meet">
<metadata>
Created by potrace 1.11, written by Peter Selinger 2001-2013
</metadata>
<g transform="translate(0.000000,1024.000000) scale(0.100000,-0.100000)"
fill="#000000" stroke="none">
<path d="M7040 9997 c-91 -26 -173 -97 -214 -186 -33 -72 -30 -198 7 -272 36
-75 107 -140 183 -169 74 -28 184 -25 256 8 59 26 127 93 159 157 20 42 24 64
24 145 0 83 -3 101 -27 145 -32 62 -104 130 -166 157 -57 26 -161 32 -222 15z"/>
<path d="M8750 9284 c-282 -48 -467 -145 -655 -345 -83 -88 -132 -159 -185
-271 -36 -76 -85 -228 -74 -228 3 0 23 9 44 20 l40 20 0 -387 c1 -303 4 -393
14 -412 l13 -24 7 29 c13 52 87 216 134 297 58 102 143 216 224 303 36 39 72
89 82 114 63 161 228 297 404 331 271 52 545 -119 626 -390 21 -71 21 -220 0
-292 -52 -177 -196 -321 -373 -373 -70 -20 -218 -21 -296 -1 -32 9 -81 28
-109 43 -72 37 -195 164 -229 235 -15 31 -30 57 -34 57 -11 0 6 -270 22 -363
9 -48 27 -127 41 -175 32 -109 109 -295 132 -315 51 -46 389 -63 557 -28 213
45 367 126 525 277 144 139 229 270 283 439 44 136 52 191 51 365 -1 183 -20
279 -83 432 -91 218 -299 433 -525 543 -146 71 -260 97 -451 100 -88 2 -171 2
-185 -1z"/>
<path d="M6861 8956 l-2 -255 36 6 35 6 0 -250 c0 -185 -3 -252 -12 -263 -7
-7 22 17 65 54 124 107 310 219 401 242 l26 6 0 354 0 354 -274 0 -274 0 -1
-254z"/>
<path d="M6110 8531 c-176 -54 -366 -291 -519 -646 -12 -27 -25 -57 -30 -65
-6 -12 -42 -16 -174 -22 -92 -4 -175 -12 -186 -17 -11 -6 -30 -11 -42 -11 -39
0 -269 -76 -392 -129 -53 -23 -88 -26 -115 -11 -27 14 -158 55 -252 78 -129
31 -236 43 -445 48 -132 3 -217 11 -280 24 -147 31 -212 39 -360 45 -444 20
-817 -83 -1175 -325 -63 -42 -167 -111 -230 -153 -612 -404 -1173 -1156 -1551
-2077 -59 -145 -61 -152 -60 -250 5 -378 123 -770 322 -1070 68 -102 241 -283
325 -340 27 -19 69 -50 94 -71 175 -144 496 -309 800 -412 41 -14 90 -28 107
-32 42 -8 41 -23 -1 -85 -62 -89 -78 -149 -86 -310 -10 -179 -23 -239 -64
-293 -34 -45 -116 -99 -205 -135 -71 -29 -490 -112 -996 -197 -110 -18 -243
-41 -295 -50 -269 -48 -250 -36 -250 -155 0 -148 42 -304 127 -476 25 -51 64
-113 86 -139 45 -52 52 -53 142 -17 337 134 507 193 945 328 77 24 456 104
490 104 14 0 42 12 63 26 34 22 44 25 95 19 31 -4 95 -18 141 -32 165 -50 454
-220 490 -288 44 -81 393 -196 685 -224 146 -15 240 -14 430 4 181 17 244 27
371 62 187 51 286 89 480 183 l140 67 185 17 c102 10 221 23 265 31 166 28
165 28 261 -5 49 -18 105 -36 124 -42 54 -16 90 -37 90 -53 0 -8 -7 -15 -16
-15 -8 0 -50 -14 -92 -31 -42 -17 -95 -38 -117 -47 -22 -8 -58 -23 -80 -33
-22 -9 -85 -33 -140 -54 -125 -46 -145 -58 -173 -102 -20 -30 -23 -44 -18 -92
17 -184 49 -301 98 -350 20 -20 48 -64 63 -98 22 -49 44 -77 101 -128 77 -70
124 -95 176 -95 27 0 47 -15 133 -100 56 -55 109 -100 117 -100 19 0 84 44
110 73 11 12 28 41 39 64 23 50 71 82 132 87 33 3 112 38 286 125 227 114 446
226 573 293 l57 30 38 -30 c112 -88 313 -193 468 -244 206 -67 456 -41 686 72
l66 33 89 -34 c77 -28 103 -33 193 -35 119 -3 216 -28 277 -72 69 -50 99 -57
234 -57 241 0 354 37 467 151 50 51 66 75 79 120 23 81 15 190 -20 274 -34 78
-44 90 -98 117 -80 40 -339 163 -342 163 -2 0 -73 33 -157 74 -154 74 -462
220 -594 281 -38 18 -119 56 -180 85 -60 29 -146 69 -190 90 -44 21 -138 65
-209 99 -70 34 -132 61 -136 61 -19 0 -60 43 -56 59 7 21 -8 39 -62 75 l-43
29 -52 -22 c-80 -35 -88 -35 -181 3 -93 39 -130 44 -160 21 -31 -23 -47 -19
-137 41 -46 30 -126 76 -177 101 -51 25 -90 48 -87 52 4 3 104 6 223 7 377 1
682 19 1012 60 l125 15 85 -39 c352 -163 778 -219 1417 -186 223 11 303 18
320 29 60 40 193 228 219 309 15 48 15 58 0 131 -38 183 -172 375 -375 537
-67 54 -77 59 -110 54 -20 -3 -121 -11 -225 -16 -105 -6 -192 -13 -195 -14 -3
-2 -73 -5 -156 -7 l-150 -4 1 30 c0 17 4 147 8 290 17 579 21 684 27 689 3 3
43 -3 90 -15 129 -32 276 -24 458 26 303 83 523 276 597 526 15 49 14 54 -3
76 -51 68 -715 296 -1133 389 -93 21 -229 66 -325 109 -16 7 -70 30 -120 50
-49 20 -99 40 -110 45 -11 5 -36 15 -55 24 -332 144 -614 221 -882 242 l-88 7
-27 46 c-101 173 -307 400 -476 525 l-78 57 7 57 c6 62 -10 146 -48 239 -21
51 -21 53 -3 118 34 128 3 231 -114 373 l-44 53 6 92 c3 51 11 166 17 257 16
213 7 464 -20 590 -37 175 -137 333 -243 383 -36 18 -103 21 -147 8z m157
-126 c60 -51 115 -171 133 -290 5 -33 14 -80 19 -105 14 -62 13 -390 0 -525
-6 -60 -12 -130 -13 -154 0 -25 -6 -46 -13 -49 -7 -2 -13 1 -13 6 0 16 -237
225 -360 317 -76 57 -118 95 -124 113 -15 46 -13 381 3 432 38 129 90 201 172
242 115 57 142 59 196 13z m-417 -260 c0 -7 -5 -38 -11 -67 -9 -40 -9 -88 1
-196 6 -79 9 -146 6 -149 -3 -4 -18 0 -32 7 -22 12 -27 12 -34 0 -6 -8 -10
-17 -10 -20 0 -9 222 -227 296 -290 41 -35 191 -167 239 -210 98 -87 181 -169
216 -213 32 -40 39 -57 39 -92 l0 -44 -72 6 c-40 3 -80 12 -89 19 -8 8 -25 14
-36 14 -13 0 -23 9 -28 23 l-7 22 -7 -24 c-9 -35 -31 -39 -31 -6 0 19 -9 31
-35 46 -19 12 -35 23 -35 25 0 2 16 4 36 4 31 0 35 -3 29 -20 -3 -11 -2 -20 4
-20 12 0 24 36 16 49 -6 11 -165 10 -165 -1 0 -5 7 -8 15 -8 8 0 15 -4 15 -10
0 -5 -7 -10 -15 -10 -20 0 -37 -35 -33 -72 2 -23 12 -35 39 -51 l36 -21 36 28
c32 24 42 27 79 21 24 -4 67 -20 97 -37 46 -26 56 -28 65 -16 11 15 16 16 71
21 25 2 30 -2 33 -23 4 -41 -12 -54 -60 -52 -25 2 -57 -4 -73 -12 -25 -13 -32
-13 -50 -2 -12 8 -56 20 -97 27 -84 14 -175 2 -198 -27 -7 -7 -18 -14 -25 -14
-8 0 -15 -6 -18 -12 -2 -7 -7 -11 -10 -8 -3 3 7 32 23 64 39 76 39 133 2 198
-36 62 -85 114 -147 153 -65 41 -85 48 -101 34 -29 -24 -4 -166 36 -199 29
-25 47 -62 60 -125 16 -82 11 -119 -17 -123 -23 -3 -27 -16 -36 -107 -2 -22
-10 -74 -17 -116 -12 -75 -11 -78 11 -110 35 -49 46 -59 63 -59 21 0 20 24 0
56 -14 21 -16 42 -10 137 12 197 22 221 59 144 13 -28 15 -42 7 -57 -5 -10
-10 -51 -10 -90 0 -61 6 -86 41 -171 23 -55 39 -102 35 -106 -3 -3 -24 -6 -46
-5 -22 1 -40 -2 -40 -7 0 -11 35 -51 46 -51 11 0 54 -42 54 -52 0 -5 7 -16 15
-24 8 -9 15 -27 15 -42 0 -15 7 -36 15 -46 8 -11 15 -29 15 -41 0 -23 34 -60
72 -79 17 -9 23 -20 23 -45 0 -19 -6 -36 -12 -38 -7 -3 -13 2 -13 11 0 29 -21
27 -53 -4 -18 -17 -44 -34 -60 -37 -15 -3 -30 -10 -33 -14 -3 -5 -35 -10 -72
-10 -112 -2 -123 -7 -152 -66 -14 -29 -29 -53 -35 -53 -5 0 -21 9 -35 19 -23
18 -24 22 -13 72 11 58 2 103 -23 113 -8 3 -14 12 -14 21 0 8 -4 15 -9 15 -5
0 -18 18 -30 40 -16 31 -21 59 -21 118 0 101 -11 118 -49 75 -15 -18 -32 -33
-37 -32 -5 0 -40 40 -78 89 -77 98 -111 128 -188 168 -46 23 -65 27 -143 27
-83 0 -95 -3 -160 -35 -46 -23 -94 -60 -144 -109 -73 -72 -77 -74 -126 -75
l-50 -1 -8 54 c-13 76 3 122 56 164 23 19 53 38 67 42 14 4 30 12 37 17 8 7
27 4 57 -7 52 -20 82 -15 123 19 39 32 79 38 117 16 17 -10 64 -26 105 -36 72
-18 73 -18 87 1 8 10 14 22 14 26 0 4 -22 29 -48 56 -45 46 -115 170 -124 218
-2 11 -15 26 -30 33 -24 11 -26 16 -18 38 6 14 10 38 10 54 0 16 5 39 11 52
10 23 -2 62 -31 108 -22 34 -62 131 -57 137 11 10 37 -6 37 -22 0 -9 16 -50
37 -91 29 -62 40 -74 57 -72 18 3 21 10 23 63 2 73 -35 160 -96 225 -22 24
-38 47 -35 52 11 17 30 6 55 -35 15 -23 39 -62 55 -87 49 -77 54 -91 54 -143
0 -53 9 -67 109 -177 23 -25 44 -56 47 -70 10 -44 13 -50 27 -50 7 0 21 6 32
14 21 15 23 69 3 89 -7 8 -33 37 -58 67 -25 29 -52 60 -61 69 -19 18 -36 101
-21 101 5 0 18 -12 28 -27 9 -15 61 -71 113 -125 53 -53 101 -104 107 -114 14
-24 34 -9 34 27 0 22 -15 45 -59 91 -177 190 -160 165 -161 241 0 51 -4 69
-15 73 -8 4 -15 14 -15 24 0 11 -5 22 -11 25 -5 4 -15 17 -20 28 -36 78 -72
123 -89 112 -13 -8 -13 -42 0 -50 6 -3 10 -17 10 -31 0 -14 6 -27 14 -30 8 -3
17 -17 21 -32 4 -15 12 -30 18 -34 13 -8 23 -138 10 -138 -5 0 -14 12 -20 28
-14 31 -45 86 -87 150 -25 40 -26 45 -12 61 57 63 -49 176 -159 169 l-50 -3 1
-39 c2 -54 23 -67 91 -60 65 8 69 -6 11 -36 -70 -36 -80 -49 -73 -92 5 -30 4
-38 -8 -38 -19 0 -30 41 -22 83 12 65 -29 116 -78 98 -49 -19 -61 -127 -16
-138 10 -3 19 -11 19 -18 0 -8 8 -27 18 -45 16 -30 16 -32 0 -44 -22 -16 -23
-59 -3 -94 22 -41 85 -181 85 -190 0 -5 11 -19 25 -32 21 -19 25 -33 25 -77 0
-43 -5 -62 -25 -87 -29 -39 -30 -43 -9 -85 13 -25 14 -35 4 -44 -9 -9 -14 -8
-24 6 -16 21 -96 32 -212 31 -119 -2 -170 -38 -239 -169 -20 -38 -43 -75 -52
-82 -18 -14 -11 -29 41 -88 15 -16 39 -48 54 -70 15 -22 33 -44 39 -48 24 -15
13 -34 -49 -96 -54 -52 -68 -61 -100 -61 -38 0 -112 -47 -154 -98 l-21 -26
-17 26 c-24 36 -76 184 -76 216 0 15 -8 52 -18 83 -14 45 -16 71 -9 130 12
116 12 120 -18 184 -42 89 -87 144 -253 312 -243 245 -322 388 -322 579 0 66
3 81 22 101 12 13 27 23 34 23 8 0 11 6 8 15 -4 8 -1 15 5 15 6 0 11 -4 11
-10 0 -16 52 -11 72 7 27 25 243 25 281 0 14 -9 33 -17 42 -17 19 0 189 -88
221 -115 7 -5 38 -28 69 -50 54 -38 56 -40 50 -76 -5 -31 -2 -41 22 -67 51
-54 133 -100 133 -74 0 4 -25 33 -55 64 -54 55 -55 56 -40 84 13 25 13 30 -3
48 -77 90 -299 219 -447 258 -80 22 -267 7 -286 -23 -3 -6 -19 -9 -35 -7 -29
3 -29 3 16 29 85 49 151 62 263 55 162 -11 316 -44 622 -131 135 -38 147 -37
291 30 182 85 363 124 597 127 127 2 161 6 171 18 7 8 32 65 55 125 86 217
161 357 161 300z m-2350 -426 c47 -6 94 -14 105 -18 18 -7 17 -9 -12 -24 -18
-10 -44 -28 -59 -42 -27 -25 -44 -25 -44 0 0 7 -10 15 -22 18 -58 15 -254 29
-353 25 l-110 -3 -142 -94 c-116 -77 -143 -99 -143 -118 0 -30 47 -59 109 -67
42 -6 88 -15 248 -48 61 -13 108 1 119 36 10 33 53 86 88 107 37 23 166 28
167 7 0 -7 1 -48 3 -90 l2 -77 -27 6 c-23 4 -41 -6 -118 -73 -49 -42 -93 -84
-96 -92 -7 -19 32 -62 57 -62 20 0 132 52 162 74 10 8 15 20 11 25 -8 13 3 51
15 51 6 0 40 -81 40 -97 0 -1 -14 -10 -32 -19 -31 -16 -149 -132 -193 -189
-30 -40 -40 -98 -20 -115 18 -15 11 -30 -14 -30 -34 0 -61 -38 -61 -85 0 -39
4 -46 29 -59 26 -14 32 -14 61 0 23 12 45 15 81 10 41 -6 52 -3 69 14 11 11
20 26 20 34 0 22 -49 53 -100 64 -37 7 -20 9 90 8 104 -1 143 3 170 15 19 9
53 22 74 29 l39 12 71 -73 c114 -118 110 -113 92 -142 -9 -13 -23 -75 -32
-143 -18 -136 -19 -140 -93 -253 -44 -69 -56 -81 -65 -69 -7 10 -38 17 -91 22
-44 4 -101 12 -127 18 -49 12 -89 4 -229 -44 -31 -11 -65 -18 -75 -16 -30 5
-23 33 9 36 29 4 63 44 52 62 -14 23 -53 30 -89 15 -20 -8 -55 -15 -78 -15
-82 0 -84 -56 -8 -215 26 -55 55 -118 64 -140 27 -64 44 -90 60 -93 20 -4 21
26 1 52 -8 11 -15 28 -15 37 0 10 -6 30 -14 46 -16 33 -37 92 -39 112 -2 11
13 15 63 16 36 1 90 10 120 20 30 9 87 28 125 41 82 27 265 39 265 18 0 -33
-209 -211 -360 -309 -119 -76 -252 -188 -316 -266 -32 -40 -68 -83 -80 -97
-19 -23 -27 -25 -112 -26 -81 -1 -93 -3 -116 -25 -14 -14 -26 -35 -26 -47 0
-38 -18 -74 -38 -74 -28 0 -52 -22 -81 -76 -24 -43 -32 -49 -62 -52 -43 -3
-149 -32 -169 -46 -8 -6 -31 -20 -50 -31 -51 -28 -240 -173 -277 -213 -38 -40
-40 -55 -12 -83 17 -17 27 -19 67 -13 26 4 64 13 86 20 21 8 51 14 66 14 15 0
41 7 56 15 16 8 39 15 52 15 12 0 39 7 59 15 19 8 42 15 50 15 28 0 65 40 99
107 20 37 47 80 61 95 14 14 35 45 47 69 15 30 30 46 53 53 46 15 64 37 78 93
11 43 15 48 44 51 36 4 39 -8 13 -46 -10 -15 -42 -76 -71 -137 -29 -60 -59
-123 -68 -140 -13 -27 -13 -30 3 -42 22 -16 36 -12 49 13 23 42 66 104 73 104
4 0 25 -7 47 -15 22 -8 56 -14 76 -15 20 0 38 -3 41 -6 4 -3 -6 -24 -22 -47
-39 -58 -70 -131 -70 -162 0 -15 6 -41 14 -58 8 -18 20 -50 26 -72 38 -125 99
-205 134 -176 7 6 38 15 67 18 48 6 58 12 116 69 35 35 63 69 63 76 0 6 8 20
18 31 14 16 17 35 14 118 -1 54 -7 111 -13 126 -6 15 -13 68 -16 116 -6 81 -8
89 -34 107 -35 25 -39 25 -101 -5 -76 -37 -80 -31 -18 25 l55 50 1 172 c1 95
6 173 10 174 5 2 25 -17 44 -41 68 -84 102 -84 152 3 65 112 79 137 96 172 9
19 20 37 25 38 4 2 7 12 7 22 0 9 51 69 113 131 62 63 126 135 142 161 17 27
33 48 36 48 7 0 22 -130 21 -180 -12 -429 -22 -676 -30 -720 -6 -30 -11 -131
-12 -225 0 -93 -5 -213 -10 -265 -17 -174 -21 -402 -10 -480 6 -41 15 -113 19
-159 9 -86 18 -103 56 -99 19 3 20 11 22 170 1 93 5 167 10 166 4 -2 15 -30
24 -63 16 -61 82 -185 99 -185 16 0 22 40 11 73 -29 86 -51 248 -51 367 0 71
-4 119 -9 112 -14 -23 -21 178 -21 581 1 213 -2 392 -5 397 -3 6 -2 17 3 27 8
13 13 8 31 -32 11 -26 21 -50 21 -52 0 -2 35 -57 77 -121 42 -64 82 -133 89
-152 7 -19 18 -136 24 -260 13 -236 14 -231 -30 -355 -27 -75 -50 -211 -50
-292 0 -147 40 -263 143 -412 46 -65 171 -202 221 -240 28 -21 7 -30 -79 -36
-44 -3 -93 -8 -108 -11 -18 -4 -37 0 -53 11 -23 15 -28 15 -42 2 -10 -8 -33
-17 -54 -21 -32 -6 -48 -21 -48 -47 0 -15 58 -40 65 -28 11 17 30 4 30 -22 0
-20 5 -24 36 -27 30 -3 37 1 47 23 12 26 45 34 57 14 4 -6 14 -7 24 -4 9 4 43
14 76 21 33 8 65 22 72 30 15 21 98 33 91 14 -5 -15 -17 -22 -66 -41 -76 -28
-104 -74 -59 -98 19 -10 43 -3 182 53 160 64 204 83 260 113 33 18 36 19 315
122 107 40 204 78 215 84 11 6 81 14 155 17 125 5 140 8 203 37 43 21 88 53
123 88 31 31 59 53 63 50 22 -22 26 -370 6 -495 -36 -220 -95 -315 -314 -499
-64 -54 -192 -176 -286 -271 -93 -94 -200 -194 -236 -221 l-66 -49 -140 0
-140 0 -179 58 c-258 85 -283 91 -365 98 -61 5 -86 2 -139 -16 -78 -26 -150
-60 -150 -72 0 -4 -4 -8 -10 -8 -20 0 -9 29 19 53 28 24 63 42 161 85 29 13
81 23 145 27 67 5 106 12 118 23 19 17 22 43 8 57 -5 6 -11 28 -13 50 -5 63
-37 60 -193 -19 -71 -36 -132 -63 -136 -60 -7 4 26 57 81 130 27 36 63 54 107
54 37 0 45 4 55 26 11 23 10 29 -11 45 -32 26 -71 24 -144 -9 -57 -26 -97 -64
-97 -92 0 -6 -20 -30 -44 -53 -53 -52 -64 -81 -40 -108 20 -22 22 -20 -36 -52
-25 -14 -53 -36 -63 -50 -16 -21 -17 -27 -5 -46 12 -20 9 -26 -52 -84 -110
-105 -140 -129 -175 -138 -23 -7 -56 -34 -105 -88 -67 -74 -73 -79 -123 -85
-63 -8 -173 -45 -207 -69 -24 -16 -24 -19 -9 -45 12 -22 22 -27 54 -27 22 0
50 4 63 8 42 15 22 -11 -53 -67 -79 -60 -98 -96 -51 -96 14 0 28 5 31 10 4 6
21 17 38 25 68 31 218 131 247 165 3 3 19 16 35 29 39 29 209 196 246 240 35
42 44 36 28 -18 -10 -34 -9 -44 5 -66 22 -33 40 -31 106 10 98 61 110 67 110
52 0 -7 -7 -22 -15 -34 -19 -27 -24 -185 -6 -207 36 -43 93 -19 146 63 20 30
47 54 75 68 25 12 60 37 77 55 31 32 32 35 17 56 -13 19 -24 22 -82 22 -79 0
-113 14 -66 27 40 11 391 7 490 -5 44 -6 134 -14 200 -17 150 -8 147 -7 132
-42 -7 -15 -20 -36 -29 -45 -15 -15 -17 -34 -16 -111 2 -85 5 -98 30 -130 36
-47 60 -54 97 -27 46 33 54 54 51 148 -1 32 -8 50 -27 69 -20 20 -27 37 -28
75 -1 27 1 51 5 54 3 2 104 6 223 10 l218 6 -16 -30 c-20 -39 -21 -131 -2
-158 13 -17 25 -19 118 -16 57 1 128 2 157 2 46 0 59 4 83 27 15 15 28 34 28
43 0 28 -71 84 -120 96 -37 9 -41 12 -26 19 11 5 41 3 70 -4 28 -6 87 -18 131
-26 120 -20 253 -59 425 -125 30 -12 66 -25 80 -30 106 -35 427 -175 472 -206
75 -53 127 -159 178 -366 12 -49 20 -103 18 -120 l-4 -33 -7 30 c-42 165 -162
361 -275 448 -67 52 -174 107 -207 107 -13 0 -27 5 -30 10 -8 12 -72 13 -79 1
-6 -9 56 -51 77 -51 44 -1 209 -111 266 -177 41 -48 141 -237 141 -266 0 -9 4
-18 9 -22 5 -3 12 -19 16 -36 4 -17 13 -42 21 -57 8 -15 14 -36 14 -46 0 -11
7 -27 15 -36 19 -21 10 -46 -24 -66 -14 -8 -39 -23 -56 -34 -16 -10 -50 -29
-75 -41 -25 -12 -53 -25 -62 -30 -41 -21 -48 -14 -64 61 -3 19 -10 41 -15 50
-12 22 -49 108 -49 114 0 8 -68 145 -97 196 -77 134 -222 265 -341 306 -28 10
-34 10 -39 -3 -7 -17 21 -43 44 -43 7 0 13 -4 13 -9 0 -5 8 -12 19 -16 28 -8
142 -121 187 -185 34 -48 88 -150 129 -245 39 -89 45 -104 45 -114 0 -6 4 -19
9 -29 5 -9 19 -36 30 -60 l21 -43 -28 -10 c-15 -6 -53 -13 -84 -16 l-58 -6 0
34 c0 44 -28 122 -62 174 -25 39 -149 165 -162 165 -6 0 -64 38 -76 50 -16 16
-159 80 -177 80 -33 0 -31 -38 2 -50 14 -5 25 -14 25 -19 0 -5 8 -12 18 -15
48 -18 200 -126 240 -172 20 -22 55 -77 76 -120 21 -44 43 -87 48 -97 14 -28
5 -30 -53 -13 -29 9 -73 16 -98 16 -25 1 -57 7 -71 15 -14 8 -36 14 -50 15
-23 0 -98 33 -110 49 -8 9 -205 104 -315 151 -27 11 -62 27 -77 35 -14 8 -33
15 -41 15 -9 0 -28 6 -44 14 -26 13 -50 23 -143 56 -19 6 -55 16 -79 21 -24 5
-49 13 -55 18 -12 9 -253 32 -356 33 -78 1 -140 -23 -119 -48 7 -9 31 -14 65
-14 30 0 54 -4 54 -9 0 -12 -207 -17 -505 -13 l-230 4 3 261 3 262 39 40 c86
90 179 204 185 228 5 19 2 28 -13 36 -45 24 -49 22 -174 -120 -41 -46 -101
-99 -152 -133 -46 -31 -91 -67 -99 -79 -11 -17 -13 -49 -10 -152 6 -159 15
-194 53 -202 23 -4 29 -12 35 -41 4 -20 13 -49 21 -64 9 -17 10 -29 4 -33 -10
-6 -179 4 -192 11 -4 3 -64 9 -134 14 -70 5 -132 14 -138 20 -5 5 -20 10 -33
10 -12 0 -40 6 -60 14 -21 8 -51 17 -68 21 l-30 7 23 15 c12 9 22 24 22 35 0
11 9 22 20 25 44 12 32 105 -33 255 -17 39 -87 50 -87 13 0 -24 -25 -60 -66
-98 -23 -20 -44 -37 -47 -37 -14 0 -67 -57 -67 -72 0 -29 -16 -22 -98 41 -117
89 -114 83 -107 192 3 52 9 114 14 139 6 25 14 65 20 90 5 25 26 90 46 145 20
55 39 111 42 125 3 14 11 32 18 40 7 8 15 29 18 45 3 17 17 66 31 110 15 44
33 101 41 126 8 26 15 55 15 64 0 10 6 41 14 69 38 132 86 496 86 644 l0 121
46 46 c25 25 48 45 50 45 2 0 19 -34 39 -75 34 -73 65 -115 85 -115 6 0 20 11
32 25 24 28 38 32 38 10 0 -14 29 -35 47 -35 15 0 43 68 50 117 5 40 3 48 -18
64 -21 16 -22 21 -11 39 17 28 7 57 -26 74 -15 8 -47 33 -72 55 -25 22 -48 41
-52 41 -10 0 -28 94 -28 145 0 35 -7 52 -39 93 -22 27 -54 60 -71 72 -36 25
-53 21 -107 -29 -88 -79 -169 -131 -205 -131 -21 0 -92 -36 -107 -54 -8 -9
-14 -46 -15 -87 l-1 -72 -42 -14 c-72 -24 -76 -40 -58 -209 8 -81 15 -164 15
-186 0 -35 13 -57 112 -186 61 -81 125 -162 141 -181 27 -32 29 -38 23 -90
-15 -124 -46 -191 -83 -176 -7 2 -53 7 -101 10 -180 12 -509 57 -727 98 -109
21 -257 60 -395 105 l-115 37 120 6 c110 6 136 11 202 42 40 18 37 43 -9 115
-85 129 -103 159 -114 182 -4 8 -19 33 -33 55 -36 57 -61 107 -61 122 0 20
-37 35 -58 24 -21 -11 -117 -126 -182 -219 -25 -34 -60 -83 -78 -108 -40 -54
-39 -81 5 -109 34 -21 42 -35 19 -35 -19 0 -244 109 -328 159 -14 9 -48 29
-75 45 -162 96 -428 331 -532 469 -43 56 -50 87 -13 54 10 -10 24 -17 30 -17
6 0 93 -83 194 -184 101 -101 193 -187 205 -191 27 -7 39 14 82 141 50 147 58
168 68 171 5 2 29 -12 54 -30 24 -18 69 -50 99 -70 30 -20 84 -59 119 -87 85
-69 102 -65 125 27 9 38 16 98 16 134 0 59 -3 68 -27 90 -39 34 -90 69 -102
69 -22 0 -35 46 -32 111 4 97 -13 144 -64 173 -55 33 -130 43 -175 23 -54 -23
-118 -84 -166 -159 -24 -37 -50 -68 -58 -68 -8 0 -25 17 -37 38 -13 20 -33 48
-46 61 -36 37 -29 48 32 54 113 12 220 70 337 185 68 66 68 66 100 53 45 -18
129 -32 152 -25 24 8 234 212 251 246 8 15 17 71 20 131 6 98 5 107 -14 126
-27 27 -55 27 -80 0 -24 -26 -67 -49 -91 -49 -34 0 -140 -39 -162 -60 -13 -12
-36 -31 -51 -43 -15 -12 -36 -29 -47 -37 -10 -8 -28 -22 -40 -30 -12 -8 -42
-30 -66 -47 -23 -18 -48 -33 -54 -33 -7 0 -24 -6 -38 -14 -15 -8 -76 -37 -137
-66 -60 -28 -122 -58 -137 -66 -14 -8 -34 -14 -44 -14 -10 0 -37 -18 -60 -41
-40 -40 -43 -40 -66 -25 -21 13 -36 14 -99 6 -178 -23 -186 -33 -133 -181 55
-155 60 -168 67 -175 11 -11 8 -54 -3 -54 -5 0 -10 6 -10 14 0 8 -6 21 -13 28
-32 35 -104 212 -142 353 -47 171 -57 242 -62 416 l-5 176 35 89 c19 49 49
121 67 159 17 39 38 85 46 103 8 17 18 32 22 32 4 0 20 -18 35 -40 40 -57 59
-65 89 -37 74 69 358 473 358 509 0 6 20 33 45 60 25 28 45 58 45 68 0 27 -56
78 -98 89 -20 5 -52 13 -70 18 -17 4 -33 12 -34 17 -3 15 222 329 306 427 17
20 48 57 70 83 l38 47 22 -20 c29 -27 33 -27 118 13 40 19 96 44 123 57 28 12
84 53 125 89 101 90 185 152 250 187 55 29 162 63 199 63 20 0 93 54 149 110
62 61 114 169 137 278 7 35 15 65 17 68 12 11 215 75 328 103 268 66 441 79
670 50z m-1073 -226 c-3 -3 -11 -2 -17 2 -9 6 -9 10 1 16 14 8 27 -7 16 -18z
m-567 -333 c0 -5 -2 -10 -4 -10 -3 0 -8 5 -11 10 -3 6 -1 10 4 10 6 0 11 -4
11 -10z m4661 -467 c35 -21 44 -58 36 -153 -6 -69 -25 -118 -71 -179 -28 -38
-26 -51 10 -51 27 0 30 -7 10 -29 -8 -9 -25 -36 -39 -61 -26 -47 -45 -57 -108
-59 -39 -1 -65 21 -87 72 -19 45 -15 66 16 78 95 34 133 74 164 171 19 63 18
151 -3 164 -10 6 -12 48 -2 57 11 12 44 7 74 -10z m-313 -45 c21 -21 14 -57
-14 -70 -22 -11 -28 -10 -40 7 -25 34 -11 75 26 75 9 0 21 -5 28 -12z m-2208
-70 c47 -51 91 -188 60 -188 -5 0 -13 -12 -16 -26 -5 -19 -9 -22 -15 -12 -5 7
-9 23 -9 36 0 13 -4 20 -10 17 -5 -3 -10 -15 -10 -26 0 -10 -7 -19 -15 -19
-10 0 -16 -18 -21 -62 -5 -45 -9 -57 -15 -43 -13 33 -10 136 6 200 8 33 14 79
15 103 0 23 2 42 5 42 2 0 14 -10 25 -22z m1030 -38 c0 -11 -4 -20 -10 -20 -5
0 -10 9 -10 20 0 11 5 20 10 20 6 0 10 -9 10 -20z m1575 -140 c-7 -41 -34 -80
-55 -80 -17 0 -11 21 20 67 17 24 30 49 30 55 0 6 3 9 6 5 3 -3 3 -24 -1 -47z
m-445 -127 c0 -26 -1 -26 -15 -7 -19 25 -19 34 0 34 10 0 15 -10 15 -27z m47
-34 c-5 -59 -17 -59 -17 0 0 34 4 50 10 46 6 -4 9 -24 7 -46z m-1139 -26 c2
-10 -9 -30 -23 -43 l-26 -25 -19 25 c-26 33 -25 55 2 74 19 13 25 14 43 2 11
-7 21 -22 23 -33z m1062 -14 c0 -21 -16 -26 -23 -6 -6 17 3 38 14 31 5 -3 9
-14 9 -25z m390 -29 c0 -5 -4 -10 -9 -10 -6 0 -13 5 -16 10 -3 6 1 10 9 10 9
0 16 -4 16 -10z m-1120 -25 c9 -11 9 -15 1 -15 -6 0 -16 -10 -21 -22 -8 -20
-9 -18 -9 15 -1 39 9 47 29 22z m760 -11 c0 -8 -4 -14 -10 -14 -5 0 -10 9 -10
21 0 11 5 17 10 14 6 -3 10 -13 10 -21z m319 -21 c18 -4 19 -13 16 -81 -2 -43
-4 -78 -4 -80 -1 -5 -81 77 -81 83 0 3 11 5 25 5 21 0 25 5 25 29 0 17 -4 33
-10 36 -5 3 -10 18 -9 33 0 27 0 27 10 4 5 -13 18 -26 28 -29z m433 -50 c43
-43 78 -81 78 -86 0 -5 -21 -35 -46 -68 -43 -56 -47 -59 -89 -59 -70 0 -163
-74 -180 -143 -6 -21 -11 -24 -28 -18 -17 6 -24 22 -33 77 -24 137 -25 134 77
237 50 50 98 101 106 114 9 13 20 23 26 23 7 0 47 -35 89 -77z m-1477 48 c3
-5 1 -12 -5 -16 -5 -3 -10 1 -10 9 0 18 6 21 15 7z m850 -1 c3 -5 -1 -10 -9
-10 -9 0 -16 5 -16 10 0 6 4 10 9 10 6 0 13 -4 16 -10z m-95 -51 c0 -16 -4
-29 -10 -29 -5 0 -10 16 -10 36 0 21 4 33 10 29 6 -3 10 -19 10 -36z m240 21
c0 -4 -7 -13 -15 -20 -11 -10 -25 -10 -66 0 -35 9 -47 15 -38 21 16 10 119 9
119 -1z m-1605 -30 c9 -29 101 -108 135 -115 16 -4 39 -19 49 -34 20 -27 76
-51 122 -51 14 0 58 11 99 24 116 38 170 39 189 3 10 -20 10 -30 -3 -58 -20
-46 -53 -82 -67 -74 -6 4 -31 1 -56 -6 -36 -10 -56 -10 -97 0 -102 24 -128 35
-139 58 -6 13 -20 25 -31 28 -177 36 -216 56 -251 130 -30 65 -30 63 -3 92 26
28 45 29 53 3z m1505 -31 c0 -5 -4 -9 -10 -9 -5 0 -10 7 -10 16 0 8 5 12 10 9
6 -3 10 -10 10 -16z m-775 -30 l-8 -24 -8 24 c-10 27 -2 48 13 33 6 -6 7 -20
3 -33z m-235 -10 c-6 -10 -15 -19 -20 -19 -4 0 -15 -3 -24 -6 -9 -3 -16 -1
-16 5 0 6 11 13 25 17 14 3 25 13 25 21 0 8 5 11 10 8 7 -4 7 -13 0 -26z m900
16 c0 -9 9 -15 24 -15 24 0 43 -16 33 -26 -3 -3 -21 -2 -40 1 -32 6 -55 34
-39 49 10 11 22 6 22 -9z m210 -51 c46 -50 46 -52 -20 -127 -40 -45 -48 -77
-18 -77 19 0 31 10 62 53 33 44 43 46 56 11 9 -22 4 -34 -36 -91 -42 -60 -50
-93 -24 -93 6 0 22 11 36 25 14 14 27 25 29 25 12 0 4 -129 -11 -179 -17 -61
-83 -162 -126 -194 -19 -14 -48 -21 -101 -25 -75 -4 -75 -4 -90 24 -8 16 -18
45 -22 64 -4 19 -13 42 -19 52 -9 15 -1 27 54 76 l64 58 -13 57 c-12 53 -11
59 10 88 19 27 20 34 9 54 -11 20 -10 34 4 83 9 32 16 71 16 85 0 20 7 30 26
37 16 6 24 16 21 24 -16 42 45 22 93 -30z m-1759 26 c23 -13 26 -35 4 -26 -10
3 -18 -1 -21 -12 -4 -9 -12 -31 -20 -49 -20 -44 -18 -68 12 -114 21 -33 30
-40 49 -36 21 3 23 1 14 -14 -14 -27 -46 -41 -109 -48 -53 -6 -55 -7 -53 -34
3 -37 67 -116 109 -133 47 -20 82 -17 140 10 l52 24 32 -21 c18 -12 72 -43
119 -69 79 -43 118 -80 120 -114 1 -12 -53 -28 -134 -39 -28 -4 -60 -16 -72
-28 -21 -18 -27 -19 -65 -8 -24 6 -52 16 -63 21 -78 35 -115 50 -124 50 -21 0
-10 20 14 26 34 8 35 49 1 61 -13 4 -57 49 -96 98 -82 102 -104 118 -124 90
-13 -18 -14 -17 -26 6 -41 75 -40 69 -13 123 14 28 36 66 50 84 l25 33 23 -21
c26 -25 22 -28 73 70 28 55 46 79 60 80 2 0 12 -5 23 -10z m752 -7 c-13 -2
-33 -2 -45 0 -13 2 -3 4 22 4 25 0 35 -2 23 -4z m-706 -55 c-3 -8 -6 -5 -6 6
-1 11 2 17 5 13 3 -3 4 -12 1 -19z m873 -4 c0 -8 -4 -14 -10 -14 -5 0 -10 9
-10 21 0 11 5 17 10 14 6 -3 10 -13 10 -21z m-80 -34 c0 -16 -4 -30 -10 -30
-5 0 -10 14 -10 30 0 17 5 30 10 30 6 0 10 -13 10 -30z m-1318 -35 c33 -86
136 -303 149 -315 15 -14 80 -132 75 -137 -8 -9 -56 40 -56 58 0 23 -10 30
-30 19 -15 -8 -16 -5 -12 18 5 27 5 27 -17 8 -13 -12 -21 -31 -21 -52 0 -40
-17 -53 -29 -22 -5 13 -27 42 -48 66 -53 58 -107 164 -100 194 3 13 13 50 22
83 9 33 19 77 22 98 7 49 21 43 45 -18z m1428 24 c0 -5 -4 -9 -10 -9 -5 0 -10
7 -10 16 0 8 5 12 10 9 6 -3 10 -10 10 -16z m30 -34 c0 -8 -4 -15 -10 -15 -5
0 -10 7 -10 15 0 8 5 15 10 15 6 0 10 -7 10 -15z m-843 -1 c-3 -3 -12 -4 -19
-1 -8 3 -5 6 6 6 11 1 17 -2 13 -5z m703 -30 c0 -14 -4 -22 -10 -19 -5 3 -10
17 -10 31 0 14 4 22 10 19 6 -3 10 -17 10 -31z m-720 -15 c0 -24 -23 -21 -28
4 -2 10 3 17 12 17 10 0 16 -9 16 -21z m896 5 c-3 -9 -6 -20 -6 -25 0 -21 -15
-7 -16 16 -1 16 3 25 13 25 10 0 13 -6 9 -16z m-691 -24 c-52 -6 -68 -4 -61 8
2 4 28 5 58 2 l53 -4 -50 -6z m1196 -2 c22 -28 24 -54 4 -62 -9 -3 -15 -18
-15 -40 0 -47 -15 -54 -29 -13 -7 18 -15 27 -19 21 -9 -14 -88 -34 -99 -24
-10 10 -153 18 -153 9 0 -11 62 -20 97 -13 19 4 33 2 33 -4 0 -11 -124 -27
-140 -17 -33 20 8 75 57 75 56 0 156 32 193 61 43 34 47 35 71 7z m-711 -18
c0 -11 -4 -20 -10 -20 -5 0 -10 9 -10 20 0 11 5 20 10 20 6 0 10 -9 10 -20z
m-630 0 c12 -8 11 -10 -7 -10 -12 0 -25 5 -28 10 -8 13 15 13 35 0z m-1511
-45 c-31 -44 -58 -54 -67 -27 -2 6 3 12 12 12 8 0 19 6 23 13 7 11 52 45 61
46 2 1 -11 -19 -29 -44z m2311 21 c0 -14 -4 -28 -10 -31 -6 -4 -10 7 -10 24 0
17 5 31 10 31 6 0 10 -11 10 -24z m-705 4 c17 -7 15 -9 -12 -9 -17 -1 -35 4
-38 9 -7 12 22 12 50 0z m405 -4 c0 -2 -7 -6 -15 -10 -8 -3 -15 -1 -15 4 0 6
7 10 15 10 8 0 15 -2 15 -4z m100 -13 c0 -5 -5 -15 -10 -23 -8 -12 -10 -11
-10 8 0 12 5 22 10 22 6 0 10 -3 10 -7z m-260 -19 c0 -2 -18 -4 -40 -4 -22 0
-40 3 -40 8 0 4 18 6 40 4 22 -2 40 -6 40 -8z m120 8 c0 -13 -12 -22 -22 -16
-10 6 -1 24 13 24 5 0 9 -4 9 -8z m-287 -9 c-7 -2 -19 -2 -25 0 -7 3 -2 5 12
5 14 0 19 -2 13 -5z m392 -25 c-3 -8 -20 -25 -36 -38 -23 -16 -34 -19 -42 -11
-9 9 -6 13 11 17 12 4 22 10 22 15 0 5 6 9 14 9 8 0 17 7 20 16 4 9 9 15 11
12 3 -3 3 -12 0 -20z m-145 3 c0 -12 -20 -25 -27 -18 -7 7 6 27 18 27 5 0 9
-4 9 -9z m345 -1 c3 -5 1 -10 -4 -10 -6 0 -11 5 -11 10 0 6 2 10 4 10 3 0 8
-4 11 -10z m1529 3 l68 -6 20 -46 c37 -85 71 -205 87 -306 9 -51 1 -75 -24
-75 -7 0 -52 -16 -101 -36 -98 -39 -70 -39 -279 1 l-60 12 -7 72 c-8 80 -36
178 -68 240 l-20 41 65 30 c36 17 71 30 78 30 6 0 26 7 42 16 58 32 96 37 199
27z m-1409 -48 c11 -7 47 -21 79 -31 l58 -18 -6 -42 c-5 -36 -2 -44 17 -56 26
-17 146 -58 169 -58 27 0 68 -40 68 -66 0 -14 4 -34 10 -44 5 -10 7 -26 4 -35
-4 -9 -73 -49 -154 -89 l-147 -73 -134 2 c-120 2 -143 6 -225 34 -109 37 -219
93 -245 124 -38 44 -89 135 -89 158 0 32 35 83 60 89 36 8 26 24 -28 45 -29
11 -52 24 -52 29 0 4 8 5 18 1 9 -4 48 -9 85 -11 37 -2 80 -10 95 -18 93 -46
251 -56 272 -16 14 26 13 30 -10 30 -11 0 -20 -4 -20 -10 0 -5 -18 -10 -40
-10 -22 0 -40 5 -40 10 0 6 15 10 33 10 30 1 31 1 13 15 -19 14 -18 15 10 16
96 5 107 7 116 23 10 18 46 14 83 -9z m1685 5 c0 -6 -8 -13 -17 -17 -10 -3
-26 -13 -36 -22 -17 -14 -20 -14 -38 9 -10 14 -19 28 -19 33 0 4 25 7 55 7 31
0 55 -4 55 -10z m-2200 -4 c0 -11 -19 -15 -25 -6 -3 5 1 10 9 10 9 0 16 -2 16
-4z m231 -16 c27 0 49 -5 49 -10 0 -17 -122 -8 -128 9 -3 10 0 12 12 8 10 -4
40 -7 67 -7z m2224 -26 c55 -14 116 -29 135 -34 36 -10 184 -62 280 -100 30
-12 66 -25 80 -30 117 -41 130 -53 63 -58 -54 -4 -71 -28 -49 -69 13 -26 54
-68 83 -86 20 -12 50 10 62 44 15 44 14 57 -9 76 -11 10 -20 21 -20 25 0 15
27 8 116 -31 49 -21 121 -51 159 -65 39 -15 79 -32 90 -37 11 -5 38 -13 60
-18 22 -5 65 -17 95 -26 120 -36 233 -69 315 -90 230 -59 410 -113 485 -143
14 -5 43 -17 65 -25 22 -9 78 -30 123 -48 46 -18 86 -38 89 -46 6 -15 -37
-123 -49 -123 -4 0 -8 8 -8 18 0 9 -9 36 -19 59 -22 48 -69 76 -198 119 -168
55 -383 83 -383 50 0 -19 48 -42 102 -51 100 -14 275 -61 343 -90 70 -31 84
-51 91 -126 6 -60 4 -67 -20 -96 -26 -31 -117 -103 -130 -103 -3 0 -6 15 -6
33 -1 86 -98 169 -295 252 -22 9 -53 22 -70 29 -63 27 -134 46 -169 46 -71 0
-29 -56 57 -76 15 -3 30 -10 33 -15 3 -5 12 -9 21 -9 29 0 223 -93 278 -134
47 -35 75 -83 75 -130 0 -41 -17 -56 -95 -86 -33 -12 -69 -27 -79 -32 -27 -14
-42 9 -50 78 -12 101 -107 185 -223 199 -84 9 -123 0 -123 -29 0 -20 7 -24 42
-29 24 -3 44 -11 46 -16 2 -6 25 -11 50 -11 43 0 51 -4 94 -48 64 -68 89 -157
46 -166 -134 -28 -190 -27 -313 7 -97 27 -95 23 -88 140 3 56 10 110 14 119 5
9 9 57 9 107 0 90 0 91 -29 105 -34 18 -40 30 -33 75 3 23 13 38 33 50 34 19
44 43 29 71 -17 31 -72 27 -113 -10 -43 -37 -47 -37 -47 -2 0 16 -9 37 -20 47
-38 34 -90 -13 -78 -71 2 -10 16 -25 31 -34 26 -14 29 -14 41 3 19 25 26 21
26 -14 l0 -31 -116 6 c-64 3 -119 8 -122 11 -3 3 2 13 11 23 24 27 21 50 -13
89 -24 27 -30 43 -30 79 0 35 -6 51 -25 70 -24 24 -28 25 -48 11 -18 -12 -23
-25 -25 -77 -4 -73 10 -116 46 -147 15 -12 24 -24 21 -27 -2 -3 -75 1 -161 7
-87 7 -165 9 -175 5 -43 -17 -121 -8 -191 22 -39 17 -78 30 -87 30 -8 0 -23 4
-33 9 -9 6 -29 12 -44 15 -15 4 -30 15 -33 27 -9 28 -41 37 -89 26 -23 -5 -72
-10 -111 -11 l-70 -1 0 120 c-1 115 -11 183 -41 270 -19 55 -18 65 9 63 35 -3
124 42 136 68 13 30 23 30 146 -2z m-4544 -53 c-12 -16 -22 -44 -22 -63 -1
-21 -3 -26 -6 -13 -3 11 -9 24 -14 30 -14 14 -11 22 23 61 36 41 51 30 19 -15z
m3049 45 c0 -3 -4 -8 -10 -11 -5 -3 -10 -1 -10 4 0 6 5 11 10 11 6 0 10 -2 10
-4z m-1067 -20 c6 -16 -2 -28 -14 -20 -12 7 -11 34 0 34 5 0 11 -6 14 -14z
m-113 -21 c0 -14 -4 -25 -10 -25 -5 0 -10 11 -10 25 0 14 5 25 10 25 6 0 10
-11 10 -25z m1668 -26 c45 -71 74 -195 70 -298 l-3 -82 -45 -18 c-25 -10 -79
-29 -120 -41 -41 -12 -107 -33 -147 -46 -67 -23 -103 -29 -103 -20 0 2 -2 11
-6 19 -3 8 15 37 42 68 25 30 55 74 66 97 11 24 44 69 75 100 75 78 123 170
123 240 0 17 4 32 9 32 4 0 22 -23 39 -51z m-723 31 c3 -5 -1 -10 -9 -10 -9 0
-16 5 -16 10 0 6 4 10 9 10 6 0 13 -4 16 -10z m-855 -73 l0 -31 -16 22 c-9 13
-13 30 -10 38 9 24 26 6 26 -29z m-2020 -2 c0 -8 -4 -15 -9 -15 -13 0 -22 16
-14 24 11 11 23 6 23 -9z m-30 -40 c0 -8 -4 -15 -10 -15 -5 0 -10 7 -10 15 0
8 5 15 10 15 6 0 10 -7 10 -15z m-30 -39 c0 -17 -14 -29 -23 -20 -8 8 3 34 14
34 5 0 9 -6 9 -14z m1297 -6 c3 -11 9 -20 14 -20 5 0 9 -7 9 -16 0 -13 -5 -11
-25 7 -26 25 -33 49 -14 49 6 0 13 -9 16 -20z m-1337 -42 c0 -16 -3 -19 -11
-11 -6 6 -8 16 -5 22 11 17 16 13 16 -11z m-30 -50 c0 -16 -3 -19 -11 -11 -6
6 -8 16 -5 22 11 17 16 13 16 -11z m1430 -28 c0 -11 5 -20 10 -20 6 0 10 -8
10 -17 0 -14 -4 -12 -25 7 -28 26 -33 50 -10 50 8 0 15 -9 15 -20z m798 -7 c2
-9 -9 -13 -37 -13 -47 0 -64 17 -24 23 41 6 56 4 61 -10z m-2258 -15 c0 -18
-2 -20 -9 -8 -6 8 -7 18 -5 22 9 14 14 9 14 -14z m50 -8 c0 -5 -2 -10 -4 -10
-3 0 -8 5 -11 10 -3 6 -1 10 4 10 6 0 11 -4 11 -10z m3370 -12 c0 -19 -94
-108 -134 -128 -50 -24 -143 -34 -205 -23 -47 9 -65 29 -34 39 37 12 159 74
193 97 29 21 46 25 108 24 39 0 72 -4 72 -9z m-3444 -28 c0 -11 -6 -20 -12
-20 -7 0 -21 -3 -31 -7 -14 -5 -13 -1 6 20 29 32 37 34 37 7z m1511 -162 c62
-65 134 -119 226 -168 43 -24 81 -48 83 -55 9 -22 -37 -104 -87 -159 -57 -63
-140 -101 -266 -121 -24 -4 -45 -11 -49 -16 -3 -5 -16 -9 -30 -9 -24 0 -25 2
-20 43 15 126 36 179 93 233 38 36 42 45 34 65 -5 13 -20 69 -32 124 -12 55
-26 104 -31 110 -4 5 -8 16 -8 24 0 17 19 1 87 -71z m2288 -38 c4 -6 0 -29 -8
-53 -41 -119 -87 -390 -87 -512 0 -177 62 -291 195 -355 26 -13 66 -25 90 -28
42 -4 44 -4 90 54 72 91 179 255 216 334 19 38 39 70 45 70 12 0 42 -856 31
-884 -6 -14 -11 -14 -51 1 -41 15 -52 16 -108 3 -35 -8 -108 -15 -163 -15 -89
0 -106 3 -157 28 -66 32 -105 71 -151 148 -148 246 -244 576 -288 991 -6 59
-8 111 -5 116 3 5 52 24 108 42 57 18 128 41 158 51 64 21 77 23 85 9z m-845
-75 c0 -78 -17 -127 -58 -165 -22 -21 -105 -46 -180 -54 -47 -4 -53 -3 -50 12
2 13 18 19 60 24 61 8 114 30 136 57 27 34 52 102 53 143 2 50 5 58 25 58 11
0 14 -16 14 -75z m1798 34 c53 -17 39 -35 -45 -53 -43 -9 -109 -27 -146 -41
-57 -20 -69 -21 -74 -9 -3 8 -1 20 5 27 5 6 13 23 17 37 16 56 32 63 125 55
47 -3 100 -11 118 -16z m-773 -14 c18 -14 50 -29 72 -32 51 -8 73 -20 73 -41
0 -14 2 -15 9 -3 8 12 30 14 104 12 60 -2 97 1 102 8 9 15 45 14 45 -2 0 -7
-9 -29 -20 -50 -11 -20 -20 -43 -20 -50 0 -35 -35 -48 -146 -52 -60 -2 -158
-8 -217 -12 -60 -4 -114 -5 -119 -2 -11 7 -6 40 17 119 7 25 18 64 24 88 14
49 28 53 76 17z m-640 -40 c2 -27 8 -88 14 -135 11 -84 11 -85 -13 -105 -14
-11 -39 -38 -56 -59 -17 -22 -52 -62 -77 -89 -35 -38 -48 -46 -55 -35 -8 11
-5 163 7 368 l3 45 66 26 c36 14 69 28 73 32 19 20 35 -1 38 -48z m-228 -62
c-4 -36 -25 -142 -33 -172 -3 -8 -23 6 -54 39 -56 58 -53 54 -41 78 5 9 12 25
15 34 3 9 23 22 45 28 22 6 43 15 46 20 14 23 27 8 22 -27z m2403 -8 c134 -21
228 -42 309 -70 l65 -22 -2 -114 c-2 -63 -5 -143 -7 -179 -3 -36 -11 -227 -17
-425 -6 -198 -13 -380 -14 -405 -1 -25 -2 -111 -3 -192 -1 -111 -4 -150 -15
-161 -12 -11 -29 -12 -108 -1 -51 6 -140 22 -198 34 -58 12 -123 26 -145 30
-45 8 -118 26 -185 45 -25 7 -61 16 -80 19 -57 11 -119 27 -220 57 -52 15
-113 31 -135 34 -22 4 -69 19 -105 35 -78 33 -130 50 -153 50 -10 0 -21 10
-26 23 -8 19 -26 543 -33 961 -2 136 4 154 40 124 30 -25 261 -72 432 -88 262
-23 671 3 815 52 17 6 46 13 65 17 50 9 46 35 -7 42 -26 3 -49 14 -60 27 -17
21 -23 22 -78 13 -55 -8 -56 -9 -18 -10 45 -1 57 -10 47 -34 -7 -19 -39 -26
-129 -29 -70 -2 -70 -2 -114 40 -24 23 -42 44 -40 47 3 2 19 1 35 -3 34 -10
112 -4 120 9 5 9 -76 15 -146 11 -20 -1 -54 7 -75 18 -29 15 -59 20 -113 20
-40 0 -72 -4 -70 -9 4 -10 165 -138 181 -144 6 -2 7 -9 2 -16 -6 -11 -50 -13
-219 -8 -116 3 -236 10 -266 16 -30 5 -109 19 -175 31 -66 11 -132 23 -147 26
-32 6 -45 32 -20 40 9 3 51 18 92 34 41 16 91 31 110 35 19 3 53 10 75 16 116
28 556 31 735 4z m-3300 -116 c0 -10 -4 -20 -8 -23 -5 -3 -22 -43 -37 -88 -15
-46 -41 -112 -56 -148 -15 -35 -25 -68 -23 -72 11 -17 34 -7 40 17 3 14 10 25
14 25 4 0 13 12 19 28 6 15 33 61 61 102 28 41 61 98 75 126 24 51 24 52 74
55 56 4 64 -6 31 -36 -31 -28 -84 -114 -106 -170 -14 -37 -19 -75 -18 -145 0
-109 23 -180 80 -255 19 -25 34 -49 34 -53 -1 -12 -480 -166 -490 -156 -4 5
-4 34 2 67 8 48 7 61 -6 82 -9 14 -23 25 -31 25 -16 0 -63 -58 -125 -152 -24
-38 -51 -68 -59 -68 -19 0 -158 187 -222 299 -25 44 -53 106 -63 138 -9 32
-21 71 -26 88 -11 34 2 56 24 40 162 -122 308 -159 419 -107 100 47 249 219
292 337 24 67 29 72 70 67 26 -3 35 -9 35 -23z m409 -69 c4 -8 23 -23 41 -33
27 -15 38 -16 57 -8 13 6 43 11 67 11 27 0 48 6 56 15 7 8 17 15 22 15 5 0 21
9 35 20 l26 20 43 -42 c39 -40 84 -107 84 -127 0 -5 -22 -9 -50 -9 -34 0 -50
4 -50 13 0 18 21 24 43 13 12 -6 17 -5 17 6 0 7 -7 16 -15 20 -8 3 -15 13 -15
22 0 10 -5 14 -15 10 -9 -3 -15 0 -15 8 0 9 -16 14 -51 15 -44 1 -50 -1 -39
-14 11 -13 2 -15 -66 -16 -47 0 -71 -3 -60 -8 18 -7 18 -8 -5 -14 -13 -4 -44
-7 -69 -8 -68 -2 -12 -17 68 -18 46 -1 64 -5 68 -16 4 -8 12 -15 20 -15 8 0
14 7 14 15 0 11 12 15 45 15 33 0 45 -4 45 -15 0 -8 5 -15 10 -15 6 0 10 -7
10 -17 0 -15 -1 -15 -18 0 -24 22 -70 22 -95 0 -18 -17 -19 -17 -32 0 -18 24
-110 24 -124 0 -9 -17 -10 -17 -16 0 -5 11 -18 17 -41 17 -28 0 -38 -6 -54
-32 l-19 -31 -12 26 c-11 24 -18 27 -60 27 -35 0 -49 -4 -54 -17 -12 -32 -23
-217 -14 -235 5 -9 25 -20 44 -24 29 -5 38 -2 54 17 l18 23 12 -22 c11 -21 19
-22 117 -22 98 0 107 2 124 23 l19 22 16 -22 c23 -32 68 -30 94 3 l20 25 17
-25 c21 -34 65 -35 87 -3 23 34 34 11 13 -27 -24 -46 -115 -136 -137 -136 -9
0 -19 -6 -22 -14 -3 -8 -25 -16 -49 -19 -24 -3 -67 -10 -97 -15 -102 -17 -229
37 -302 129 -37 48 -79 165 -79 223 0 64 27 152 62 206 35 54 111 117 155 129
25 7 29 5 36 -23 5 -17 12 -38 16 -46z m775 -220 c7 -32 4 -37 -23 -53 -17
-10 -31 -22 -31 -27 0 -5 -13 -24 -28 -42 -35 -41 -99 -147 -103 -172 -2 -11
-9 -21 -15 -23 -8 -3 -14 18 -18 59 -4 35 -11 93 -17 130 -12 75 -2 108 33
108 19 0 82 50 153 122 l30 30 6 -49 c4 -26 10 -64 13 -83z m486 75 c25 -4 85
-20 133 -36 49 -16 102 -29 118 -29 18 0 29 -5 29 -14 0 -12 -45 -87 -82 -138
-7 -10 -29 -40 -48 -68 -38 -54 -57 -60 -108 -35 -71 36 -121 130 -127 239 -3
76 8 114 29 97 6 -6 32 -13 56 -16z m-1270 -91 c0 -8 -5 -12 -10 -9 -6 4 -8
11 -5 16 9 14 15 11 15 -7z m462 -101 c-9 -36 -10 -34 -10 32 0 62 1 66 10 38
7 -21 7 -44 0 -70z m-519 62 c8 -18 -11 -31 -25 -17 -11 11 -3 32 12 32 4 0
10 -7 13 -15z m174 -57 c-3 -8 -6 -5 -6 6 -1 11 2 17 5 13 3 -3 4 -12 1 -19z
m706 -35 c3 -10 8 -35 12 -57 3 -21 12 -47 18 -57 9 -14 7 -29 -7 -68 -9 -27
-24 -78 -31 -114 -19 -92 -47 -141 -108 -187 -78 -60 -78 -61 -75 -78 4 -24
43 -27 93 -7 76 28 185 165 185 230 0 37 13 30 33 -18 21 -51 21 -71 4 -86 -8
-6 -22 -30 -33 -53 -10 -24 -41 -74 -69 -113 -28 -38 -63 -89 -79 -113 -46
-68 -215 -259 -311 -351 -69 -67 -93 -98 -117 -150 -16 -36 -33 -75 -38 -86
-18 -38 -61 -200 -74 -275 -15 -88 -19 -91 -110 -65 -117 34 -252 80 -254 88
-4 11 244 245 375 356 121 101 192 177 241 256 62 102 112 312 112 476 0 70 5
94 36 172 20 49 49 112 65 139 16 27 29 53 29 58 0 5 8 14 19 19 10 6 28 31
40 56 22 48 37 56 44 28z m-5643 -194 c0 -6 -4 -7 -10 -4 -5 3 -10 11 -10 16
0 6 5 7 10 4 6 -3 10 -11 10 -16z m3082 -199 c-13 -11 -26 -35 -29 -56 l-6
-37 -19 22 c-10 13 -18 32 -18 42 0 10 -4 19 -10 19 -5 0 -10 7 -10 15 0 12
13 15 58 15 l57 -1 -23 -19z m2780 -158 c15 -26 47 -69 72 -96 25 -27 46 -51
46 -53 0 -2 -8 -3 -17 -3 -32 -1 -70 -44 -107 -123 -20 -43 -36 -81 -36 -86 0
-4 -14 -20 -31 -37 -34 -31 -89 -102 -89 -114 0 -20 53 -20 85 0 45 28 111
102 129 145 8 19 33 57 56 83 22 27 40 52 40 58 0 5 7 17 15 28 13 17 18 17
45 6 27 -11 29 -16 25 -49 -5 -31 -2 -39 21 -55 25 -18 29 -18 53 -3 14 9 28
28 31 43 l5 28 105 4 c170 8 185 7 228 -11 45 -18 105 -41 137 -52 20 -7 19
-7 -2 -22 -13 -9 -23 -24 -23 -35 0 -10 -7 -21 -15 -24 -41 -16 1 -84 51 -84
40 0 127 93 107 114 -10 10 12 7 74 -10 32 -9 90 -24 128 -34 39 -11 95 -26
125 -34 30 -9 89 -23 130 -32 41 -9 84 -21 95 -27 18 -10 15 -12 -24 -18 -83
-11 -117 -86 -65 -143 22 -23 33 -27 60 -23 25 4 34 2 34 -8 0 -8 -5 -17 -10
-20 -6 -4 -2 -18 10 -36 18 -24 29 -29 62 -29 50 0 107 26 120 56 22 48 -36
94 -102 80 -34 -6 -36 -1 -15 41 13 27 13 34 0 59 -8 15 -13 29 -12 31 2 1 21
-2 42 -7 22 -4 78 -16 125 -25 47 -9 112 -22 145 -30 68 -16 278 -38 322 -33
26 3 28 0 31 -33 3 -31 7 -38 31 -42 42 -9 71 2 73 27 0 11 1 28 2 36 1 12 29
17 141 26 77 7 187 17 244 23 161 17 288 14 336 -8 40 -18 181 -154 230 -221
76 -102 142 -272 128 -331 -8 -37 -47 -119 -56 -119 -5 0 -6 24 -1 53 14 104
7 166 -31 244 -39 83 -120 195 -192 266 l-49 47 -304 -2 c-279 -3 -305 -4
-308 -20 -5 -24 11 -26 253 -33 282 -8 338 -15 371 -45 45 -43 114 -138 150
-207 33 -66 34 -69 34 -193 0 -140 -14 -232 -39 -253 -20 -18 -321 -35 -321
-18 0 5 6 14 13 18 8 4 17 15 20 23 4 8 18 34 31 58 14 23 27 57 31 75 3 17
11 44 17 59 7 20 6 40 -7 80 -30 95 -81 188 -111 203 -26 13 -365 2 -464 -15
-72 -12 -98 -32 -69 -52 8 -5 109 -7 254 -4 132 3 245 2 252 -2 26 -17 55
-117 56 -197 2 -75 -1 -85 -42 -167 l-43 -88 -261 1 c-144 0 -296 4 -337 9
-137 15 -229 30 -302 50 -40 10 -93 24 -118 30 -25 7 -59 18 -77 26 -17 8 -37
14 -45 14 -8 0 -23 7 -34 15 -10 8 -29 15 -40 15 -12 0 -27 7 -34 15 -7 8 -22
15 -34 15 -12 0 -26 4 -32 10 -5 5 -54 32 -109 60 -75 38 -125 56 -199 71 -54
10 -101 21 -106 24 -4 2 -49 14 -101 25 -128 28 -123 26 -105 52 9 12 16 36
16 53 0 37 -42 98 -73 106 -14 3 -21 12 -20 24 1 11 -10 39 -24 62 -14 24 -24
46 -21 48 2 2 16 -2 30 -9 36 -19 71 -10 109 30 28 29 31 37 21 58 -12 27
-119 96 -149 96 -34 0 -66 -45 -67 -92 -1 -39 -4 -44 -31 -53 -17 -5 -44 -19
-59 -31 -25 -18 -28 -27 -28 -69 1 -55 20 -88 61 -109 36 -19 42 -36 29 -80
-9 -28 -8 -42 2 -61 20 -38 1 -52 -42 -33 -18 9 -43 19 -55 22 -12 4 -25 16
-28 26 -9 28 -46 36 -62 14 -11 -14 -12 -35 -7 -79 5 -47 14 -69 46 -111 43
-58 54 -64 104 -64 41 0 79 35 89 81 8 37 20 44 55 29 25 -10 32 -9 59 11 33
24 50 21 111 -19 14 -9 36 -15 51 -13 14 1 45 -4 70 -12 24 -8 61 -18 82 -21
46 -8 48 -23 5 -30 -18 -2 -87 -14 -153 -25 -120 -21 -404 -36 -676 -36 l-127
0 -58 55 c-33 31 -78 71 -101 91 -24 20 -43 42 -43 49 0 6 13 29 28 49 61 78
141 224 172 314 25 72 22 137 -10 209 -38 88 -70 85 -120 -10 -16 -31 -41 -77
-55 -102 -14 -25 -25 -52 -25 -60 0 -89 -177 -340 -240 -340 -10 0 -24 -16
-36 -41 -18 -41 -18 -42 2 -100 33 -93 31 -93 -216 -44 -41 8 -111 19 -155 25
-165 22 -158 17 -131 95 8 22 29 81 47 130 75 209 98 246 263 415 84 85 178
188 209 228 32 39 62 72 66 72 5 0 14 -6 20 -14 7 -8 26 -18 43 -21 27 -6 35
-2 77 41 63 66 71 83 51 117 -8 15 -23 30 -32 33 -10 3 -24 12 -33 20 -12 13
-12 19 3 49 9 19 19 35 22 35 3 0 17 -21 32 -48z m-4825 -418 c-3 -3 -12 -4
-19 -1 -8 3 -5 6 6 6 11 1 17 -2 13 -5z m270 -681 c9 -21 31 -58 48 -83 17
-25 39 -63 50 -85 11 -22 26 -44 33 -48 6 -4 12 -17 12 -27 0 -12 7 -20 16
-20 9 0 14 -5 12 -10 -3 -11 -298 -19 -298 -8 0 4 6 11 13 15 36 22 87 169 87
251 0 29 2 52 5 52 2 0 12 -17 22 -37z m3333 -1 c0 -14 -11 -21 -26 -15 -8 3
-11 9 -8 14 7 11 34 12 34 1z m-3117 -350 c9 -8 17 -23 17 -34 0 -10 4 -18 9
-18 8 0 47 -56 60 -85 2 -5 11 -16 18 -24 8 -7 11 -17 6 -21 -10 -10 -136 6
-163 20 -14 8 -29 7 -55 -4 -37 -16 -89 -19 -165 -11 l-45 5 38 -13 c50 -16
38 -27 -30 -27 -34 0 -52 -4 -50 -11 2 -14 -52 -31 -72 -24 -7 3 -19 -1 -25
-9 -6 -9 -32 -16 -61 -18 -27 -2 -54 -9 -60 -15 -5 -7 -32 -16 -60 -19 -27 -4
-53 -11 -56 -17 -4 -5 -28 -12 -55 -15 -27 -2 -58 -11 -69 -18 -11 -8 -38 -14
-61 -14 -28 0 -44 -5 -48 -15 -4 -11 -20 -15 -55 -15 -36 0 -50 -4 -55 -16 -6
-15 -19 -16 -99 -12 -50 3 -79 3 -63 -1 56 -12 22 -26 -59 -25 -44 1 -70 -1
-57 -5 44 -11 22 -26 -38 -25 -33 0 -60 -3 -60 -8 0 -4 7 -8 16 -8 9 0 12 -5
8 -11 -5 -8 -31 -10 -86 -5 -54 4 -77 3 -73 -4 3 -5 20 -10 36 -10 18 0 28 -4
24 -10 -3 -5 -22 -10 -42 -10 -20 0 -44 -7 -53 -15 -19 -18 -64 -21 -142 -10
-41 5 -58 4 -58 -4 0 -6 17 -11 39 -11 22 0 42 -4 45 -9 10 -16 -51 -23 -91
-11 -21 7 -50 10 -63 8 -24 -4 -24 -5 5 -12 58 -15 62 -17 35 -28 -14 -6 -32
-14 -41 -18 -20 -10 -43 12 -54 50 -9 34 -73 166 -101 211 -26 41 -23 49 16
49 15 0 58 6 96 14 38 8 119 22 179 31 114 17 218 35 340 60 39 7 113 21 165
30 52 9 127 23 165 30 39 8 90 17 115 20 122 17 375 84 407 107 33 25 193 55
353 66 147 11 154 10 173 -6z m4939 -176 c15 -8 40 -17 57 -21 17 -4 33 -11
36 -16 8 -12 82 -12 90 1 12 20 53 11 61 -12 3 -13 13 -31 22 -40 14 -17 13
-18 -11 -18 -15 0 -27 5 -27 10 0 6 -11 10 -25 10 -14 0 -25 -4 -25 -10 0 -5
11 -12 25 -16 14 -3 25 -10 25 -15 0 -5 8 -9 18 -9 11 0 29 -9 42 -20 13 -11
31 -20 42 -20 10 0 18 -4 18 -10 0 -16 -57 -12 -64 5 -3 8 -12 15 -20 15 -9 0
-39 13 -68 29 -29 15 -80 43 -113 61 -33 18 -77 42 -97 52 -38 20 -50 38 -25
38 6 0 24 -6 39 -14z m-4844 -76 c3 -7 9 -4 17 7 16 21 42 10 60 -23 6 -10 23
-38 38 -61 15 -24 27 -45 27 -48 0 -3 20 -34 45 -71 25 -36 45 -67 45 -70 0
-5 57 -83 80 -111 5 -7 10 -14 10 -17 0 -5 -83 34 -90 43 -5 6 -223 115 -290
145 -65 28 -125 48 -175 57 -27 4 -68 13 -90 18 -22 6 -65 11 -95 11 -40 1
-62 6 -79 21 -31 26 -22 33 26 20 60 -17 157 -13 236 10 39 11 90 25 112 30
22 5 51 12 65 16 l25 6 -25 7 c-14 5 -50 9 -80 9 -30 1 -50 5 -43 9 19 12 177
5 181 -8z m-218 -30 c0 -5 -18 -10 -39 -10 -22 0 -43 5 -46 10 -4 6 12 10 39
10 25 0 46 -4 46 -10z m-90 -30 c0 -5 -25 -10 -55 -10 -30 0 -55 5 -55 10 0 6
25 10 55 10 30 0 55 -4 55 -10z m5566 -85 c4 -8 16 -15 29 -15 12 0 28 -6 34
-14 7 -8 23 -17 37 -20 15 -4 37 -14 50 -22 l24 -16 -30 -30 c-38 -37 -40 -80
-5 -112 13 -12 93 -58 177 -100 84 -43 167 -86 183 -97 17 -10 37 -21 45 -25
8 -3 25 -11 37 -16 30 -15 80 5 115 45 l28 31 92 -46 c51 -25 100 -49 108 -52
8 -3 22 -10 30 -15 8 -5 22 -12 30 -15 8 -3 22 -10 30 -15 8 -5 22 -12 30 -15
8 -3 22 -10 30 -15 43 -25 142 -71 155 -71 9 0 18 -7 21 -15 4 -8 13 -15 21
-15 13 0 38 -11 93 -41 8 -5 49 -25 90 -45 215 -104 220 -107 209 -121 -15
-17 -29 -17 -48 1 -24 22 -159 56 -222 56 -30 0 -77 7 -103 16 -39 14 -55 14
-87 5 -29 -9 -37 -15 -32 -28 4 -11 2 -14 -8 -11 -8 3 -13 10 -12 16 2 6 -4 9
-11 6 -15 -6 -106 37 -301 140 -66 35 -189 99 -273 141 -84 43 -155 82 -158
86 -3 5 -13 9 -23 9 -10 0 -24 7 -31 15 -7 8 -20 15 -30 15 -10 0 -23 7 -30
15 -7 8 -21 15 -31 15 -9 0 -24 6 -31 13 -7 8 -26 17 -41 21 -15 3 -27 11 -27
16 0 6 -6 10 -14 10 -8 0 -58 22 -113 50 -54 27 -110 50 -125 50 -27 0 -39 15
-17 22 6 2 -10 14 -35 26 -25 13 -46 27 -46 31 0 4 28 30 61 57 34 27 65 59
70 72 10 25 47 30 55 7z m-7367 -155 c15 -69 13 -73 -9 -20 -21 51 -24 70 -11
70 5 0 14 -23 20 -50z m7581 30 c0 -5 -4 -10 -9 -10 -6 0 -13 5 -16 10 -3 6 1
10 9 10 9 0 16 -4 16 -10z m-400 -33 c0 -16 -47 -43 -57 -33 -4 4 3 16 17 26
30 23 40 25 40 7z m540 -63 c52 -25 102 -50 110 -55 8 -5 22 -12 30 -15 8 -3
42 -19 75 -34 33 -15 68 -31 78 -34 12 -4 17 -14 15 -28 -2 -19 -10 -24 -44
-26 -26 -2 -47 2 -56 11 -8 8 -25 18 -38 22 -14 4 -27 11 -30 15 -3 4 -44 26
-93 50 -48 23 -90 46 -93 51 -3 5 -13 9 -23 9 -10 0 -24 7 -31 15 -7 8 -23 15
-36 15 -19 0 -24 5 -24 25 0 22 5 25 32 25 18 0 75 -20 128 -46z m165 36 c3
-5 -1 -10 -9 -10 -9 0 -16 5 -16 10 0 6 4 10 9 10 6 0 13 -4 16 -10z m-690
-20 c3 -5 1 -10 -4 -10 -6 0 -11 5 -11 10 0 6 2 10 4 10 3 0 8 -4 11 -10z
m755 -10 c0 -5 -7 -10 -16 -10 -8 0 -12 5 -9 10 3 6 10 10 16 10 5 0 9 -4 9
-10z m65 -30 c3 -5 -1 -10 -9 -10 -9 0 -16 5 -16 10 0 6 4 10 9 10 6 0 13 -4
16 -10z m70 -30 c3 -5 -1 -10 -9 -10 -9 0 -16 5 -16 10 0 6 4 10 9 10 6 0 13
-4 16 -10z m-822 -59 c149 -80 486 -254 936 -482 85 -43 159 -83 165 -89 5 -5
20 -10 32 -10 13 0 26 -4 29 -10 4 -6 -6 -10 -24 -10 -16 0 -32 4 -35 9 -3 4
-33 11 -67 15 -50 6 -97 25 -253 103 -105 53 -198 100 -206 104 -8 5 -37 20
-65 34 -27 14 -57 30 -65 35 -8 5 -22 11 -30 14 -8 3 -24 11 -35 18 -29 17
-40 22 -155 80 l-105 53 -123 -2 c-145 -2 -179 -14 -269 -99 -32 -30 -65 -54
-74 -54 -9 0 -22 -7 -29 -15 -7 -8 -20 -15 -30 -15 -10 0 -23 -7 -30 -15 -8
-9 -30 -15 -58 -15 l-45 0 68 35 c37 20 77 42 88 50 12 8 29 15 39 15 10 0 18
7 18 15 0 8 5 15 11 15 6 0 36 22 66 49 30 27 61 47 67 45 9 -3 10 12 5 58 -3
35 -3 67 2 72 16 18 27 -6 26 -56 -1 -40 2 -53 13 -53 9 0 14 14 16 43 1 24 5
46 8 49 3 3 -2 12 -12 19 -15 12 -15 15 -2 24 25 17 48 11 123 -29z m890 22
c-7 -2 -19 -2 -25 0 -7 3 -2 5 12 5 14 0 19 -2 13 -5z m64 -29 c-3 -3 -12 -4
-19 -1 -8 3 -5 6 6 6 11 1 17 -2 13 -5z m-1237 -29 c0 -8 -2 -15 -4 -15 -2 0
-6 7 -10 15 -3 8 -1 15 4 15 6 0 10 -7 10 -15z m1160 -5 c-19 -13 -30 -13 -30
0 0 6 10 10 23 10 18 0 19 -2 7 -10z m143 3 c-7 -2 -19 -2 -25 0 -7 3 -2 5 12
5 14 0 19 -2 13 -5z m-56 -29 c-3 -3 -12 -4 -19 -1 -8 3 -5 6 6 6 11 1 17 -2
13 -5z m125 -6 c-9 -9 -15 -9 -24 0 -9 9 -7 12 12 12 19 0 21 -3 12 -12z m-59
-25 c-7 -2 -19 -2 -25 0 -7 3 -2 5 12 5 14 0 19 -2 13 -5z m127 -3 c0 -5 -6
-10 -14 -10 -8 0 -18 5 -21 10 -3 6 3 10 14 10 12 0 21 -4 21 -10z m-55 -30
c-3 -5 -12 -10 -20 -10 -8 0 -17 5 -20 10 -4 6 5 10 20 10 15 0 24 -4 20 -10z
m125 0 c0 -5 -6 -10 -14 -10 -8 0 -18 5 -21 10 -3 6 3 10 14 10 12 0 21 -4 21
-10z m-60 -30 c0 -5 -9 -10 -19 -10 -11 0 -23 5 -26 10 -4 6 5 10 19 10 14 0
26 -4 26 -10z m125 0 c3 -5 -3 -10 -14 -10 -12 0 -21 5 -21 10 0 6 6 10 14 10
8 0 18 -4 21 -10z m-55 -30 c0 -5 -11 -10 -25 -10 -14 0 -25 5 -25 10 0 6 11
10 25 10 14 0 25 -4 25 -10z m125 0 c4 -6 -5 -10 -19 -10 -14 0 -26 5 -26 10
0 6 9 10 19 10 11 0 23 -4 26 -10z m-1307 -7 c-10 -2 -26 -2 -35 0 -10 3 -2 5
17 5 19 0 27 -2 18 -5z m-158 -23 c0 -5 -12 -10 -28 -10 -15 0 -35 -8 -44 -17
-38 -41 -68 -55 -68 -33 0 6 6 10 14 10 8 0 16 7 20 15 3 8 10 15 16 15 6 0
18 7 26 15 17 17 64 20 64 5z m260 0 c11 -7 4 -10 -27 -10 -24 0 -43 5 -43 10
0 13 50 13 70 0z m1140 0 c0 -5 -11 -10 -25 -10 -14 0 -25 5 -25 10 0 6 11 10
25 10 14 0 25 -4 25 -10z m135 0 c4 -6 -5 -10 -19 -10 -14 0 -26 5 -26 10 0 6
9 10 19 10 11 0 23 -4 26 -10z m-1195 -36 c0 -2 -12 -4 -27 -4 -21 0 -24 3
-14 9 13 8 41 5 41 -5z m1130 6 c0 -5 -11 -10 -25 -10 -14 0 -25 5 -25 10 0 6
11 10 25 10 14 0 25 -4 25 -10z m125 0 c4 -6 -5 -10 -19 -10 -14 0 -26 5 -26
10 0 6 9 10 19 10 11 0 23 -4 26 -10z m-1446 -11 c36 -5 76 -12 89 -15 43 -9
21 -21 -50 -28 -95 -8 -151 -26 -189 -59 -17 -15 -35 -27 -39 -27 -4 0 -10 -7
-14 -15 -6 -16 -26 -21 -26 -6 0 5 13 23 29 39 18 18 31 42 33 62 3 29 8 35
43 46 52 16 48 16 124 3z m1387 -24 c4 -9 19 -15 35 -15 19 0 29 -5 29 -15 0
-10 10 -15 30 -15 18 0 33 -6 36 -15 4 -9 19 -15 35 -15 19 0 29 -5 29 -15 0
-10 10 -15 34 -15 21 0 36 -6 40 -15 3 -9 18 -15 36 -15 20 0 30 -5 30 -15 0
-10 10 -15 31 -15 38 0 35 24 -4 28 -15 2 -27 10 -27 18 0 9 -11 14 -30 14
-20 0 -30 5 -30 15 0 8 9 15 19 15 11 0 26 -7 35 -15 8 -8 21 -15 28 -15 7 0
22 -6 33 -14 11 -7 33 -16 48 -20 24 -6 27 -9 17 -21 -7 -8 -21 -15 -31 -15
-10 0 -23 -9 -29 -20 -9 -17 -14 -18 -38 -7 -15 6 -31 17 -35 24 -4 7 -18 13
-31 13 -13 0 -29 7 -36 15 -7 8 -21 15 -32 15 -10 0 -21 7 -24 15 -4 8 -16 15
-29 15 -12 0 -28 7 -35 15 -7 8 -23 15 -37 15 -13 0 -26 7 -29 15 -4 8 -17 15
-30 15 -14 0 -27 6 -30 14 -3 8 -18 16 -35 20 -16 3 -29 10 -29 16 0 16 50 12
56 -5z m129 5 c4 -6 -7 -10 -25 -10 -18 0 -29 4 -25 10 3 6 15 10 25 10 10 0
22 -4 25 -10z m-1268 -6 c-3 -3 -12 -4 -19 -1 -8 3 -5 6 6 6 11 1 17 -2 13 -5z
m-551 -41 c-10 -10 -19 5 -10 18 6 11 8 11 12 0 2 -7 1 -15 -2 -18z m474 11
c0 -2 -9 -4 -21 -4 -11 0 -18 4 -14 10 5 8 35 3 35 -6z m1405 7 c3 -5 1 -12
-4 -15 -13 -8 -42 4 -35 15 7 12 31 12 39 0z m59 -27 c24 -9 19 -24 -8 -24
-26 0 -40 12 -29 24 8 8 17 8 37 0z m-2030 -71 c-26 -19 -84 -27 -97 -14 -6 6
-9 12 -6 13 2 2 27 15 54 30 l50 27 8 -22 c6 -16 3 -25 -9 -34z m66 41 c0 -8
-5 -12 -10 -9 -6 4 -8 11 -5 16 9 14 15 11 15 -7z m-1939 -16 c-23 -6 -37 -6
-44 1 -8 8 2 11 34 10 l44 -1 -34 -10z m109 -28 c0 -13 -20 -13 -40 0 -12 8
-9 10 13 10 15 0 27 -4 27 -10z m1282 -10 c-18 -11 -34 -20 -37 -20 -2 0 -98
-45 -212 -101 -114 -55 -237 -114 -273 -131 -36 -17 -77 -37 -92 -44 -14 -8
-34 -14 -44 -14 -9 0 -25 -7 -35 -16 -9 -8 -28 -14 -41 -12 -19 3 -12 9 37 32
63 30 110 51 135 60 8 3 22 10 30 15 8 5 33 17 55 26 22 10 52 24 67 32 14 7
33 13 41 13 8 0 20 7 27 15 7 8 23 15 37 15 13 0 26 7 29 15 4 8 14 15 24 15
10 0 23 7 30 15 7 8 17 15 22 15 5 0 43 20 86 45 52 30 88 45 112 45 l35 0
-33 -20z m-1217 -20 c3 -5 -1 -10 -9 -10 -8 0 -18 5 -21 10 -3 6 1 10 9 10 8
0 18 -4 21 -10z m2525 0 c0 -5 -2 -10 -4 -10 -3 0 -8 5 -11 10 -3 6 -1 10 4
10 6 0 11 -4 11 -10z m-1000 -10 c0 -5 -2 -10 -4 -10 -3 0 -8 5 -11 10 -3 6
-1 10 4 10 6 0 11 -4 11 -10z m-1480 -20 c0 -5 -4 -10 -9 -10 -6 0 -13 5 -16
10 -3 6 1 10 9 10 9 0 16 -4 16 -10z m2611 -52 c20 -16 41 -28 47 -28 5 0 15
-7 22 -16 15 -18 71 -15 78 4 2 6 -3 12 -11 12 -8 0 -24 9 -37 20 -13 11 -29
20 -37 20 -7 0 -13 5 -13 10 0 15 27 12 44 -5 8 -8 21 -15 30 -15 8 0 18 -5
21 -11 4 -5 31 -21 61 -35 51 -23 67 -45 44 -59 -6 -4 -24 0 -40 9 -17 8 -30
11 -30 7 0 -5 -43 -11 -95 -13 -73 -4 -106 -11 -142 -29 -27 -13 -49 -27 -51
-31 -5 -10 -32 -10 -32 0 0 4 9 15 20 25 11 9 20 26 20 36 0 11 5 23 11 27 12
7 3 92 -12 110 -5 6 -6 14 -3 17 8 8 54 -17 105 -55z m29 52 c0 -5 -4 -10 -9
-10 -6 0 -13 5 -16 10 -3 6 1 10 9 10 9 0 16 -4 16 -10z m1315 -57 c-1 -45 -3
-48 -34 -54 -74 -15 -161 -140 -162 -232 0 -46 -2 -49 -11 -27 -13 34 -1 146
20 184 22 39 45 67 111 138 63 67 80 65 76 -9z m-1660 -18 c66 -32 130 -61
143 -66 30 -11 28 -33 -5 -64 -64 -59 -173 -94 -293 -95 -119 0 -300 70 -300
117 0 24 71 102 116 129 101 59 179 54 339 -21z m-2235 20 c19 -19 30 -35 24
-35 -5 0 -24 16 -43 35 -18 19 -29 35 -24 35 5 0 24 -16 43 -35z m1568 18 c-6
-8 -21 -10 -37 -7 -44 11 -43 20 3 19 34 0 42 -3 34 -12z m-1518 -73 c0 -5 -2
-10 -4 -10 -3 0 -8 5 -11 10 -3 6 -1 10 4 10 6 0 11 -4 11 -10z m-420 -20 c0
-5 5 -10 11 -10 7 0 31 -16 55 -35 23 -19 47 -35 52 -35 5 0 17 -9 27 -20 10
-11 24 -20 32 -20 7 0 13 -7 13 -15 0 -21 -24 -19 -45 5 -10 11 -22 20 -27 20
-11 0 -118 81 -137 104 -11 14 -11 16 3 16 9 0 16 -4 16 -10z m4010 -4 c0 -24
-18 -28 -30 -6 -9 17 -8 20 10 20 11 0 20 -6 20 -14z m-3520 -66 c0 -8 -13 1
-30 20 -38 45 -39 62 0 24 16 -16 30 -36 30 -44z m2784 23 c4 -9 2 -21 -4 -27
-7 -7 -10 -7 -10 1 0 6 -3 18 -6 27 -3 9 -2 16 4 16 5 0 13 -8 16 -17z m1004
-22 c3 -19 0 -22 -13 -17 -18 7 -56 -10 -68 -30 -9 -16 -27 -19 -27 -4 0 18
72 81 89 78 9 -2 18 -14 19 -27z m-838 9 c0 -13 -80 -13 -100 0 -11 7 2 10 43
10 31 0 57 -4 57 -10z m-2920 -51 c0 -5 -4 -9 -10 -9 -5 0 -10 7 -10 16 0 8 5
12 10 9 6 -3 10 -10 10 -16z m-290 -48 c0 -14 -18 -23 -30 -16 -6 4 -8 11 -5
16 8 12 35 12 35 0z m753 2 c-7 -2 -19 -2 -25 0 -7 3 -2 5 12 5 14 0 19 -2 13
-5z m3174 -25 c-3 -7 -5 -2 -5 12 0 14 2 19 5 13 2 -7 2 -19 0 -25z m-3667 2
c0 -5 -2 -10 -4 -10 -3 0 -8 5 -11 10 -3 6 -1 10 4 10 6 0 11 -4 11 -10z m215
0 c-3 -5 -15 -10 -26 -10 -11 0 -17 5 -14 10 3 6 15 10 26 10 11 0 17 -4 14
-10z m219 1 c6 -9 -35 -24 -43 -15 -6 5 18 24 31 24 4 0 9 -4 12 -9z m-644
-10 c0 -9 -41 -23 -48 -16 -2 2 -1 8 3 14 8 13 45 15 45 2z m260 -21 c0 -5 -4
-10 -10 -10 -5 0 -10 5 -10 10 0 6 5 10 10 10 6 0 10 -4 10 -10z m100 0 c-20
-13 -43 -13 -35 0 3 6 16 10 28 10 18 0 19 -2 7 -10z m240 -11 c0 -5 -13 -9
-30 -9 -32 0 -41 16 -12 22 21 5 42 -1 42 -13z m-560 2 c0 -11 -31 -24 -39
-16 -3 3 1 10 9 15 19 12 30 12 30 1z m3841 -38 c-9 -15 -10 -12 -10 17 0 29
1 32 10 18 7 -12 7 -24 0 -35z m-3353 9 c2 -8 -8 -12 -27 -12 -33 0 -42 16
-13 23 23 6 35 3 40 -11z m-438 -2 c0 -5 -2 -10 -4 -10 -3 0 -8 5 -11 10 -3 6
-1 10 4 10 6 0 11 -4 11 -10z m-30 -10 c0 -5 -7 -10 -16 -10 -8 0 -12 5 -9 10
3 6 10 10 16 10 5 0 9 -4 9 -10z m415 -20 c4 -6 -10 -10 -35 -10 -25 0 -39 4
-35 10 3 6 19 10 35 10 16 0 32 -4 35 -10z m3345 -17 c0 -20 -24 -11 -28 10
-2 12 1 15 12 11 9 -3 16 -13 16 -21z m-3620 -13 c0 -5 -7 -10 -15 -10 -8 0
-15 5 -15 10 0 6 7 10 15 10 8 0 15 -4 15 -10z m210 0 c0 -5 -16 -10 -35 -10
-35 0 -47 -16 -20 -26 17 -7 22 -84 5 -84 -5 0 -10 15 -10 33 0 22 -7 36 -21
45 -20 13 -20 14 -3 33 18 20 84 27 84 9z m3013 -17 c-7 -2 -19 -2 -25 0 -7 3
-2 5 12 5 14 0 19 -2 13 -5z m-3226 -27 c-3 -7 -1 -18 5 -24 6 -6 6 -12 -1
-16 -12 -8 -35 30 -26 44 9 15 28 12 22 -4z m253 -96 c0 -5 -7 -10 -16 -10 -8
0 -12 5 -9 10 3 6 10 10 16 10 5 0 9 -4 9 -10z m-46 -18 c2 -4 1 -14 -4 -22
-7 -11 -12 -12 -21 -3 -6 6 -8 16 -5 22 8 13 23 14 30 3z"/>
<path d="M5525 7683 c-48 -5 -59 -14 -51 -41 7 -21 114 -62 161 -62 28 0 29
-2 14 -44 -15 -43 2 -86 35 -86 36 0 47 22 44 82 -3 50 -5 53 -30 56 -17 2
-28 9 -28 18 0 9 -12 31 -26 50 -27 35 -29 36 -119 27z"/>
<path d="M5402 7588 c-16 -16 -15 -40 1 -62 9 -13 20 -16 41 -10 34 8 55 47
36 69 -15 18 -61 20 -78 3z"/>
<path d="M5850 7559 c0 -5 5 -7 10 -4 6 3 10 8 10 11 0 2 -4 4 -10 4 -5 0 -10
-5 -10 -11z"/>
<path d="M5472 7500 c-18 -24 -20 -34 -11 -57 10 -26 9 -26 -9 -10 -10 9 -29
18 -43 19 -20 3 -25 -2 -27 -25 -2 -15 4 -34 12 -43 9 -8 16 -25 16 -36 0 -11
27 -49 60 -84 33 -35 70 -82 82 -104 20 -35 27 -40 53 -38 27 3 30 7 33 39 2
23 -2 40 -12 49 -17 13 -22 40 -7 40 4 0 31 -18 59 -40 27 -22 55 -40 60 -40
6 0 15 -8 21 -17 8 -16 11 -15 21 9 13 27 6 45 -78 203 -17 32 -112 130 -134
138 -10 3 -18 11 -18 17 0 5 -13 10 -28 10 -20 0 -35 -9 -50 -30z"/>
<path d="M4616 7445 c-75 -27 -96 -40 -96 -61 0 -23 47 -27 91 -10 23 9 44 15
47 12 10 -10 -20 -35 -49 -41 -48 -11 -50 -48 -3 -96 21 -21 47 -42 58 -45 12
-3 36 -12 54 -21 45 -20 64 -11 60 28 -3 27 -9 34 -58 53 -40 16 -56 28 -58
43 -3 17 3 22 25 25 22 2 27 7 25 23 -2 11 -5 24 -5 30 -1 5 8 11 19 13 12 2
30 12 39 22 15 16 15 22 5 35 -18 22 -74 18 -154 -10z"/>
<path d="M5858 7289 c-45 -26 2 -94 60 -87 39 4 43 48 6 77 -30 23 -41 25 -66
10z"/>
<path d="M4242 7181 c-27 -17 -9 -53 41 -79 46 -24 47 -25 30 -44 -22 -25
-141 -104 -176 -117 -21 -8 -27 -17 -27 -41 0 -26 3 -30 29 -30 16 0 34 7 41
15 12 15 50 21 50 9 0 -4 -18 -26 -40 -50 -22 -24 -40 -48 -40 -53 0 -20 32
-33 69 -28 29 4 41 1 45 -10 11 -27 -4 -33 -85 -33 -70 0 -79 -2 -79 -18 0
-17 10 -19 95 -20 110 -2 118 5 113 86 -3 43 -5 47 -30 50 -16 2 -28 7 -28 11
0 5 18 29 40 54 42 48 48 65 28 86 -11 10 -9 15 7 27 34 25 75 65 75 74 0 5
-9 14 -21 20 -29 16 -59 43 -59 53 0 5 17 7 37 5 29 -2 38 1 41 15 3 15 -5 17
-56 17 -33 0 -66 2 -74 5 -7 3 -19 1 -26 -4z"/>
<path d="M4658 7173 c-3 -4 -1 -37 2 -73 8 -75 12 -70 12 13 0 56 -5 78 -14
60z"/>
<path d="M4662 7010 c0 -14 2 -19 5 -12 2 6 2 18 0 25 -3 6 -5 1 -5 -13z"/>
<path d="M6106 6991 c-4 -7 -5 -15 -2 -18 9 -9 19 4 14 18 -4 11 -6 11 -12 0z"/>
<path d="M5771 6951 c-12 -16 -21 -33 -21 -38 0 -17 62 -73 80 -73 40 0 69 63
35 77 -9 3 -22 18 -31 34 -19 37 -37 37 -63 0z"/>
<path d="M4595 6940 c-3 -5 1 -10 9 -10 9 0 16 5 16 10 0 6 -4 10 -9 10 -6 0
-13 -4 -16 -10z"/>
<path d="M4570 6910 c0 -5 5 -10 10 -10 6 0 10 5 10 10 0 6 -4 10 -10 10 -5 0
-10 -4 -10 -10z"/>
<path d="M4530 6880 c0 -5 4 -10 9 -10 6 0 13 5 16 10 3 6 -1 10 -9 10 -9 0
-16 -4 -16 -10z"/>
<path d="M4907 6873 c-29 -29 38 -138 69 -112 14 12 19 75 8 103 -6 16 -64 23
-77 9z"/>
<path d="M4475 6850 c-4 -6 5 -10 19 -10 14 0 26 5 26 10 0 6 -9 10 -19 10
-11 0 -23 -4 -26 -10z"/>
<path d="M5151 6844 c0 -11 3 -14 6 -6 3 7 2 16 -1 19 -3 4 -6 -2 -5 -13z"/>
<path d="M5183 6794 c-16 -34 -5 -50 51 -75 55 -24 66 -17 66 45 l0 53 -52 2
c-49 1 -54 -1 -65 -25z"/>
<path d="M5295 6690 c-12 -19 -10 -99 2 -111 9 -9 18 -8 37 5 33 21 37 89 7
106 -25 13 -38 13 -46 0z"/>
<path d="M5357 6564 c-12 -12 -8 -63 8 -101 9 -20 41 -60 73 -88 111 -101 177
-155 190 -155 33 0 2 44 -98 143 -60 60 -110 112 -110 117 0 4 -5 10 -11 12
-6 2 -14 19 -18 38 -6 33 -21 47 -34 34z"/>
<path d="M5765 5720 c-3 -5 -1 -10 4 -10 6 0 11 5 11 10 0 6 -2 10 -4 10 -3 0
-8 -4 -11 -10z"/>
<path d="M2610 7284 c-33 -31 -70 -69 -81 -85 -20 -28 -20 -29 -2 -54 10 -13
40 -32 68 -41 28 -9 64 -22 80 -29 117 -49 210 -65 328 -57 l78 5 41 54 c38
49 40 56 28 78 -7 14 -21 27 -32 31 -10 3 -18 14 -18 25 0 23 -18 60 -34 72
-15 10 -57 -1 -71 -19 -10 -14 -14 -14 -40 -1 -45 23 -226 77 -257 77 -19 0
-45 -17 -88 -56z"/>
<path d="M2547 7016 c-100 -72 -220 -93 -352 -61 -93 22 -112 20 -130 -15 -9
-18 -17 -64 -19 -108 -2 -42 -4 -79 -5 -81 0 -3 -16 9 -33 26 -56 52 -43 52
-293 -18 -38 -11 -79 -24 -90 -29 -11 -5 -37 -11 -57 -15 -21 -3 -38 -10 -38
-15 0 -5 -9 -12 -20 -15 -33 -11 -23 -41 43 -129 90 -120 89 -120 173 -90 38
13 85 24 104 24 19 0 44 7 54 15 11 8 27 15 36 15 15 0 90 37 100 49 3 3 24
19 47 35 36 24 42 33 37 52 l-6 24 333 2 c184 1 352 2 373 1 34 -2 50 6 123
63 l83 65 0 58 c0 67 -17 89 -77 101 -21 5 -63 13 -93 19 -51 10 -76 20 -153
57 -45 22 -78 15 -140 -30z"/>
<path d="M3580 6667 c-47 -22 -90 -58 -90 -76 0 -45 22 -54 145 -62 128 -9
155 -3 155 35 0 23 -28 56 -47 56 -5 0 -18 9 -27 19 -9 10 -29 21 -44 24 -15
3 -36 8 -47 10 -11 3 -31 0 -45 -6z"/>
<path d="M2990 6661 c-74 -13 -107 -30 -133 -70 -14 -21 -51 -66 -82 -100 -48
-51 -56 -65 -51 -86 10 -38 42 -45 143 -33 48 5 114 13 145 17 70 8 85 22 119
104 7 18 17 27 28 24 25 -5 71 21 71 42 0 10 -10 29 -23 42 -53 55 -127 75
-217 60z"/>
<path d="M2360 6585 c-26 -13 -74 -31 -125 -45 -44 -13 -127 -41 -150 -50 -11
-5 -36 -12 -55 -16 -19 -3 -41 -10 -50 -14 -27 -15 -146 -50 -166 -50 -11 0
-25 -5 -31 -11 -7 -7 -40 -15 -75 -18 -62 -6 -63 -6 -66 -38 l-3 -33 58 -1
c94 -2 118 -10 121 -41 2 -19 -3 -30 -17 -38 -25 -13 -27 -42 -5 -61 12 -10
22 -10 48 -1 18 7 49 12 70 12 49 0 297 55 361 80 11 4 47 17 80 30 73 27 93
36 216 94 52 25 98 46 102 46 14 0 77 69 77 85 0 29 -33 55 -70 55 -19 0 -66
7 -105 15 -84 18 -181 18 -215 0z"/>
<path d="M1385 6578 c-11 -6 -45 -32 -75 -58 -30 -26 -77 -62 -103 -80 -26
-19 -50 -44 -53 -57 -4 -13 -10 -23 -14 -23 -4 0 -11 -12 -15 -27 -3 -14 -15
-37 -25 -51 -32 -40 -13 -58 68 -66 38 -4 81 -4 95 -1 48 12 49 -3 5 -83 -22
-42 -52 -96 -65 -120 -43 -80 -26 -104 61 -83 158 38 296 122 296 180 0 46
-95 121 -154 121 -38 0 -40 16 -8 57 59 75 81 226 41 277 -23 29 -26 30 -54
14z"/>
<path d="M3353 6583 c9 -2 23 -2 30 0 6 3 -1 5 -18 5 -16 0 -22 -2 -12 -5z"/>
<path d="M3284 6523 c1 -12 -9 -19 -37 -24 -57 -9 -57 -19 1 -17 50 2 52 4 52
30 0 15 -4 28 -9 28 -5 0 -8 -8 -7 -17z"/>
<path d="M3373 6410 c-33 -14 -45 -43 -27 -68 18 -27 42 -28 83 -4 40 22 45
38 21 62 -21 21 -42 24 -77 10z"/>
<path d="M3702 6398 c-27 -13 -39 -53 -22 -73 28 -34 100 -8 100 35 0 21 -26
50 -43 49 -7 0 -22 -5 -35 -11z"/>
<path d="M2930 6320 c0 -5 7 -10 15 -10 8 0 15 5 15 10 0 6 -7 10 -15 10 -8 0
-15 -4 -15 -10z"/>
<path d="M2970 6295 c0 -9 6 -12 15 -9 8 4 12 10 9 15 -8 14 -24 10 -24 -6z"/>
<path d="M2520 6270 c20 -13 60 -13 60 0 0 6 -17 10 -37 10 -28 0 -34 -3 -23
-10z"/>
<path d="M2398 6243 c6 -2 18 -2 25 0 6 3 1 5 -13 5 -14 0 -19 -2 -12 -5z"/>
<path d="M2613 6232 c-62 -20 -135 -70 -159 -109 -10 -15 -26 -38 -37 -50 -32
-36 -17 -59 107 -171 41 -37 41 -44 -4 -49 -40 -4 -80 -31 -80 -53 0 -19 25
-38 80 -60 19 -8 50 -24 68 -36 18 -12 67 -30 108 -40 l76 -18 25 29 c21 24
33 29 72 30 46 0 46 0 47 34 0 19 5 36 12 39 23 7 12 38 -29 77 -67 66 -80 94
-70 149 11 57 -8 168 -33 195 -10 11 -37 24 -60 29 -22 5 -48 12 -56 15 -8 3
-38 -2 -67 -11z"/>
<path d="M2320 6210 c0 -5 5 -10 10 -10 6 0 10 5 10 10 0 6 -4 10 -10 10 -5 0
-10 -4 -10 -10z"/>
<path d="M2295 6180 c-3 -5 -1 -18 4 -27 9 -16 10 -14 11 10 0 28 -5 34 -15
17z"/>
<path d="M1980 6110 c-56 -21 -100 -39 -120 -51 -8 -4 -35 -18 -60 -31 -25
-12 -52 -27 -60 -33 -8 -6 -51 -19 -95 -29 -44 -9 -108 -23 -142 -31 -34 -8
-70 -15 -80 -15 -11 0 -30 -11 -43 -25 -22 -24 -23 -28 -10 -49 8 -13 60 -60
115 -105 70 -57 108 -81 127 -81 15 0 29 4 32 9 5 8 71 25 101 26 6 0 12 -15
15 -34 5 -32 9 -36 65 -54 33 -11 68 -24 77 -28 10 -5 27 -9 38 -9 29 0 25 -8
-28 -59 -128 -122 -154 -191 -89 -232 22 -14 43 -18 67 -15 57 7 144 26 165
36 11 4 56 20 100 34 44 14 105 35 135 46 30 12 64 24 75 27 11 4 29 12 40 20
11 7 25 13 32 13 6 0 39 18 72 40 93 62 82 94 -59 166 -30 15 -68 38 -85 50
-16 12 -58 35 -93 52 -34 16 -68 34 -75 40 -6 5 -32 17 -57 25 -64 21 -60 34
13 39 38 2 75 11 90 21 26 17 27 20 24 103 l-2 86 -40 16 c-22 8 -52 24 -67
34 -33 23 -115 22 -178 -2z"/>
<path d="M2322 6111 c2 -7 7 -12 11 -12 12 1 9 15 -3 20 -7 2 -11 -2 -8 -8z"/>
<path d="M2360 6080 c0 -5 5 -10 11 -10 5 0 7 5 4 10 -3 6 -8 10 -11 10 -2 0
-4 -4 -4 -10z"/>
<path d="M3649 5793 c-8 -2 -23 -16 -32 -31 -9 -15 -48 -61 -87 -102 -38 -41
-70 -80 -70 -87 0 -7 -7 -16 -16 -21 -15 -8 -16 -25 -10 -138 16 -315 22 -344
71 -344 28 0 54 41 80 125 10 33 24 74 30 90 50 119 65 145 113 194 56 57 61
72 37 117 -8 16 -15 40 -15 54 0 14 -7 34 -15 44 -8 11 -15 26 -15 33 0 15
-40 74 -49 72 -3 -1 -13 -3 -22 -6z"/>
<path d="M2367 5753 c-12 -12 -7 -22 8 -17 8 4 15 10 15 15 0 11 -14 12 -23 2z"/>
<path d="M1120 5736 c-30 -7 -66 -18 -80 -25 -30 -16 -80 -61 -80 -73 0 -4
-36 -55 -80 -113 -64 -84 -80 -112 -80 -139 0 -41 3 -42 115 -51 l80 -7 65 52
c35 28 79 67 98 86 18 19 39 34 47 34 8 0 34 13 58 30 41 27 45 34 51 83 9 70
-5 104 -49 122 -40 17 -70 17 -145 1z"/>
<path d="M1335 5528 c-114 -88 -195 -169 -195 -194 0 -26 34 -117 53 -141 44
-57 92 -92 133 -99 60 -9 107 2 124 28 53 76 174 208 192 208 18 0 6 56 -17
80 -23 24 -24 28 -10 40 8 7 15 23 15 35 0 25 -22 35 -82 35 -20 0 -47 4 -60
9 -13 5 -46 12 -73 15 -44 6 -55 4 -80 -16z"/>
<path d="M3972 5310 c0 -14 2 -19 5 -12 2 6 2 18 0 25 -3 6 -5 1 -5 -13z"/>
<path d="M3970 5239 c0 -5 5 -7 10 -4 6 3 10 8 10 11 0 2 -4 4 -10 4 -5 0 -10
-5 -10 -11z"/>
<path d="M3974 5085 c0 -77 2 -107 3 -67 2 40 2 103 0 140 -2 37 -3 4 -3 -73z"/>
<path d="M604 5179 c-17 -11 -44 -37 -59 -59 -23 -33 -28 -50 -27 -102 0 -120
4 -168 16 -177 15 -12 168 -51 200 -51 14 0 29 -7 34 -16 5 -9 29 -20 53 -24
52 -10 190 5 236 26 17 8 35 14 40 14 5 0 28 19 51 43 39 39 42 47 42 96 0
132 -107 219 -235 190 -51 -11 -54 -11 -88 16 -66 49 -107 65 -172 64 -41 0
-70 -7 -91 -20z"/>
<path d="M3387 4982 c-21 -23 -22 -97 -2 -172 8 -30 15 -69 15 -85 0 -28 47
-95 66 -95 12 0 148 75 171 94 40 34 30 55 -86 169 -111 110 -134 122 -164 89z"/>
<path d="M3972 4905 c0 -16 2 -22 5 -12 2 9 2 23 0 30 -3 6 -5 -1 -5 -18z"/>
<path d="M2712 4820 c-12 -16 -22 -35 -22 -42 0 -8 -6 -22 -13 -33 -8 -11 -20
-55 -27 -97 -25 -152 21 -292 133 -400 38 -38 55 -48 81 -48 44 0 47 5 102
153 8 23 22 55 30 70 21 42 17 70 -11 97 -14 13 -58 80 -97 149 -90 158 -107
181 -133 181 -12 0 -31 -13 -43 -30z"/>
<path d="M2280 4785 c-14 -8 -33 -14 -42 -15 -10 0 -18 -4 -18 -9 0 -5 -12
-14 -27 -20 -16 -7 -41 -19 -57 -28 -32 -17 -225 -207 -298 -294 -68 -80 -64
-107 23 -143 24 -10 56 -24 71 -32 14 -8 34 -14 45 -14 10 0 27 -7 37 -15 11
-8 39 -15 62 -15 l42 0 32 68 c17 37 36 74 41 82 5 8 12 22 15 30 3 8 10 23
15 33 6 10 25 46 43 80 92 170 137 272 130 291 -8 20 -79 21 -114 1z"/>
<path d="M2527 4675 c-18 -17 -27 -36 -27 -55 0 -24 -4 -30 -21 -30 -35 0 -57
-18 -84 -72 -14 -29 -35 -71 -47 -93 -57 -106 -73 -210 -42 -282 41 -95 59
-146 74 -198 5 -16 11 -39 15 -50 6 -19 2 -20 -89 -18 -62 1 -100 -3 -111 -11
-20 -14 -34 -78 -35 -156 0 -30 -5 -73 -10 -95 -8 -36 -6 -46 26 -100 34 -59
52 -89 66 -109 41 -59 100 -150 113 -175 32 -62 51 -60 156 13 52 36 102 66
112 66 36 0 127 52 163 93 42 50 91 149 100 205 4 27 1 50 -8 69 -30 57 -48
99 -69 162 -12 35 -28 75 -35 90 -8 14 -14 33 -14 41 0 8 -7 24 -15 34 -8 11
-15 28 -15 38 0 40 -99 168 -130 168 -10 0 -33 17 -50 38 -31 37 -31 38 -27
137 4 111 22 211 44 237 16 18 14 69 -2 75 -6 2 -22 -8 -38 -22z"/>
<path d="M3904 4175 c-4 -8 -2 -36 4 -63 l10 -47 1 63 c1 61 -4 77 -15 47z"/>
<path d="M3877 3993 c-10 -9 -9 -23 2 -23 5 0 11 7 15 15 5 15 -5 20 -17 8z"/>
<path d="M3847 3916 c-5 -15 -6 -31 -3 -34 8 -8 18 25 14 45 -3 13 -6 10 -11
-11z"/>
<path d="M4207 3898 c-22 -12 -22 -54 0 -66 22 -13 63 6 63 27 0 34 -34 56
-63 39z"/>
<path d="M3960 3865 c-26 -32 13 -81 48 -59 24 16 27 45 6 61 -23 17 -39 16
-54 -2z"/>
<path d="M3876 3764 c-18 -17 -21 -70 -6 -108 19 -51 79 -23 80 37 0 57 -45
101 -74 71z"/>
<path d="M3587 3699 c-24 -14 -97 -163 -107 -219 -24 -132 -39 -234 -45 -307
-6 -71 -5 -84 9 -89 20 -8 21 -48 1 -64 -17 -14 -20 -36 -6 -45 28 -16 97 57
85 89 -8 22 23 74 54 90 47 24 56 41 37 70 -9 14 -28 26 -43 28 -18 2 -26 8
-23 18 17 71 21 91 21 131 0 32 10 68 34 115 18 38 39 86 47 106 12 35 11 39
-11 63 -26 28 -28 28 -53 14z"/>
<path d="M3702 3694 c-28 -20 -29 -65 -1 -110 21 -34 45 -46 87 -42 18 2 22 8
22 40 0 20 -4 40 -10 43 -5 3 -10 15 -10 25 0 10 -9 21 -19 25 -11 3 -22 12
-25 20 -7 19 -16 19 -44 -1z"/>
<path d="M4026 3618 c-61 -34 -62 -168 -1 -168 32 0 53 23 61 66 4 20 12 38
19 41 10 3 10 11 -3 33 -18 31 -50 42 -76 28z"/>
<path d="M4300 3559 c0 -11 5 -17 10 -14 6 3 10 13 10 21 0 8 -4 14 -10 14 -5
0 -10 -9 -10 -21z"/>
<path d="M4131 3534 c-17 -21 -21 -41 -21 -98 0 -118 52 -173 101 -106 16 21
17 37 12 104 -5 67 -10 81 -32 102 -32 30 -35 30 -60 -2z"/>
<path d="M4270 3501 c0 -11 5 -23 10 -26 6 -4 10 5 10 19 0 14 -4 26 -10 26
-5 0 -10 -9 -10 -19z"/>
<path d="M5220 3509 c-8 -5 -60 -34 -115 -65 -55 -31 -108 -63 -117 -72 -23
-20 -23 -59 0 -71 19 -10 95 0 177 25 28 8 73 21 100 29 28 8 95 28 151 45 56
16 108 30 117 30 19 0 42 39 30 51 -8 8 -197 -20 -270 -40 -50 -14 -73 -14
-73 2 0 7 9 18 20 25 11 7 20 21 20 32 0 21 -15 25 -40 9z"/>
<path d="M3910 3499 c0 -5 5 -7 10 -4 6 3 10 8 10 11 0 2 -4 4 -10 4 -5 0 -10
-5 -10 -11z"/>
<path d="M4840 3459 c-106 -63 -120 -84 -79 -113 25 -17 43 -12 117 34 54 33
71 62 52 85 -17 21 -49 19 -90 -6z"/>
<path d="M3800 3418 c-11 -12 -23 -34 -26 -48 -3 -14 -11 -38 -19 -55 -7 -16
-15 -39 -18 -50 -3 -11 -15 -45 -27 -75 -12 -30 -26 -72 -31 -93 -5 -21 -13
-45 -18 -55 -12 -24 -31 -80 -43 -127 -6 -22 -15 -44 -19 -49 -5 -6 -9 -16 -9
-24 0 -8 -6 -28 -14 -45 -8 -18 -22 -57 -31 -87 -30 -95 -32 -98 -67 -105 -81
-18 -199 -104 -249 -180 -34 -52 -72 -156 -62 -166 16 -16 48 3 73 43 45 72
96 116 186 158 47 22 89 40 93 40 5 0 23 7 41 16 32 16 69 79 70 117 0 11 6
31 14 45 7 15 24 70 36 122 12 52 25 100 29 105 3 6 11 33 17 60 6 28 23 89
38 138 14 48 26 96 26 107 0 25 12 25 35 0 25 -27 38 -25 80 11 46 41 48 81 5
102 -29 15 -30 15 -60 -21 -23 -28 -31 -32 -35 -20 -4 9 1 32 9 53 18 42 21
91 7 100 -6 3 -19 -5 -31 -17z"/>
<path d="M4251 3424 c0 -11 3 -14 6 -6 3 7 2 16 -1 19 -3 4 -6 -2 -5 -13z"/>
<path d="M4330 3320 c-23 -43 11 -80 49 -54 26 19 27 50 2 64 -28 15 -39 13
-51 -10z"/>
<path d="M4061 3271 c-27 -27 -26 -42 3 -74 20 -22 31 -26 56 -21 18 4 41 1
54 -6 32 -16 66 2 66 35 0 31 -58 71 -116 81 -35 5 -45 3 -63 -15z"/>
<path d="M4585 3249 c-15 -29 -18 -30 -34 -15 -33 30 -71 -4 -71 -61 0 -31 46
-87 81 -98 49 -16 124 117 100 178 -15 39 -55 37 -76 -4z"/>
<path d="M3957 3223 c-10 -3 -23 -16 -28 -30 -8 -21 -6 -30 12 -50 13 -12 27
-23 33 -23 20 1 56 38 56 59 0 17 -35 53 -50 50 -3 -1 -13 -3 -23 -6z"/>
<path d="M4080 3140 c0 -5 5 -10 10 -10 6 0 10 5 10 10 0 6 -4 10 -10 10 -5 0
-10 -4 -10 -10z"/>
<path d="M5145 3125 c-5 -1 -39 -10 -75 -20 -106 -28 -194 -57 -207 -68 -18
-13 -16 -52 3 -68 16 -13 157 -4 369 24 86 11 90 13 90 37 0 24 -2 25 -82 28
-83 3 -101 12 -63 32 41 22 13 50 -35 35z"/>
<path d="M4060 3104 c0 -8 5 -12 10 -9 6 3 10 10 10 16 0 5 -4 9 -10 9 -5 0
-10 -7 -10 -16z"/>
<path d="M4712 3086 c-92 -39 -114 -71 -68 -101 18 -12 29 -13 43 -6 10 5 43
21 75 34 63 28 83 59 51 82 -24 19 -38 18 -101 -9z"/>
<path d="M3881 3055 c-35 -41 -34 -36 -21 -69 7 -20 16 -26 40 -26 65 0 100
93 45 118 -33 15 -28 17 -64 -23z"/>
<path d="M3385 2914 c-29 -45 -41 -126 -25 -174 12 -36 38 -60 65 -60 16 0 39
60 40 108 2 32 6 69 10 83 5 21 1 32 -16 48 -30 28 -53 27 -74 -5z"/>
<path d="M4525 2871 c-21 -12 -44 -21 -50 -21 -7 0 -18 -11 -25 -25 -12 -22
-12 -28 3 -42 14 -14 26 -15 94 -6 45 7 97 8 123 3 63 -11 202 -44 283 -66 50
-14 72 -16 85 -8 22 14 26 35 10 57 -13 18 -146 60 -248 78 -30 6 -63 18 -73
27 -30 27 -152 29 -202 3z"/>
<path d="M3735 2846 c-23 -17 -24 -84 0 -143 15 -37 21 -43 46 -43 40 0 54 32
44 105 -10 81 -46 113 -90 81z"/>
<path d="M5310 2427 c-51 -17 -60 -25 -60 -52 0 -19 8 -26 38 -34 50 -15 132
-13 162 2 28 14 38 58 17 75 -20 17 -117 22 -157 9z"/>
<path d="M4689 2423 c-26 -7 -76 -121 -90 -205 -17 -102 -3 -158 39 -158 19 0
39 12 63 38 64 67 69 82 69 192 0 87 -3 103 -20 120 -20 20 -29 22 -61 13z"/>
<path d="M3731 2319 c-27 -29 -29 -71 -9 -206 9 -65 17 -147 18 -182 0 -122
71 -187 111 -102 9 19 14 43 12 52 -3 10 4 31 16 48 l21 29 -20 114 c-32 182
-36 197 -56 221 -44 53 -63 58 -93 26z"/>
<path d="M5360 2277 c-48 -24 -29 -80 30 -89 20 -2 24 -9 25 -38 0 -26 6 -37
23 -45 26 -11 29 -30 6 -39 -14 -5 -16 -16 -11 -63 7 -66 27 -91 80 -100 31
-5 40 -1 64 24 47 50 63 76 63 103 -1 33 -15 50 -72 83 -40 23 -48 33 -48 58
0 16 5 38 12 49 10 16 9 23 -12 45 -20 21 -32 25 -79 25 -31 0 -67 -6 -81 -13z"/>
<path d="M5617 2212 c-24 -26 -21 -55 8 -82 23 -22 25 -22 50 -6 27 18 33 53
15 87 -13 24 -52 25 -73 1z"/>
<path d="M4903 2145 c-18 -13 -21 -25 -21 -85 0 -64 2 -73 26 -95 57 -53 112
-19 112 68 0 47 -4 57 -36 90 -40 41 -50 44 -81 22z"/>
<path d="M4454 2069 c-15 -16 -19 -38 -21 -97 -1 -42 -4 -81 -7 -88 -7 -19 26
-96 49 -116 11 -10 34 -17 52 -18 42 0 83 52 90 114 5 39 2 47 -31 83 -20 22
-36 48 -36 57 0 9 -7 32 -14 51 -18 41 -52 47 -82 14z"/>
<path d="M4673 2024 c-20 -31 -10 -54 30 -68 49 -18 88 42 51 78 -24 24 -61
20 -81 -10z"/>
<path d="M5144 1970 c-19 -27 -44 -52 -55 -55 -13 -4 -19 -15 -19 -35 0 -21 8
-33 34 -48 31 -18 34 -24 30 -54 -5 -29 -2 -35 26 -50 41 -23 61 -23 93 2 14
11 38 20 54 20 20 0 42 12 71 39 23 22 42 44 42 50 0 26 -35 51 -72 51 -21 0
-48 6 -59 13 -17 10 -23 10 -26 0 -3 -7 -9 -13 -15 -13 -6 0 -17 -8 -24 -17
-27 -36 -14 9 15 51 l28 43 -19 26 c-31 42 -62 36 -104 -23z"/>
<path d="M4844 1882 c-6 -4 -18 -31 -28 -60 -20 -62 -9 -116 31 -154 l23 -22
28 21 c25 18 27 26 30 98 2 57 -1 83 -13 101 -15 24 -49 31 -71 16z"/>
<path d="M4250 5469 c0 -18 2 -19 15 -9 8 7 15 16 15 21 0 5 -7 9 -15 9 -9 0
-15 -9 -15 -21z"/>
<path d="M5277 5503 c-12 -11 35 -53 82 -74 75 -33 253 -24 306 15 15 11 17
17 8 27 -9 9 -35 9 -113 -1 -91 -11 -109 -11 -166 5 -35 9 -67 21 -70 26 -6
11 -38 12 -47 2z"/>
<path d="M5610 5353 c-36 -7 -88 -14 -117 -14 -54 0 -91 -18 -79 -37 5 -8 41
-12 99 -12 105 0 187 22 187 51 0 25 -18 28 -90 12z"/>
<path d="M7652 5498 c-39 -39 17 -100 58 -63 25 22 25 37 2 58 -22 20 -43 22
-60 5z"/>
<path d="M7477 5449 c-21 -18 -43 -43 -48 -58 -9 -22 -6 -29 23 -52 33 -27 33
-27 13 -49 -17 -18 -18 -26 -8 -63 6 -23 9 -54 6 -70 -12 -59 45 -76 96 -28
34 32 40 61 16 81 -22 18 -18 46 9 67 30 24 51 82 42 118 -9 35 -61 85 -90 85
-12 0 -39 -14 -59 -31z"/>
<path d="M7801 5394 c-26 -33 -27 -66 -1 -89 39 -35 100 -13 100 36 0 22 -47
79 -65 79 -8 0 -23 -12 -34 -26z"/>
<path d="M7978 5394 c-8 -18 -9 -30 -1 -42 15 -24 54 -27 70 -6 17 24 17 30
-7 54 -27 27 -48 25 -62 -6z"/>
<path d="M7626 5277 c-26 -21 -28 -27 -19 -53 8 -26 15 -29 55 -32 39 -3 49 1
62 20 22 32 20 40 -17 66 -41 27 -45 27 -81 -1z"/>
<path d="M7902 5258 c-16 -21 -21 -48 -27 -140 l-6 -88 33 -20 c32 -19 99 -27
132 -14 19 7 22 64 4 82 -7 7 -20 12 -30 12 -22 0 -22 4 -2 36 l17 25 39 -41
c21 -22 44 -40 51 -40 7 0 29 14 50 31 46 38 51 80 12 105 -14 9 -32 14 -40
10 -8 -3 -27 -1 -41 5 -21 8 -31 6 -46 -8 -19 -17 -21 -17 -44 12 -13 17 -24
33 -24 38 0 12 -67 8 -78 -5z"/>
<path d="M7620 5159 c0 -5 11 -9 25 -9 14 0 25 2 25 4 0 2 -11 6 -25 8 -14 3
-25 1 -25 -3z"/>
<path d="M7690 5130 c0 -5 9 -10 21 -10 11 0 17 5 14 10 -3 6 -13 10 -21 10
-8 0 -14 -4 -14 -10z"/>
<path d="M7748 5113 c-23 -6 -17 -53 11 -71 18 -13 24 -12 46 2 29 19 32 38 9
60 -15 16 -32 18 -66 9z"/>
<path d="M8210 5085 l-24 -25 21 -28 c15 -19 29 -26 49 -25 49 4 61 59 19 87
-32 21 -37 20 -65 -9z"/>
<path d="M8920 4606 c0 -9 5 -16 10 -16 6 0 10 4 10 9 0 6 -4 13 -10 16 -5 3
-10 -1 -10 -9z"/>
<path d="M9350 4480 c0 -5 5 -10 10 -10 6 0 10 5 10 10 0 6 -4 10 -10 10 -5 0
-10 -4 -10 -10z"/>
<path d="M9390 4449 c0 -11 93 -20 104 -9 6 6 6 10 1 11 -85 4 -105 4 -105 -2z"/>
<path d="M6600 5342 c0 -10 7 -13 23 -8 12 3 28 6 35 6 6 0 12 3 12 8 0 4 -16
7 -35 8 -24 0 -35 -4 -35 -14z"/>
<path d="M7012 4800 c0 -14 2 -19 5 -12 2 6 2 18 0 25 -3 6 -5 1 -5 -13z"/>
<path d="M8687 4573 c-7 -15 5 -113 14 -113 5 0 9 27 9 60 0 52 -11 76 -23 53z"/>
<path d="M8360 4536 c0 -6 179 -124 267 -175 40 -24 77 -40 83 -36 12 8 13 55
1 88 -7 17 -20 26 -44 31 -18 3 -64 26 -101 51 -63 43 -70 45 -136 45 -39 0
-70 -2 -70 -4z"/>
<path d="M4860 4281 c0 -6 5 -13 10 -16 6 -3 10 1 10 9 0 9 -4 16 -10 16 -5 0
-10 -4 -10 -9z"/>
<path d="M5790 4620 c0 -5 5 -10 10 -10 6 0 10 5 10 10 0 6 -4 10 -10 10 -5 0
-10 -4 -10 -10z"/>
<path d="M5781 4201 c-7 -5 -10 -14 -7 -20 5 -7 -6 -11 -33 -11 -30 0 -41 4
-41 15 0 9 -9 15 -25 15 -16 0 -25 -6 -25 -15 0 -12 -20 -15 -116 -15 -99 0
-115 2 -110 15 9 23 -37 19 -52 -5 -10 -17 -9 -23 8 -40 11 -11 25 -20 30 -20
6 0 10 -5 10 -10 0 -6 8 -14 18 -17 9 -4 22 -13 27 -20 11 -15 145 -24 238
-15 47 4 55 7 46 18 -9 11 -5 14 25 14 25 0 36 4 36 15 0 8 7 15 15 15 8 0 15
7 15 15 0 8 7 15 15 15 25 0 17 17 -19 39 -38 24 -36 24 -55 12z"/>
<path d="M5575 4030 c4 -6 11 -8 16 -5 14 9 11 15 -7 15 -8 0 -12 -5 -9 -10z"/>
<path d="M6231 4413 c-1 -24 1 -43 3 -43 8 0 12 48 5 66 -5 13 -8 7 -8 -23z"/>
<path d="M6910 4410 c0 -5 5 -10 10 -10 6 0 10 5 10 10 0 6 -4 10 -10 10 -5 0
-10 -4 -10 -10z"/>
<path d="M6972 4360 c0 -14 2 -19 5 -12 2 6 2 18 0 25 -3 6 -5 1 -5 -13z"/>
<path d="M6884 4327 c-4 -12 11 -67 19 -67 1 0 1 18 -1 40 -4 42 -9 49 -18 27z"/>
<path d="M6852 4213 c-8 -14 -9 -24 -2 -28 12 -7 24 18 18 37 -3 8 -9 5 -16
-9z"/>
<path d="M6297 4123 c-10 -9 -9 -43 1 -43 4 0 9 11 10 25 2 26 0 29 -11 18z"/>
<path d="M7090 3446 c-18 -22 -8 -59 21 -75 22 -12 29 -12 54 0 43 21 53 44
31 68 -23 25 -87 29 -106 7z"/>
<path d="M6662 3378 c2 -15 11 -24 26 -26 27 -4 28 2 2 28 -26 26 -32 25 -28
-2z"/>
<path d="M6736 3355 c-21 -32 -6 -67 35 -82 28 -11 31 -10 40 13 14 40 11 62
-13 78 -31 22 -43 20 -62 -9z"/>
<path d="M6920 3353 c-45 -30 -72 -58 -85 -87 -11 -25 -10 -34 6 -60 9 -17 21
-48 24 -69 5 -27 20 -48 52 -77 30 -26 43 -45 39 -55 -3 -8 -10 -15 -16 -15
-5 0 -10 -7 -10 -15 0 -8 -13 -29 -29 -47 -16 -19 -32 -51 -36 -72 -6 -30 -14
-41 -44 -54 -41 -19 -51 -30 -51 -54 0 -32 37 -58 80 -58 38 0 42 3 77 58 39
62 101 125 146 148 31 17 51 57 41 86 -6 21 -42 38 -78 38 -35 0 -49 22 -36
55 9 23 7 32 -10 50 -26 28 -26 45 1 45 57 0 137 87 125 135 -14 54 -140 84
-196 48z"/>
<path d="M7650 3255 c-12 -23 -11 -28 10 -50 46 -48 120 -42 120 10 0 57 -104
89 -130 40z"/>
<path d="M6248 3243 c-38 -44 -27 -107 23 -136 29 -16 31 -20 25 -57 -3 -22
-9 -58 -12 -79 -5 -34 -2 -43 19 -65 15 -14 31 -26 37 -26 6 0 32 19 58 43 26
24 59 51 75 60 68 43 -1 156 -105 171 -48 7 -58 18 -58 61 0 14 -9 29 -19 35
-25 13 -25 13 -43 -7z"/>
<path d="M7776 3135 c-20 -31 -20 -31 4 -55 25 -25 41 -25 68 0 21 20 21 23 7
50 -20 38 -56 40 -79 5z"/>
<path d="M7547 3130 c-22 -14 -67 -102 -67 -132 0 -23 38 -72 62 -80 6 -2 13
-20 15 -39 8 -102 35 -139 104 -139 32 0 42 6 66 38 15 20 31 39 35 42 13 10
1 78 -21 108 -11 17 -21 43 -21 60 0 16 -9 41 -20 55 -11 14 -20 29 -20 34 0
5 -11 19 -24 32 -27 25 -83 36 -109 21z"/>
<path d="M7030 3120 c0 -5 5 -10 10 -10 6 0 10 5 10 10 0 6 -4 10 -10 10 -5 0
-10 -4 -10 -10z"/>
<path d="M8480 3123 c-8 -2 -24 -8 -35 -13 -11 -5 -41 -11 -67 -15 -56 -7 -72
-25 -73 -79 0 -22 -4 -47 -9 -54 -4 -8 -11 -59 -13 -115 -5 -94 -4 -104 17
-129 23 -30 60 -37 78 -15 6 7 13 60 14 117 l3 104 40 23 c22 12 66 45 97 74
56 52 56 53 42 81 -12 22 -21 28 -47 27 -17 0 -39 -3 -47 -6z"/>
<path d="M7066 3093 c-12 -12 -5 -23 14 -23 11 0 20 4 20 9 0 11 -26 22 -34
14z"/>
<path d="M7859 2967 c-31 -21 -34 -27 -37 -80 -3 -56 -2 -59 45 -112 54 -62
95 -81 137 -65 15 5 47 10 72 10 60 0 97 34 92 86 -3 40 -33 60 -123 86 -32 9
-54 22 -61 36 -32 65 -69 77 -125 39z"/>
<path d="M8700 2951 c-15 -30 -12 -44 16 -65 25 -18 26 -18 50 5 29 27 30 40
6 62 -25 23 -59 21 -72 -2z"/>
<path d="M7440 2930 c0 -5 7 -10 15 -10 8 0 15 5 15 10 0 6 -7 10 -15 10 -8 0
-15 -4 -15 -10z"/>
<path d="M8438 2916 c-28 -38 -9 -76 36 -76 34 0 46 13 46 48 0 26 -13 40 -40
46 -19 5 -29 0 -42 -18z"/>
<path d="M7475 2900 c3 -5 15 -10 26 -10 11 0 17 5 14 10 -3 6 -15 10 -26 10
-11 0 -17 -4 -14 -10z"/>
<path d="M7905 2640 c-8 -13 50 -16 180 -10 l50 3 -60 7 c-89 11 -163 11 -170
0z"/>
<path d="M7555 2550 c3 -5 13 -10 21 -10 8 0 14 5 14 10 0 6 -9 10 -21 10 -11
0 -17 -4 -14 -10z"/>
<path d="M9345 2370 c-3 -5 -1 -10 4 -10 6 0 11 5 11 10 0 6 -2 10 -4 10 -3 0
-8 -4 -11 -10z"/>
<path d="M1990 2514 c0 -8 5 -12 10 -9 6 3 10 10 10 16 0 5 -4 9 -10 9 -5 0
-10 -7 -10 -16z"/>
<path d="M2017 2483 c-8 -13 2 -43 14 -43 10 0 10 8 0 34 -5 12 -10 16 -14 9z"/>
<path d="M2045 2420 c-4 -6 -11 -8 -16 -5 -5 4 -9 2 -9 -4 0 -6 11 -13 25 -17
27 -7 35 -27 9 -22 -10 2 -19 -2 -21 -8 -5 -14 53 -24 66 -11 12 12 2 47 -15
47 -8 0 -14 7 -14 15 0 17 -16 20 -25 5z"/>
<path d="M2115 2240 c-11 -5 -14 -9 -7 -9 7 -1 10 -6 6 -12 -3 -6 -17 -8 -30
-5 -17 5 -24 2 -24 -9 0 -8 5 -15 10 -15 6 0 10 -11 10 -25 0 -17 6 -25 18
-26 9 0 43 0 75 -1 31 0 60 -4 63 -9 3 -5 -2 -9 -10 -9 -9 0 -16 -4 -16 -10 0
-11 33 -14 42 -4 10 10 -4 44 -18 44 -8 0 -14 9 -14 20 0 25 -9 25 -26 3 -11
-16 -12 -12 -7 23 5 37 3 42 -18 47 -29 8 -29 8 -54 -3z"/>
<path d="M1348 1923 c6 -2 18 -2 25 0 6 3 1 5 -13 5 -14 0 -19 -2 -12 -5z"/>
<path d="M1233 1893 c9 -2 23 -2 30 0 6 3 -1 5 -18 5 -16 0 -22 -2 -12 -5z"/>
<path d="M1113 1863 c9 -2 23 -2 30 0 6 3 -1 5 -18 5 -16 0 -22 -2 -12 -5z"/>
<path d="M550 1710 c20 -13 50 -13 50 0 0 6 -15 10 -32 10 -25 0 -29 -3 -18
-10z"/>
<path d="M7339 8181 c-126 -129 -229 -296 -305 -493 l-36 -93 1 -250 c1 -137
4 -251 6 -253 2 -2 94 -6 204 -9 l201 -6 0 581 c0 320 -3 582 -7 582 -4 0 -33
-26 -64 -59z"/>
</g>
</svg>
